<ttFont>
<head>
    <!-- Most of this table will be recalculated by the compiler -->
    <tableVersion value="1.0"/>
    <fontRevision value="5.0"/>
    <checkSumAdjustment value="0x17a78fda"/>
    <magicNumber value="0x5f0f3cf5"/>
    <flags value="00000000 00001011"/>
    <unitsPerEm value="2048"/>
    <created value="Sun May 15 08:57:39 2005"/>
    <modified value="Fri Apr 15 06:36:14 2011"/>
    <xMin value="-123"/>
    <yMin value="-1028"/>
    <xMax value="7216"/>
    <yMax value="2308"/>
    <macStyle value="00000000 00000000"/>
    <lowestRecPPEM value="8"/>
    <fontDirectionHint value="2"/>
    <indexToLocFormat value="1"/>
    <glyphDataFormat value="0"/>
  </head>
    <TTGlyph name=".notdef" xMin="142" yMin="226" xMax="842" yMax="1588">
      <contour>
        <pt x="142" y="226" on="1"/>
        <pt x="142" y="1588" on="1"/>
        <pt x="842" y="1588" on="1"/>
        <pt x="842" y="226" on="1"/>
      </contour>
      <contour>
        <pt x="284" y="368" on="1"/>
        <pt x="700" y="368" on="1"/>
        <pt x="700" y="1447" on="1"/>
        <pt x="284" y="1447" on="1"/>
      </contour>
    </TTGlyph>
    <TTGlyph name=".null" xMin="142" yMin="226" xMax="842" yMax="1588">
      <contour>
        <pt x="142" y="226" on="1"/>
        <pt x="142" y="1588" on="1"/>
        <pt x="842" y="1588" on="1"/>
        <pt x="842" y="226" on="1"/>
      </contour>
      <contour>
        <pt x="284" y="368" on="1"/>
        <pt x="700" y="368" on="1"/>
        <pt x="700" y="1447" on="1"/>
        <pt x="284" y="1447" on="1"/>
      </contour>
    </TTGlyph>
    <TTGlyph name="afii57381" xMin="142" yMin="226" xMax="842" yMax="1588">
      <contour>
        <pt x="142" y="226" on="1"/>
        <pt x="142" y="1588" on="1"/>
        <pt x="842" y="1588" on="1"/>
        <pt x="842" y="226" on="1"/>
      </contour>
      <contour>
        <pt x="284" y="368" on="1"/>
        <pt x="700" y="368" on="1"/>
        <pt x="700" y="1447" on="1"/>
        <pt x="284" y="1447" on="1"/>
      </contour>
    </TTGlyph>
    <TTGlyph name="afii57388" xMin="142" yMin="226" xMax="842" yMax="1588">
      <contour>
        <pt x="142" y="226" on="1"/>
        <pt x="142" y="1588" on="1"/>
        <pt x="842" y="1588" on="1"/>
        <pt x="842" y="226" on="1"/>
      </contour>
      <contour>
        <pt x="284" y="368" on="1"/>
        <pt x="700" y="368" on="1"/>
        <pt x="700" y="1447" on="1"/>
        <pt x="284" y="1447" on="1"/>
      </contour>
    </TTGlyph>
    <TTGlyph name="afii57396" xMin="142" yMin="226" xMax="842" yMax="1588">
      <contour>
        <pt x="142" y="226" on="1"/>
        <pt x="142" y="1588" on="1"/>
        <pt x="842" y="1588" on="1"/>
        <pt x="842" y="226" on="1"/>
      </contour>
      <contour>
        <pt x="284" y="368" on="1"/>
        <pt x="700" y="368" on="1"/>
        <pt x="700" y="1447" on="1"/>
        <pt x="284" y="1447" on="1"/>
      </contour>
    </TTGlyph>
    <TTGlyph name="afii57397" xMin="142" yMin="226" xMax="842" yMax="1588">
      <contour>
        <pt x="142" y="226" on="1"/>
        <pt x="142" y="1588" on="1"/>
        <pt x="842" y="1588" on="1"/>
        <pt x="842" y="226" on="1"/>
      </contour>
      <contour>
        <pt x="284" y="368" on="1"/>
        <pt x="700" y="368" on="1"/>
        <pt x="700" y="1447" on="1"/>
        <pt x="284" y="1447" on="1"/>
      </contour>
    </TTGlyph>
    <TTGlyph name="afii57398" xMin="142" yMin="226" xMax="842" yMax="1588">
      <contour>
        <pt x="142" y="226" on="1"/>
        <pt x="142" y="1588" on="1"/>
        <pt x="842" y="1588" on="1"/>
        <pt x="842" y="226" on="1"/>
      </contour>
      <contour>
        <pt x="284" y="368" on="1"/>
        <pt x="700" y="368" on="1"/>
        <pt x="700" y="1447" on="1"/>
        <pt x="284" y="1447" on="1"/>
      </contour>
    </TTGlyph>
    <TTGlyph name="afii57403" xMin="142" yMin="226" xMax="842" yMax="1588">
      <contour>
        <pt x="142" y="226" on="1"/>
        <pt x="142" y="1588" on="1"/>
        <pt x="842" y="1588" on="1"/>
        <pt x="842" y="226" on="1"/>
      </contour>
      <contour>
        <pt x="284" y="368" on="1"/>
        <pt x="700" y="368" on="1"/>
        <pt x="700" y="1447" on="1"/>
        <pt x="284" y="1447" on="1"/>
      </contour>
    </TTGlyph>
    <TTGlyph name="afii57407" xMin="142" yMin="226" xMax="842" yMax="1588">
      <contour>
        <pt x="142" y="226" on="1"/>
        <pt x="142" y="1588" on="1"/>
        <pt x="842" y="1588" on="1"/>
        <pt x="842" y="226" on="1"/>
      </contour>
      <contour>
        <pt x="284" y="368" on="1"/>
        <pt x="700" y="368" on="1"/>
        <pt x="700" y="1447" on="1"/>
        <pt x="284" y="1447" on="1"/>
      </contour>
    </TTGlyph>
    <TTGlyph name="afii57440" xMin="142" yMin="226" xMax="842" yMax="1588">
      <contour>
        <pt x="142" y="226" on="1"/>
        <pt x="142" y="1588" on="1"/>
        <pt x="842" y="1588" on="1"/>
        <pt x="842" y="226" on="1"/>
      </contour>
      <contour>
        <pt x="284" y="368" on="1"/>
        <pt x="700" y="368" on="1"/>
        <pt x="700" y="1447" on="1"/>
        <pt x="284" y="1447" on="1"/>
      </contour>
    </TTGlyph>
    <TTGlyph name="afii57451" xMin="142" yMin="226" xMax="842" yMax="1588">
      <contour>
        <pt x="142" y="226" on="1"/>
        <pt x="142" y="1588" on="1"/>
        <pt x="842" y="1588" on="1"/>
        <pt x="842" y="226" on="1"/>
      </contour>
      <contour>
        <pt x="284" y="368" on="1"/>
        <pt x="700" y="368" on="1"/>
        <pt x="700" y="1447" on="1"/>
        <pt x="284" y="1447" on="1"/>
      </contour>
    </TTGlyph>
    <TTGlyph name="afii57452" xMin="142" yMin="226" xMax="842" yMax="1588">
      <contour>
        <pt x="142" y="226" on="1"/>
        <pt x="142" y="1588" on="1"/>
        <pt x="842" y="1588" on="1"/>
        <pt x="842" y="226" on="1"/>
      </contour>
      <contour>
        <pt x="284" y="368" on="1"/>
        <pt x="700" y="368" on="1"/>
        <pt x="700" y="1447" on="1"/>
        <pt x="284" y="1447" on="1"/>
      </contour>
    </TTGlyph>
    <TTGlyph name="afii57453" xMin="142" yMin="226" xMax="842" yMax="1588">
      <contour>
        <pt x="142" y="226" on="1"/>
        <pt x="142" y="1588" on="1"/>
        <pt x="842" y="1588" on="1"/>
        <pt x="842" y="226" on="1"/>
      </contour>
      <contour>
        <pt x="284" y="368" on="1"/>
        <pt x="700" y="368" on="1"/>
        <pt x="700" y="1447" on="1"/>
        <pt x="284" y="1447" on="1"/>
      </contour>
    </TTGlyph>
    <TTGlyph name="afii57454" xMin="142" yMin="226" xMax="842" yMax="1588">
      <contour>
        <pt x="142" y="226" on="1"/>
        <pt x="142" y="1588" on="1"/>
        <pt x="842" y="1588" on="1"/>
        <pt x="842" y="226" on="1"/>
      </contour>
      <contour>
        <pt x="284" y="368" on="1"/>
        <pt x="700" y="368" on="1"/>
        <pt x="700" y="1447" on="1"/>
        <pt x="284" y="1447" on="1"/>
      </contour>
    </TTGlyph>
    <TTGlyph name="afii57455" xMin="142" yMin="226" xMax="842" yMax="1588">
      <contour>
        <pt x="142" y="226" on="1"/>
        <pt x="142" y="1588" on="1"/>
        <pt x="842" y="1588" on="1"/>
        <pt x="842" y="226" on="1"/>
      </contour>
      <contour>
        <pt x="284" y="368" on="1"/>
        <pt x="700" y="368" on="1"/>
        <pt x="700" y="1447" on="1"/>
        <pt x="284" y="1447" on="1"/>
      </contour>
    </TTGlyph>
    <TTGlyph name="afii57456" xMin="142" yMin="226" xMax="842" yMax="1588">
      <contour>
        <pt x="142" y="226" on="1"/>
        <pt x="142" y="1588" on="1"/>
        <pt x="842" y="1588" on="1"/>
        <pt x="842" y="226" on="1"/>
      </contour>
      <contour>
        <pt x="284" y="368" on="1"/>
        <pt x="700" y="368" on="1"/>
        <pt x="700" y="1447" on="1"/>
        <pt x="284" y="1447" on="1"/>
      </contour>
    </TTGlyph>
    <TTGlyph name="afii57457" xMin="142" yMin="226" xMax="842" yMax="1588">
      <contour>
        <pt x="142" y="226" on="1"/>
        <pt x="142" y="1588" on="1"/>
        <pt x="842" y="1588" on="1"/>
        <pt x="842" y="226" on="1"/>
      </contour>
      <contour>
        <pt x="284" y="368" on="1"/>
        <pt x="700" y="368" on="1"/>
        <pt x="700" y="1447" on="1"/>
        <pt x="284" y="1447" on="1"/>
      </contour>
    </TTGlyph>
    <TTGlyph name="afii57458" xMin="142" yMin="226" xMax="842" yMax="1588">
      <contour>
        <pt x="142" y="226" on="1"/>
        <pt x="142" y="1588" on="1"/>
        <pt x="842" y="1588" on="1"/>
        <pt x="842" y="226" on="1"/>
      </contour>
      <contour>
        <pt x="284" y="368" on="1"/>
        <pt x="700" y="368" on="1"/>
        <pt x="700" y="1447" on="1"/>
        <pt x="284" y="1447" on="1"/>
      </contour>
    </TTGlyph>
    <TTGlyph name="afii57505" xMin="142" yMin="226" xMax="842" yMax="1588">
      <contour>
        <pt x="142" y="226" on="1"/>
        <pt x="142" y="1588" on="1"/>
        <pt x="842" y="1588" on="1"/>
        <pt x="842" y="226" on="1"/>
      </contour>
      <contour>
        <pt x="284" y="368" on="1"/>
        <pt x="700" y="368" on="1"/>
        <pt x="700" y="1447" on="1"/>
        <pt x="284" y="1447" on="1"/>
      </contour>
    </TTGlyph>
    <TTGlyph name="afii57506" xMin="142" yMin="226" xMax="842" yMax="1588">
      <contour>
        <pt x="142" y="226" on="1"/>
        <pt x="142" y="1588" on="1"/>
        <pt x="842" y="1588" on="1"/>
        <pt x="842" y="226" on="1"/>
      </contour>
      <contour>
        <pt x="284" y="368" on="1"/>
        <pt x="700" y="368" on="1"/>
        <pt x="700" y="1447" on="1"/>
        <pt x="284" y="1447" on="1"/>
      </contour>
    </TTGlyph>
    <TTGlyph name="afii57507" xMin="142" yMin="226" xMax="842" yMax="1588">
      <contour>
        <pt x="142" y="226" on="1"/>
        <pt x="142" y="1588" on="1"/>
        <pt x="842" y="1588" on="1"/>
        <pt x="842" y="226" on="1"/>
      </contour>
      <contour>
        <pt x="284" y="368" on="1"/>
        <pt x="700" y="368" on="1"/>
        <pt x="700" y="1447" on="1"/>
        <pt x="284" y="1447" on="1"/>
      </contour>
    </TTGlyph>
    <TTGlyph name="afii57508" xMin="142" yMin="226" xMax="842" yMax="1588">
      <contour>
        <pt x="142" y="226" on="1"/>
        <pt x="142" y="1588" on="1"/>
        <pt x="842" y="1588" on="1"/>
        <pt x="842" y="226" on="1"/>
      </contour>
      <contour>
        <pt x="284" y="368" on="1"/>
        <pt x="700" y="368" on="1"/>
        <pt x="700" y="1447" on="1"/>
        <pt x="284" y="1447" on="1"/>
      </contour>
    </TTGlyph>
    <TTGlyph name="afii57509" xMin="142" yMin="226" xMax="842" yMax="1588">
      <contour>
        <pt x="142" y="226" on="1"/>
        <pt x="142" y="1588" on="1"/>
        <pt x="842" y="1588" on="1"/>
        <pt x="842" y="226" on="1"/>
      </contour>
      <contour>
        <pt x="284" y="368" on="1"/>
        <pt x="700" y="368" on="1"/>
        <pt x="700" y="1447" on="1"/>
        <pt x="284" y="1447" on="1"/>
      </contour>
    </TTGlyph>
    <TTGlyph name="afii57511" xMin="142" yMin="226" xMax="842" yMax="1588">
      <contour>
        <pt x="142" y="226" on="1"/>
        <pt x="142" y="1588" on="1"/>
        <pt x="842" y="1588" on="1"/>
        <pt x="842" y="226" on="1"/>
      </contour>
      <contour>
        <pt x="284" y="368" on="1"/>
        <pt x="700" y="368" on="1"/>
        <pt x="700" y="1447" on="1"/>
        <pt x="284" y="1447" on="1"/>
      </contour>
    </TTGlyph>
    <TTGlyph name="afii57512" xMin="142" yMin="226" xMax="842" yMax="1588">
      <contour>
        <pt x="142" y="226" on="1"/>
        <pt x="142" y="1588" on="1"/>
        <pt x="842" y="1588" on="1"/>
        <pt x="842" y="226" on="1"/>
      </contour>
      <contour>
        <pt x="284" y="368" on="1"/>
        <pt x="700" y="368" on="1"/>
        <pt x="700" y="1447" on="1"/>
        <pt x="284" y="1447" on="1"/>
      </contour>
    </TTGlyph>
    <TTGlyph name="afii57513" xMin="142" yMin="226" xMax="842" yMax="1588">
      <contour>
        <pt x="142" y="226" on="1"/>
        <pt x="142" y="1588" on="1"/>
        <pt x="842" y="1588" on="1"/>
        <pt x="842" y="226" on="1"/>
      </contour>
      <contour>
        <pt x="284" y="368" on="1"/>
        <pt x="700" y="368" on="1"/>
        <pt x="700" y="1447" on="1"/>
        <pt x="284" y="1447" on="1"/>
      </contour>
    </TTGlyph>
    <TTGlyph name="afii57514" xMin="142" yMin="226" xMax="842" yMax="1588">
      <contour>
        <pt x="142" y="226" on="1"/>
        <pt x="142" y="1588" on="1"/>
        <pt x="842" y="1588" on="1"/>
        <pt x="842" y="226" on="1"/>
      </contour>
      <contour>
        <pt x="284" y="368" on="1"/>
        <pt x="700" y="368" on="1"/>
        <pt x="700" y="1447" on="1"/>
        <pt x="284" y="1447" on="1"/>
      </contour>
    </TTGlyph>
    <TTGlyph name="afii57519" xMin="142" yMin="226" xMax="842" yMax="1588">
      <contour>
        <pt x="142" y="226" on="1"/>
        <pt x="142" y="1588" on="1"/>
        <pt x="842" y="1588" on="1"/>
        <pt x="842" y="226" on="1"/>
      </contour>
      <contour>
        <pt x="284" y="368" on="1"/>
        <pt x="700" y="368" on="1"/>
        <pt x="700" y="1447" on="1"/>
        <pt x="284" y="1447" on="1"/>
      </contour>
    </TTGlyph>
    <TTGlyph name="afii57534" xMin="142" yMin="226" xMax="842" yMax="1588">
      <contour>
        <pt x="142" y="226" on="1"/>
        <pt x="142" y="1588" on="1"/>
        <pt x="842" y="1588" on="1"/>
        <pt x="842" y="226" on="1"/>
      </contour>
      <contour>
        <pt x="284" y="368" on="1"/>
        <pt x="700" y="368" on="1"/>
        <pt x="700" y="1447" on="1"/>
        <pt x="284" y="1447" on="1"/>
      </contour>
    </TTGlyph>
    <TTGlyph name="afii63167" xMin="142" yMin="226" xMax="842" yMax="1588">
      <contour>
        <pt x="142" y="226" on="1"/>
        <pt x="142" y="1588" on="1"/>
        <pt x="842" y="1588" on="1"/>
        <pt x="842" y="226" on="1"/>
      </contour>
      <contour>
        <pt x="284" y="368" on="1"/>
        <pt x="700" y="368" on="1"/>
        <pt x="700" y="1447" on="1"/>
        <pt x="284" y="1447" on="1"/>
      </contour>
    </TTGlyph>
    <TTGlyph name="alefmaksurainitial" xMin="142" yMin="226" xMax="842" yMax="1588">
      <contour>
        <pt x="142" y="226" on="1"/>
        <pt x="142" y="1588" on="1"/>
        <pt x="842" y="1588" on="1"/>
        <pt x="842" y="226" on="1"/>
      </contour>
      <contour>
        <pt x="284" y="368" on="1"/>
        <pt x="700" y="368" on="1"/>
        <pt x="700" y="1447" on="1"/>
        <pt x="284" y="1447" on="1"/>
      </contour>
    </TTGlyph>
    <TTGlyph name="alefwaslafinalarabic" xMin="142" yMin="226" xMax="842" yMax="1588">
      <contour>
        <pt x="142" y="226" on="1"/>
        <pt x="142" y="1588" on="1"/>
        <pt x="842" y="1588" on="1"/>
        <pt x="842" y="226" on="1"/>
      </contour>
      <contour>
        <pt x="284" y="368" on="1"/>
        <pt x="700" y="368" on="1"/>
        <pt x="700" y="1447" on="1"/>
        <pt x="284" y="1447" on="1"/>
      </contour>
    </TTGlyph>
    <TTGlyph name="ampersand" xMin="142" yMin="226" xMax="842" yMax="1588">
      <contour>
        <pt x="142" y="226" on="1"/>
        <pt x="142" y="1588" on="1"/>
        <pt x="842" y="1588" on="1"/>
        <pt x="842" y="226" on="1"/>
      </contour>
      <contour>
        <pt x="284" y="368" on="1"/>
        <pt x="700" y="368" on="1"/>
        <pt x="700" y="1447" on="1"/>
        <pt x="284" y="1447" on="1"/>
      </contour>
    </TTGlyph>
    <TTGlyph name="asterisk" xMin="142" yMin="226" xMax="842" yMax="1588">
      <contour>
        <pt x="142" y="226" on="1"/>
        <pt x="142" y="1588" on="1"/>
        <pt x="842" y="1588" on="1"/>
        <pt x="842" y="226" on="1"/>
      </contour>
      <contour>
        <pt x="284" y="368" on="1"/>
        <pt x="700" y="368" on="1"/>
        <pt x="700" y="1447" on="1"/>
        <pt x="284" y="1447" on="1"/>
      </contour>
    </TTGlyph>
    <TTGlyph name="behmeemisolatedarabic" xMin="142" yMin="226" xMax="842" yMax="1588">
      <contour>
        <pt x="142" y="226" on="1"/>
        <pt x="142" y="1588" on="1"/>
        <pt x="842" y="1588" on="1"/>
        <pt x="842" y="226" on="1"/>
      </contour>
      <contour>
        <pt x="284" y="368" on="1"/>
        <pt x="700" y="368" on="1"/>
        <pt x="700" y="1447" on="1"/>
        <pt x="284" y="1447" on="1"/>
      </contour>
    </TTGlyph>
    <TTGlyph name="behnoonfinalarabic" xMin="142" yMin="226" xMax="842" yMax="1588">
      <contour>
        <pt x="142" y="226" on="1"/>
        <pt x="142" y="1588" on="1"/>
        <pt x="842" y="1588" on="1"/>
        <pt x="842" y="226" on="1"/>
      </contour>
      <contour>
        <pt x="284" y="368" on="1"/>
        <pt x="700" y="368" on="1"/>
        <pt x="700" y="1447" on="1"/>
        <pt x="284" y="1447" on="1"/>
      </contour>
    </TTGlyph>
    <TTGlyph name="colon" xMin="142" yMin="226" xMax="842" yMax="1588">
      <contour>
        <pt x="142" y="226" on="1"/>
        <pt x="142" y="1588" on="1"/>
        <pt x="842" y="1588" on="1"/>
        <pt x="842" y="226" on="1"/>
      </contour>
      <contour>
        <pt x="284" y="368" on="1"/>
        <pt x="700" y="368" on="1"/>
        <pt x="700" y="1447" on="1"/>
        <pt x="284" y="1447" on="1"/>
      </contour>
    </TTGlyph>
    <TTGlyph name="dagger" xMin="142" yMin="226" xMax="842" yMax="1588">
      <contour>
        <pt x="142" y="226" on="1"/>
        <pt x="142" y="1588" on="1"/>
        <pt x="842" y="1588" on="1"/>
        <pt x="842" y="226" on="1"/>
      </contour>
      <contour>
        <pt x="284" y="368" on="1"/>
        <pt x="700" y="368" on="1"/>
        <pt x="700" y="1447" on="1"/>
        <pt x="284" y="1447" on="1"/>
      </contour>
    </TTGlyph>
    <TTGlyph name="dalringfinal" xMin="142" yMin="226" xMax="842" yMax="1588">
      <contour>
        <pt x="142" y="226" on="1"/>
        <pt x="142" y="1588" on="1"/>
        <pt x="842" y="1588" on="1"/>
        <pt x="842" y="226" on="1"/>
      </contour>
      <contour>
        <pt x="284" y="368" on="1"/>
        <pt x="700" y="368" on="1"/>
        <pt x="700" y="1447" on="1"/>
        <pt x="284" y="1447" on="1"/>
      </contour>
    </TTGlyph>
    <TTGlyph name="ddalfinalarabic" xMin="142" yMin="226" xMax="842" yMax="1588">
      <contour>
        <pt x="142" y="226" on="1"/>
        <pt x="142" y="1588" on="1"/>
        <pt x="842" y="1588" on="1"/>
        <pt x="842" y="226" on="1"/>
      </contour>
      <contour>
        <pt x="284" y="368" on="1"/>
        <pt x="700" y="368" on="1"/>
        <pt x="700" y="1447" on="1"/>
        <pt x="284" y="1447" on="1"/>
      </contour>
    </TTGlyph>
    <TTGlyph name="divide" xMin="142" yMin="226" xMax="842" yMax="1588">
      <contour>
        <pt x="142" y="226" on="1"/>
        <pt x="142" y="1588" on="1"/>
        <pt x="842" y="1588" on="1"/>
        <pt x="842" y="226" on="1"/>
      </contour>
      <contour>
        <pt x="284" y="368" on="1"/>
        <pt x="700" y="368" on="1"/>
        <pt x="700" y="1447" on="1"/>
        <pt x="284" y="1447" on="1"/>
      </contour>
    </TTGlyph>
    <TTGlyph name="dollar" xMin="142" yMin="226" xMax="842" yMax="1588">
      <contour>
        <pt x="142" y="226" on="1"/>
        <pt x="142" y="1588" on="1"/>
        <pt x="842" y="1588" on="1"/>
        <pt x="842" y="226" on="1"/>
      </contour>
      <contour>
        <pt x="284" y="368" on="1"/>
        <pt x="700" y="368" on="1"/>
        <pt x="700" y="1447" on="1"/>
        <pt x="284" y="1447" on="1"/>
      </contour>
    </TTGlyph>
    <TTGlyph name="dotlessyehfinalarabic" xMin="142" yMin="226" xMax="842" yMax="1588">
      <contour>
        <pt x="142" y="226" on="1"/>
        <pt x="142" y="1588" on="1"/>
        <pt x="842" y="1588" on="1"/>
        <pt x="842" y="226" on="1"/>
      </contour>
      <contour>
        <pt x="284" y="368" on="1"/>
        <pt x="700" y="368" on="1"/>
        <pt x="700" y="1447" on="1"/>
        <pt x="284" y="1447" on="1"/>
      </contour>
    </TTGlyph>
    <TTGlyph name="dotlessyehinitialarabic" xMin="142" yMin="226" xMax="842" yMax="1588">
      <contour>
        <pt x="142" y="226" on="1"/>
        <pt x="142" y="1588" on="1"/>
        <pt x="842" y="1588" on="1"/>
        <pt x="842" y="226" on="1"/>
      </contour>
      <contour>
        <pt x="284" y="368" on="1"/>
        <pt x="700" y="368" on="1"/>
        <pt x="700" y="1447" on="1"/>
        <pt x="284" y="1447" on="1"/>
      </contour>
    </TTGlyph>
    <TTGlyph name="dotlessyehmedialarabic" xMin="142" yMin="226" xMax="842" yMax="1588">
      <contour>
        <pt x="142" y="226" on="1"/>
        <pt x="142" y="1588" on="1"/>
        <pt x="842" y="1588" on="1"/>
        <pt x="842" y="226" on="1"/>
      </contour>
      <contour>
        <pt x="284" y="368" on="1"/>
        <pt x="700" y="368" on="1"/>
        <pt x="700" y="1447" on="1"/>
        <pt x="284" y="1447" on="1"/>
      </contour>
    </TTGlyph>
    <TTGlyph name="elefmaksuramedial" xMin="142" yMin="226" xMax="842" yMax="1588">
      <contour>
        <pt x="142" y="226" on="1"/>
        <pt x="142" y="1588" on="1"/>
        <pt x="842" y="1588" on="1"/>
        <pt x="842" y="226" on="1"/>
      </contour>
      <contour>
        <pt x="284" y="368" on="1"/>
        <pt x="700" y="368" on="1"/>
        <pt x="700" y="1447" on="1"/>
        <pt x="284" y="1447" on="1"/>
      </contour>
    </TTGlyph>
    <TTGlyph name="ellipsis" xMin="142" yMin="226" xMax="842" yMax="1588">
      <contour>
        <pt x="142" y="226" on="1"/>
        <pt x="142" y="1588" on="1"/>
        <pt x="842" y="1588" on="1"/>
        <pt x="842" y="226" on="1"/>
      </contour>
      <contour>
        <pt x="284" y="368" on="1"/>
        <pt x="700" y="368" on="1"/>
        <pt x="700" y="1447" on="1"/>
        <pt x="284" y="1447" on="1"/>
      </contour>
    </TTGlyph>
    <TTGlyph name="emdash" xMin="210" yMin="-819" xMax="2258" yMax="1812">
      <contour>
        <pt x="2239" y="1765" on="1"/>
        <pt x="2240" y="1734" on="0"/>
        <pt x="2182" y="1678" on="1"/>
        <pt x="2152" y="1652" on="0"/>
        <pt x="2122" y="1624" on="1"/>
        <pt x="2062" y="1570" on="0"/>
        <pt x="1948" y="1464" on="1"/>
        <pt x="1940" y="1466" on="0"/>
        <pt x="1940" y="1489" on="1"/>
        <pt x="1940" y="1558" on="0"/>
        <pt x="2076" y="1670" on="1"/>
        <pt x="2126" y="1721" on="0"/>
        <pt x="2225" y="1812" on="1"/>
        <pt x="2233" y="1801" on="0"/>
        <pt x="2239" y="1801" on="1"/>
      </contour>
      <contour>
        <pt x="2258" y="1271" on="1"/>
        <pt x="2227" y="1242" on="0"/>
        <pt x="2174" y="1210" on="1"/>
        <pt x="2110" y="1171" on="0"/>
        <pt x="2090" y="1157" on="1"/>
        <pt x="2072" y="1157" on="1"/>
        <pt x="2064" y="1157" on="0"/>
        <pt x="2065" y="1176" on="1"/>
        <pt x="2068" y="1205" on="0"/>
        <pt x="2066" y="1212" on="1"/>
        <pt x="2063" y="1226" on="0"/>
        <pt x="2046" y="1258" on="1"/>
        <pt x="2032" y="1286" on="0"/>
        <pt x="2032" y="1300" on="1"/>
        <pt x="2032" y="1340" on="0"/>
        <pt x="2082" y="1410" on="1"/>
        <pt x="2129" y="1475" on="0"/>
        <pt x="2142" y="1475" on="1"/>
        <pt x="2166" y="1475" on="0"/>
        <pt x="2189" y="1420" on="1"/>
        <pt x="2191" y="1389" on="0"/>
        <pt x="2179" y="1328" on="1"/>
        <pt x="2198" y="1316" on="0"/>
        <pt x="2250" y="1330" on="1"/>
        <pt x="2258" y="1318" on="1"/>
      </contour>
      <contour>
        <pt x="2247" y="159" on="1"/>
        <pt x="2247" y="36" on="0"/>
        <pt x="2199" y="1" on="1"/>
        <pt x="2117" y="942" on="1"/>
        <pt x="2118" y="945" on="0"/>
        <pt x="2130" y="1028" on="1"/>
        <pt x="2139" y="1090" on="0"/>
        <pt x="2156" y="1126" on="1"/>
        <pt x="2168" y="1126" on="0"/>
        <pt x="2177" y="1103" on="1"/>
        <pt x="2194" y="907" on="0"/>
        <pt x="2220" y="541" on="1"/>
        <pt x="2247" y="190" on="0"/>
      </contour>
      <contour>
        <pt x="1872" y="1193" on="1"/>
        <pt x="1872" y="1136" on="0"/>
        <pt x="1773" y="1060" on="1"/>
        <pt x="1686" y="993" on="0"/>
        <pt x="1663" y="993" on="1"/>
        <pt x="1648" y="993" on="0"/>
        <pt x="1633" y="1017" on="1"/>
        <pt x="1640" y="1061" on="0"/>
        <pt x="1675" y="1081" on="1"/>
        <pt x="1716" y="1105" on="0"/>
        <pt x="1731" y="1142" on="1"/>
        <pt x="1726" y="1177" on="0"/>
        <pt x="1697" y="1177" on="1"/>
        <pt x="1688" y="1177" on="0"/>
        <pt x="1659" y="1154" on="1"/>
        <pt x="1616" y="1121" on="0"/>
        <pt x="1609" y="1117" on="1"/>
        <pt x="1609" y="1150" on="1"/>
        <pt x="1609" y="1161" on="0"/>
        <pt x="1674" y="1270" on="0"/>
        <pt x="1684" y="1275" on="1"/>
        <pt x="1691" y="1280" on="0"/>
        <pt x="1712" y="1280" on="1"/>
        <pt x="1719" y="1280" on="0"/>
        <pt x="1776" y="1257" on="1"/>
        <pt x="1837" y="1234" on="0"/>
        <pt x="1864" y="1228" on="1"/>
        <pt x="1872" y="1215" on="0"/>
      </contour>
      <contour>
        <pt x="1516" y="1213" on="1"/>
        <pt x="1516" y="1196" on="0"/>
        <pt x="1495" y="1157" on="0"/>
        <pt x="1486" y="1157" on="1"/>
        <pt x="1478" y="1157" on="0"/>
        <pt x="1436" y="1208" on="0"/>
        <pt x="1427" y="1208" on="1"/>
        <pt x="1421" y="1208" on="0"/>
        <pt x="1354" y="1121" on="1"/>
        <pt x="1276" y="1021" on="0"/>
        <pt x="1251" y="996" on="1"/>
        <pt x="1235" y="990" on="0"/>
        <pt x="1200" y="972" on="1"/>
        <pt x="1186" y="999" on="1"/>
        <pt x="1243" y="1081" on="0"/>
        <pt x="1357" y="1244" on="1"/>
        <pt x="1347" y="1266" on="0"/>
        <pt x="1313" y="1329" on="1"/>
        <pt x="1308" y="1338" on="0"/>
        <pt x="1308" y="1372" on="1"/>
        <pt x="1308" y="1422" on="0"/>
        <pt x="1340" y="1486" on="1"/>
        <pt x="1375" y="1557" on="0"/>
        <pt x="1416" y="1556" on="1"/>
        <pt x="1455" y="1528" on="0"/>
        <pt x="1453" y="1439" on="1"/>
        <pt x="1453" y="1434" on="0"/>
        <pt x="1446" y="1402" on="1"/>
        <pt x="1441" y="1375" on="0"/>
        <pt x="1444" y="1358" on="1"/>
        <pt x="1451" y="1330" on="0"/>
        <pt x="1485" y="1275" on="1"/>
        <pt x="1516" y="1225" on="0"/>
      </contour>
      <contour>
        <pt x="1835" y="-225" on="1"/>
        <pt x="1835" y="-253" on="0"/>
        <pt x="1817" y="-294" on="1"/>
        <pt x="1799" y="-338" on="0"/>
        <pt x="1783" y="-338" on="1"/>
        <pt x="1770" y="-338" on="0"/>
        <pt x="1745" y="-305" on="1"/>
        <pt x="1719" y="-271" on="0"/>
        <pt x="1719" y="-245" on="1"/>
        <pt x="1719" y="-218" on="0"/>
        <pt x="1765" y="-133" on="0"/>
        <pt x="1778" y="-133" on="1"/>
        <pt x="1795" y="-133" on="0"/>
        <pt x="1817" y="-176" on="1"/>
        <pt x="1835" y="-213" on="0"/>
      </contour>
      <contour>
        <pt x="1050" y="1167" on="1"/>
        <pt x="1050" y="1153" on="0"/>
        <pt x="1043" y="1137" on="0"/>
        <pt x="1043" y="1127" on="1"/>
        <pt x="1041" y="1127" on="0"/>
        <pt x="1031" y="1116" on="0"/>
        <pt x="1023" y="1116" on="1"/>
        <pt x="1016" y="1116" on="0"/>
        <pt x="966" y="1167" on="0"/>
        <pt x="958" y="1167" on="1"/>
        <pt x="953" y="1167" on="0"/>
        <pt x="899" y="1093" on="1"/>
        <pt x="835" y="1005" on="0"/>
        <pt x="808" y="976" on="1"/>
        <pt x="737" y="901" on="0"/>
        <pt x="722" y="902" on="1"/>
        <pt x="689" y="902" on="1"/>
        <pt x="689" y="949" on="1"/>
        <pt x="742" y="999" on="0"/>
        <pt x="804" y="1072" on="1"/>
        <pt x="891" y="1173" on="0"/>
        <pt x="891" y="1208" on="1"/>
        <pt x="891" y="1221" on="0"/>
        <pt x="886" y="1230" on="1"/>
        <pt x="848" y="1267" on="0"/>
        <pt x="848" y="1325" on="1"/>
        <pt x="848" y="1375" on="0"/>
        <pt x="925" y="1516" on="0"/>
        <pt x="952" y="1516" on="1"/>
        <pt x="986" y="1516" on="0"/>
        <pt x="993" y="1407" on="1"/>
        <pt x="994" y="1347" on="0"/>
        <pt x="996" y="1288" on="1"/>
        <pt x="1002" y="1275" on="0"/>
        <pt x="1034" y="1221" on="1"/>
        <pt x="1050" y="1195" on="0"/>
      </contour>
      <contour>
        <pt x="2099" y="276" on="1"/>
        <pt x="2099" y="164" on="0"/>
        <pt x="1979" y="164" on="1"/>
        <pt x="1973" y="164" on="0"/>
        <pt x="1896" y="174" on="0"/>
        <pt x="1888" y="174" on="1"/>
        <pt x="1853" y="174" on="0"/>
        <pt x="1705" y="84" on="1"/>
        <pt x="1645" y="66" on="0"/>
        <pt x="1533" y="16" on="1"/>
        <pt x="1506" y="1" on="0"/>
        <pt x="1485" y="-72" on="1"/>
        <pt x="1455" y="-180" on="0"/>
        <pt x="1450" y="-192" on="1"/>
        <pt x="1439" y="-238" on="0"/>
        <pt x="1403" y="-316" on="1"/>
        <pt x="1322" y="-422" on="0"/>
        <pt x="1314" y="-430" on="1"/>
        <pt x="1280" y="-461" on="0"/>
        <pt x="1210" y="-461" on="1"/>
        <pt x="1158" y="-461" on="0"/>
        <pt x="1101" y="-438" on="1"/>
        <pt x="1031" y="-410" on="0"/>
        <pt x="1007" y="-362" on="1"/>
        <pt x="1028" y="-344" on="0"/>
        <pt x="1070" y="-349" on="1"/>
        <pt x="1149" y="-358" on="0"/>
        <pt x="1140" y="-358" on="1"/>
        <pt x="1206" y="-358" on="0"/>
        <pt x="1236" y="-335" on="1"/>
        <pt x="1290" y="-295" on="0"/>
        <pt x="1363" y="-184" on="1"/>
        <pt x="1443" y="-62" on="0"/>
        <pt x="1443" y="0" on="1"/>
        <pt x="1443" y="12" on="0"/>
        <pt x="1414" y="64" on="1"/>
        <pt x="1412" y="77" on="0"/>
        <pt x="1412" y="102" on="1"/>
        <pt x="1412" y="205" on="0"/>
        <pt x="1446" y="205" on="1"/>
        <pt x="1454" y="205" on="0"/>
        <pt x="1533" y="174" on="0"/>
        <pt x="1541" y="174" on="1"/>
        <pt x="1637" y="174" on="0"/>
        <pt x="1688" y="253" on="1"/>
        <pt x="1688" y="279" on="1"/>
        <pt x="1662" y="307" on="0"/>
        <pt x="1633" y="307" on="1"/>
        <pt x="1625" y="307" on="0"/>
        <pt x="1582" y="287" on="0"/>
        <pt x="1574" y="287" on="1"/>
        <pt x="1500" y="287" on="1"/>
        <pt x="1497" y="297" on="0"/>
        <pt x="1492" y="312" on="1"/>
        <pt x="1510" y="363" on="0"/>
        <pt x="1555" y="446" on="1"/>
        <pt x="1609" y="512" on="0"/>
        <pt x="1642" y="512" on="1"/>
        <pt x="1661" y="512" on="0"/>
        <pt x="1733" y="451" on="1"/>
        <pt x="1812" y="383" on="0"/>
        <pt x="1815" y="381" on="1"/>
        <pt x="1842" y="366" on="0"/>
        <pt x="1894" y="340" on="1"/>
        <pt x="1932" y="323" on="0"/>
        <pt x="1990" y="316" on="1"/>
        <pt x="2041" y="311" on="0"/>
        <pt x="2091" y="306" on="1"/>
        <pt x="2099" y="293" on="0"/>
      </contour>
      <contour>
        <pt x="578" y="1126" on="1"/>
        <pt x="578" y="1074" on="0"/>
        <pt x="468" y="991" on="1"/>
        <pt x="368" y="915" on="0"/>
        <pt x="329" y="911" on="1"/>
        <pt x="321" y="924" on="1"/>
        <pt x="321" y="961" on="1"/>
        <pt x="329" y="972" on="0"/>
        <pt x="419" y="1062" on="1"/>
        <pt x="419" y="1089" on="1"/>
        <pt x="409" y="1106" on="0"/>
        <pt x="391" y="1106" on="1"/>
        <pt x="383" y="1106" on="0"/>
        <pt x="357" y="1072" on="1"/>
        <pt x="326" y="1034" on="0"/>
        <pt x="311" y="1024" on="1"/>
        <pt x="302" y="1038" on="0"/>
        <pt x="302" y="1054" on="1"/>
        <pt x="302" y="1099" on="0"/>
        <pt x="377" y="1208" on="0"/>
        <pt x="403" y="1208" on="1"/>
        <pt x="409" y="1208" on="0"/>
        <pt x="472" y="1186" on="1"/>
        <pt x="540" y="1162" on="0"/>
        <pt x="570" y="1156" on="1"/>
        <pt x="578" y="1143" on="0"/>
      </contour>
      <contour>
        <pt x="1216" y="246" on="1"/>
        <pt x="1216" y="171" on="0"/>
        <pt x="1198" y="97" on="1"/>
        <pt x="1174" y="0" on="0"/>
        <pt x="1133" y="0" on="1"/>
        <pt x="1126" y="0" on="0"/>
        <pt x="976" y="61" on="0"/>
        <pt x="968" y="61" on="1"/>
        <pt x="962" y="61" on="0"/>
        <pt x="787" y="-10" on="0"/>
        <pt x="781" y="-10" on="1"/>
        <pt x="779" y="-10" on="0"/>
        <pt x="616" y="0" on="0"/>
        <pt x="576" y="0" on="1"/>
        <pt x="555" y="-26" on="0"/>
        <pt x="549" y="-96" on="1"/>
        <pt x="542" y="-172" on="0"/>
        <pt x="532" y="-190" on="1"/>
        <pt x="529" y="-197" on="0"/>
        <pt x="526" y="-203" on="1"/>
        <pt x="520" y="-215" on="0"/>
        <pt x="511" y="-215" on="1"/>
        <pt x="475" y="-215" on="0"/>
        <pt x="444" y="-142" on="1"/>
        <pt x="417" y="-82" on="0"/>
        <pt x="414" y="-36" on="1"/>
        <pt x="417" y="9" on="0"/>
        <pt x="417" y="96" on="1"/>
        <pt x="412" y="106" on="0"/>
        <pt x="402" y="123" on="1"/>
        <pt x="334" y="111" on="0"/>
        <pt x="309" y="93" on="1"/>
        <pt x="266" y="61" on="0"/>
        <pt x="266" y="-20" on="1"/>
        <pt x="266" y="-33" on="0"/>
        <pt x="302" y="-652" on="0"/>
        <pt x="302" y="-666" on="1"/>
        <pt x="302" y="-692" on="0"/>
        <pt x="291" y="-747" on="1"/>
        <pt x="279" y="-806" on="0"/>
        <pt x="268" y="-819" on="1"/>
        <pt x="260" y="-801" on="0"/>
        <pt x="249" y="-774" on="1"/>
        <pt x="210" y="-208" on="0"/>
        <pt x="210" y="-81" on="1"/>
        <pt x="210" y="55" on="0"/>
        <pt x="255" y="155" on="1"/>
        <pt x="309" y="274" on="0"/>
        <pt x="409" y="289" on="1"/>
        <pt x="418" y="290" on="0"/>
        <pt x="448" y="338" on="0"/>
        <pt x="456" y="338" on="1"/>
        <pt x="459" y="338" on="0"/>
        <pt x="505" y="265" on="1"/>
        <pt x="553" y="188" on="0"/>
        <pt x="582" y="176" on="1"/>
        <pt x="638" y="153" on="0"/>
        <pt x="722" y="153" on="1"/>
        <pt x="721" y="153" on="0"/>
        <pt x="760" y="151" on="1"/>
        <pt x="787" y="148" on="0"/>
        <pt x="803" y="152" on="1"/>
        <pt x="826" y="157" on="0"/>
        <pt x="847" y="193" on="0"/>
        <pt x="868" y="286" on="1"/>
        <pt x="893" y="403" on="0"/>
        <pt x="907" y="447" on="1"/>
        <pt x="910" y="457" on="0"/>
        <pt x="910" y="466" on="1"/>
        <pt x="910" y="479" on="0"/>
        <pt x="893" y="515" on="0"/>
        <pt x="893" y="524" on="1"/>
        <pt x="892" y="569" on="0"/>
        <pt x="905" y="626" on="1"/>
        <pt x="922" y="696" on="0"/>
        <pt x="946" y="696" on="1"/>
        <pt x="959" y="696" on="0"/>
        <pt x="1068" y="560" on="1"/>
        <pt x="1175" y="427" on="0"/>
        <pt x="1188" y="397" on="1"/>
        <pt x="1216" y="337" on="0"/>
      </contour>
      <contour>
        <pt x="1406" y="1373" on="1"/>
        <pt x="1406" y="1413" on="1"/>
        <pt x="1406" y="1429" on="0"/>
        <pt x="1403" y="1432" on="1"/>
        <pt x="1401" y="1434" on="0"/>
        <pt x="1398" y="1432" on="1"/>
        <pt x="1377" y="1432" on="1"/>
        <pt x="1370" y="1396" on="1"/>
        <pt x="1383" y="1373" on="1"/>
      </contour>
      <contour>
        <pt x="952" y="1345" on="1"/>
        <pt x="938" y="1392" on="0"/>
        <pt x="923" y="1392" on="1"/>
        <pt x="909" y="1366" on="1"/>
        <pt x="930" y="1331" on="1"/>
        <pt x="944" y="1331" on="0"/>
      </contour>
      <contour>
        <pt x="1154" y="197" on="1"/>
        <pt x="1150" y="221" on="0"/>
        <pt x="1100" y="327" on="0"/>
        <pt x="1089" y="327" on="1"/>
        <pt x="1064" y="327" on="1"/>
        <pt x="1065" y="274" on="0"/>
        <pt x="1057" y="228" on="1"/>
        <pt x="1111" y="184" on="0"/>
        <pt x="1133" y="184" on="1"/>
        <pt x="1142" y="184" on="0"/>
        <pt x="1152" y="197" on="0"/>
      </contour>
      <contour>
        <pt x="1007" y="282" on="1"/>
        <pt x="994" y="369" on="0"/>
        <pt x="971" y="369" on="1"/>
        <pt x="957" y="369" on="0"/>
        <pt x="941" y="335" on="1"/>
        <pt x="928" y="305" on="0"/>
        <pt x="928" y="287" on="1"/>
        <pt x="928" y="225" on="0"/>
        <pt x="977" y="225" on="1"/>
        <pt x="988" y="225" on="0"/>
        <pt x="1007" y="262" on="0"/>
      </contour>
    </TTGlyph>
    <TTGlyph name="endash" xMin="210" yMin="-819" xMax="1234" yMax="1812">
      <contour>
        <pt x="1225" y="1765" on="1"/>
        <pt x="1225" y="1734" on="0"/>
        <pt x="1196" y="1678" on="1"/>
        <pt x="1181" y="1652" on="0"/>
        <pt x="1166" y="1624" on="1"/>
        <pt x="1136" y="1570" on="0"/>
        <pt x="1079" y="1464" on="1"/>
        <pt x="1075" y="1466" on="0"/>
        <pt x="1075" y="1489" on="1"/>
        <pt x="1075" y="1558" on="0"/>
        <pt x="1143" y="1670" on="1"/>
        <pt x="1168" y="1721" on="0"/>
        <pt x="1218" y="1812" on="1"/>
        <pt x="1222" y="1801" on="0"/>
        <pt x="1225" y="1801" on="1"/>
      </contour>
      <contour>
        <pt x="1234" y="1271" on="1"/>
        <pt x="1218" y="1242" on="0"/>
        <pt x="1192" y="1210" on="1"/>
        <pt x="1160" y="1171" on="0"/>
        <pt x="1150" y="1157" on="1"/>
        <pt x="1141" y="1157" on="1"/>
        <pt x="1137" y="1157" on="0"/>
        <pt x="1138" y="1176" on="1"/>
        <pt x="1139" y="1205" on="0"/>
        <pt x="1138" y="1212" on="1"/>
        <pt x="1137" y="1226" on="0"/>
        <pt x="1128" y="1258" on="1"/>
        <pt x="1121" y="1286" on="0"/>
        <pt x="1121" y="1300" on="1"/>
        <pt x="1121" y="1340" on="0"/>
        <pt x="1146" y="1410" on="1"/>
        <pt x="1169" y="1475" on="0"/>
        <pt x="1176" y="1475" on="1"/>
        <pt x="1188" y="1475" on="0"/>
        <pt x="1199" y="1420" on="1"/>
        <pt x="1200" y="1389" on="0"/>
        <pt x="1194" y="1328" on="1"/>
        <pt x="1204" y="1316" on="0"/>
        <pt x="1230" y="1330" on="1"/>
        <pt x="1234" y="1318" on="1"/>
      </contour>
      <contour>
        <pt x="1228" y="159" on="1"/>
        <pt x="1228" y="36" on="0"/>
        <pt x="1204" y="1" on="1"/>
        <pt x="1164" y="942" on="1"/>
        <pt x="1164" y="945" on="0"/>
        <pt x="1170" y="1028" on="1"/>
        <pt x="1174" y="1090" on="0"/>
        <pt x="1183" y="1126" on="1"/>
        <pt x="1189" y="1126" on="0"/>
        <pt x="1193" y="1103" on="1"/>
        <pt x="1202" y="907" on="0"/>
        <pt x="1215" y="541" on="1"/>
        <pt x="1228" y="190" on="0"/>
      </contour>
      <contour>
        <pt x="1041" y="1193" on="1"/>
        <pt x="1041" y="1136" on="0"/>
        <pt x="991" y="1060" on="1"/>
        <pt x="948" y="993" on="0"/>
        <pt x="937" y="993" on="1"/>
        <pt x="929" y="993" on="0"/>
        <pt x="922" y="1017" on="1"/>
        <pt x="925" y="1061" on="0"/>
        <pt x="942" y="1081" on="1"/>
        <pt x="963" y="1105" on="0"/>
        <pt x="971" y="1142" on="1"/>
        <pt x="968" y="1177" on="0"/>
        <pt x="954" y="1177" on="1"/>
        <pt x="949" y="1177" on="0"/>
        <pt x="934" y="1154" on="1"/>
        <pt x="913" y="1121" on="0"/>
        <pt x="910" y="1117" on="1"/>
        <pt x="910" y="1150" on="1"/>
        <pt x="909" y="1161" on="0"/>
        <pt x="942" y="1270" on="0"/>
        <pt x="947" y="1275" on="1"/>
        <pt x="951" y="1280" on="0"/>
        <pt x="961" y="1280" on="1"/>
        <pt x="965" y="1280" on="0"/>
        <pt x="993" y="1257" on="1"/>
        <pt x="1024" y="1234" on="0"/>
        <pt x="1037" y="1228" on="1"/>
        <pt x="1041" y="1215" on="0"/>
      </contour>
      <contour>
        <pt x="863" y="1213" on="1"/>
        <pt x="863" y="1196" on="0"/>
        <pt x="853" y="1157" on="0"/>
        <pt x="848" y="1157" on="1"/>
        <pt x="844" y="1157" on="0"/>
        <pt x="823" y="1208" on="0"/>
        <pt x="819" y="1208" on="1"/>
        <pt x="816" y="1208" on="0"/>
        <pt x="782" y="1121" on="1"/>
        <pt x="743" y="1021" on="0"/>
        <pt x="731" y="996" on="1"/>
        <pt x="723" y="990" on="0"/>
        <pt x="705" y="972" on="1"/>
        <pt x="698" y="999" on="1"/>
        <pt x="727" y="1081" on="0"/>
        <pt x="784" y="1244" on="1"/>
        <pt x="778" y="1266" on="0"/>
        <pt x="762" y="1329" on="1"/>
        <pt x="759" y="1338" on="0"/>
        <pt x="759" y="1372" on="1"/>
        <pt x="759" y="1422" on="0"/>
        <pt x="775" y="1486" on="1"/>
        <pt x="793" y="1557" on="0"/>
        <pt x="813" y="1556" on="1"/>
        <pt x="832" y="1528" on="0"/>
        <pt x="831" y="1439" on="1"/>
        <pt x="831" y="1434" on="0"/>
        <pt x="828" y="1402" on="1"/>
        <pt x="825" y="1375" on="0"/>
        <pt x="827" y="1358" on="1"/>
        <pt x="830" y="1330" on="0"/>
        <pt x="847" y="1275" on="1"/>
        <pt x="863" y="1225" on="0"/>
      </contour>
      <contour>
        <pt x="1023" y="-225" on="1"/>
        <pt x="1023" y="-253" on="0"/>
        <pt x="1014" y="-294" on="1"/>
        <pt x="1004" y="-338" on="0"/>
        <pt x="996" y="-338" on="1"/>
        <pt x="990" y="-338" on="0"/>
        <pt x="978" y="-305" on="1"/>
        <pt x="964" y="-271" on="0"/>
        <pt x="964" y="-245" on="1"/>
        <pt x="964" y="-218" on="0"/>
        <pt x="988" y="-133" on="0"/>
        <pt x="994" y="-133" on="1"/>
        <pt x="1002" y="-133" on="0"/>
        <pt x="1013" y="-176" on="1"/>
        <pt x="1023" y="-213" on="0"/>
      </contour>
      <contour>
        <pt x="630" y="1167" on="1"/>
        <pt x="630" y="1153" on="0"/>
        <pt x="627" y="1137" on="0"/>
        <pt x="627" y="1127" on="1"/>
        <pt x="626" y="1127" on="0"/>
        <pt x="621" y="1116" on="0"/>
        <pt x="616" y="1116" on="1"/>
        <pt x="613" y="1116" on="0"/>
        <pt x="588" y="1167" on="0"/>
        <pt x="584" y="1167" on="1"/>
        <pt x="582" y="1167" on="0"/>
        <pt x="554" y="1093" on="1"/>
        <pt x="522" y="1005" on="0"/>
        <pt x="509" y="976" on="1"/>
        <pt x="474" y="901" on="0"/>
        <pt x="466" y="902" on="1"/>
        <pt x="450" y="902" on="1"/>
        <pt x="450" y="949" on="1"/>
        <pt x="476" y="999" on="0"/>
        <pt x="507" y="1072" on="1"/>
        <pt x="551" y="1173" on="0"/>
        <pt x="551" y="1208" on="1"/>
        <pt x="551" y="1221" on="0"/>
        <pt x="548" y="1230" on="1"/>
        <pt x="529" y="1267" on="0"/>
        <pt x="529" y="1325" on="1"/>
        <pt x="529" y="1375" on="0"/>
        <pt x="568" y="1516" on="0"/>
        <pt x="581" y="1516" on="1"/>
        <pt x="598" y="1516" on="0"/>
        <pt x="601" y="1407" on="1"/>
        <pt x="602" y="1347" on="0"/>
        <pt x="603" y="1288" on="1"/>
        <pt x="606" y="1275" on="0"/>
        <pt x="622" y="1221" on="1"/>
        <pt x="630" y="1195" on="0"/>
      </contour>
      <contour>
        <pt x="1155" y="276" on="1"/>
        <pt x="1155" y="164" on="0"/>
        <pt x="1095" y="164" on="1"/>
        <pt x="1091" y="164" on="0"/>
        <pt x="1053" y="174" on="0"/>
        <pt x="1049" y="174" on="1"/>
        <pt x="1032" y="174" on="0"/>
        <pt x="957" y="84" on="1"/>
        <pt x="927" y="66" on="0"/>
        <pt x="872" y="16" on="1"/>
        <pt x="858" y="1" on="0"/>
        <pt x="848" y="-72" on="1"/>
        <pt x="833" y="-180" on="0"/>
        <pt x="830" y="-192" on="1"/>
        <pt x="824" y="-238" on="0"/>
        <pt x="806" y="-316" on="1"/>
        <pt x="766" y="-422" on="0"/>
        <pt x="762" y="-430" on="1"/>
        <pt x="745" y="-461" on="0"/>
        <pt x="710" y="-461" on="1"/>
        <pt x="684" y="-461" on="0"/>
        <pt x="656" y="-438" on="1"/>
        <pt x="621" y="-410" on="0"/>
        <pt x="609" y="-362" on="1"/>
        <pt x="619" y="-344" on="0"/>
        <pt x="640" y="-349" on="1"/>
        <pt x="680" y="-358" on="0"/>
        <pt x="675" y="-358" on="1"/>
        <pt x="708" y="-358" on="0"/>
        <pt x="723" y="-335" on="1"/>
        <pt x="750" y="-295" on="0"/>
        <pt x="787" y="-184" on="1"/>
        <pt x="826" y="-62" on="0"/>
        <pt x="826" y="0" on="1"/>
        <pt x="826" y="12" on="0"/>
        <pt x="812" y="64" on="1"/>
        <pt x="811" y="77" on="0"/>
        <pt x="811" y="102" on="1"/>
        <pt x="811" y="205" on="0"/>
        <pt x="828" y="205" on="1"/>
        <pt x="832" y="205" on="0"/>
        <pt x="872" y="174" on="0"/>
        <pt x="875" y="174" on="1"/>
        <pt x="924" y="174" on="0"/>
        <pt x="949" y="253" on="1"/>
        <pt x="949" y="279" on="1"/>
        <pt x="936" y="307" on="0"/>
        <pt x="922" y="307" on="1"/>
        <pt x="918" y="307" on="0"/>
        <pt x="896" y="287" on="0"/>
        <pt x="892" y="287" on="1"/>
        <pt x="855" y="287" on="1"/>
        <pt x="854" y="297" on="0"/>
        <pt x="851" y="312" on="1"/>
        <pt x="860" y="363" on="0"/>
        <pt x="882" y="446" on="1"/>
        <pt x="909" y="512" on="0"/>
        <pt x="926" y="512" on="1"/>
        <pt x="935" y="512" on="0"/>
        <pt x="971" y="451" on="1"/>
        <pt x="1011" y="383" on="0"/>
        <pt x="1012" y="381" on="1"/>
        <pt x="1026" y="366" on="0"/>
        <pt x="1052" y="340" on="1"/>
        <pt x="1071" y="323" on="0"/>
        <pt x="1100" y="316" on="1"/>
        <pt x="1125" y="311" on="0"/>
        <pt x="1151" y="306" on="1"/>
        <pt x="1155" y="293" on="0"/>
      </contour>
      <contour>
        <pt x="394" y="1126" on="1"/>
        <pt x="394" y="1074" on="0"/>
        <pt x="339" y="991" on="1"/>
        <pt x="289" y="915" on="0"/>
        <pt x="269" y="911" on="1"/>
        <pt x="265" y="924" on="1"/>
        <pt x="265" y="961" on="1"/>
        <pt x="270" y="972" on="0"/>
        <pt x="315" y="1062" on="1"/>
        <pt x="315" y="1089" on="1"/>
        <pt x="310" y="1106" on="0"/>
        <pt x="300" y="1106" on="1"/>
        <pt x="297" y="1106" on="0"/>
        <pt x="283" y="1072" on="1"/>
        <pt x="268" y="1034" on="0"/>
        <pt x="260" y="1024" on="1"/>
        <pt x="256" y="1038" on="0"/>
        <pt x="256" y="1054" on="1"/>
        <pt x="256" y="1099" on="0"/>
        <pt x="293" y="1208" on="0"/>
        <pt x="307" y="1208" on="1"/>
        <pt x="310" y="1208" on="0"/>
        <pt x="341" y="1186" on="1"/>
        <pt x="375" y="1162" on="0"/>
        <pt x="390" y="1156" on="1"/>
        <pt x="394" y="1143" on="0"/>
      </contour>
      <contour>
        <pt x="713" y="246" on="1"/>
        <pt x="713" y="171" on="0"/>
        <pt x="704" y="97" on="1"/>
        <pt x="692" y="0" on="0"/>
        <pt x="672" y="0" on="1"/>
        <pt x="668" y="0" on="0"/>
        <pt x="593" y="61" on="0"/>
        <pt x="589" y="61" on="1"/>
        <pt x="586" y="61" on="0"/>
        <pt x="499" y="-10" on="0"/>
        <pt x="495" y="-10" on="1"/>
        <pt x="495" y="-10" on="0"/>
        <pt x="413" y="0" on="0"/>
        <pt x="393" y="0" on="1"/>
        <pt x="383" y="-26" on="0"/>
        <pt x="380" y="-96" on="1"/>
        <pt x="376" y="-172" on="0"/>
        <pt x="371" y="-190" on="1"/>
        <pt x="369" y="-197" on="0"/>
        <pt x="368" y="-203" on="1"/>
        <pt x="365" y="-215" on="0"/>
        <pt x="360" y="-215" on="1"/>
        <pt x="342" y="-215" on="0"/>
        <pt x="327" y="-142" on="1"/>
        <pt x="314" y="-82" on="0"/>
        <pt x="312" y="-36" on="1"/>
        <pt x="313" y="9" on="0"/>
        <pt x="313" y="96" on="1"/>
        <pt x="311" y="106" on="0"/>
        <pt x="306" y="123" on="1"/>
        <pt x="272" y="111" on="0"/>
        <pt x="260" y="93" on="1"/>
        <pt x="238" y="61" on="0"/>
        <pt x="238" y="-20" on="1"/>
        <pt x="238" y="-33" on="0"/>
        <pt x="256" y="-652" on="0"/>
        <pt x="256" y="-666" on="1"/>
        <pt x="256" y="-692" on="0"/>
        <pt x="250" y="-747" on="1"/>
        <pt x="244" y="-806" on="0"/>
        <pt x="239" y="-819" on="1"/>
        <pt x="235" y="-801" on="0"/>
        <pt x="229" y="-774" on="1"/>
        <pt x="210" y="-208" on="0"/>
        <pt x="210" y="-81" on="1"/>
        <pt x="210" y="55" on="0"/>
        <pt x="232" y="155" on="1"/>
        <pt x="259" y="274" on="0"/>
        <pt x="310" y="289" on="1"/>
        <pt x="314" y="290" on="0"/>
        <pt x="329" y="338" on="0"/>
        <pt x="333" y="338" on="1"/>
        <pt x="334" y="338" on="0"/>
        <pt x="357" y="265" on="1"/>
        <pt x="381" y="188" on="0"/>
        <pt x="396" y="176" on="1"/>
        <pt x="424" y="153" on="0"/>
        <pt x="466" y="153" on="1"/>
        <pt x="465" y="153" on="0"/>
        <pt x="485" y="151" on="1"/>
        <pt x="498" y="148" on="0"/>
        <pt x="507" y="152" on="1"/>
        <pt x="518" y="157" on="0"/>
        <pt x="528" y="193" on="0"/>
        <pt x="539" y="286" on="1"/>
        <pt x="552" y="403" on="0"/>
        <pt x="559" y="447" on="1"/>
        <pt x="560" y="457" on="0"/>
        <pt x="560" y="466" on="1"/>
        <pt x="560" y="479" on="0"/>
        <pt x="551" y="515" on="0"/>
        <pt x="551" y="524" on="1"/>
        <pt x="551" y="569" on="0"/>
        <pt x="558" y="626" on="1"/>
        <pt x="566" y="696" on="0"/>
        <pt x="578" y="696" on="1"/>
        <pt x="585" y="696" on="0"/>
        <pt x="639" y="560" on="1"/>
        <pt x="692" y="427" on="0"/>
        <pt x="699" y="397" on="1"/>
        <pt x="713" y="337" on="0"/>
      </contour>
      <contour>
        <pt x="808" y="1373" on="1"/>
        <pt x="808" y="1413" on="1"/>
        <pt x="808" y="1429" on="0"/>
        <pt x="806" y="1432" on="1"/>
        <pt x="805" y="1434" on="0"/>
        <pt x="804" y="1432" on="1"/>
        <pt x="793" y="1432" on="1"/>
        <pt x="790" y="1396" on="1"/>
        <pt x="797" y="1373" on="1"/>
      </contour>
      <contour>
        <pt x="581" y="1345" on="1"/>
        <pt x="574" y="1392" on="0"/>
        <pt x="567" y="1392" on="1"/>
        <pt x="560" y="1366" on="1"/>
        <pt x="570" y="1331" on="1"/>
        <pt x="577" y="1331" on="0"/>
      </contour>
      <contour>
        <pt x="682" y="197" on="1"/>
        <pt x="680" y="221" on="0"/>
        <pt x="655" y="327" on="0"/>
        <pt x="650" y="327" on="1"/>
        <pt x="637" y="327" on="1"/>
        <pt x="637" y="274" on="0"/>
        <pt x="633" y="228" on="1"/>
        <pt x="660" y="184" on="0"/>
        <pt x="672" y="184" on="1"/>
        <pt x="676" y="184" on="0"/>
        <pt x="681" y="197" on="0"/>
      </contour>
      <contour>
        <pt x="609" y="282" on="1"/>
        <pt x="602" y="369" on="0"/>
        <pt x="590" y="369" on="1"/>
        <pt x="583" y="369" on="0"/>
        <pt x="576" y="335" on="1"/>
        <pt x="569" y="305" on="0"/>
        <pt x="569" y="287" on="1"/>
        <pt x="569" y="225" on="0"/>
        <pt x="593" y="225" on="1"/>
        <pt x="599" y="225" on="0"/>
        <pt x="609" y="262" on="0"/>
      </contour>
    </TTGlyph>
    <TTGlyph name="equal" xMin="142" yMin="226" xMax="842" yMax="1588">
      <contour>
        <pt x="142" y="226" on="1"/>
        <pt x="142" y="1588" on="1"/>
        <pt x="842" y="1588" on="1"/>
        <pt x="842" y="226" on="1"/>
      </contour>
      <contour>
        <pt x="284" y="368" on="1"/>
        <pt x="700" y="368" on="1"/>
        <pt x="700" y="1447" on="1"/>
        <pt x="284" y="1447" on="1"/>
      </contour>
    </TTGlyph>
    <TTGlyph name="exclam" xMin="142" yMin="226" xMax="842" yMax="1588">
      <contour>
        <pt x="142" y="226" on="1"/>
        <pt x="142" y="1588" on="1"/>
        <pt x="842" y="1588" on="1"/>
        <pt x="842" y="226" on="1"/>
      </contour>
      <contour>
        <pt x="284" y="368" on="1"/>
        <pt x="700" y="368" on="1"/>
        <pt x="700" y="1447" on="1"/>
        <pt x="284" y="1447" on="1"/>
      </contour>
    </TTGlyph>
    <TTGlyph name="figuredash" xMin="210" yMin="-819" xMax="3629" yMax="1812">
      <contour>
        <pt x="3598" y="1765" on="1"/>
        <pt x="3599" y="1734" on="0"/>
        <pt x="3502" y="1678" on="1"/>
        <pt x="3452" y="1652" on="0"/>
        <pt x="3402" y="1624" on="1"/>
        <pt x="3302" y="1570" on="0"/>
        <pt x="3112" y="1464" on="1"/>
        <pt x="3098" y="1466" on="0"/>
        <pt x="3098" y="1489" on="1"/>
        <pt x="3098" y="1558" on="0"/>
        <pt x="3325" y="1670" on="1"/>
        <pt x="3409" y="1721" on="0"/>
        <pt x="3574" y="1812" on="1"/>
        <pt x="3588" y="1801" on="0"/>
        <pt x="3598" y="1801" on="1"/>
      </contour>
      <contour>
        <pt x="3629" y="1271" on="1"/>
        <pt x="3577" y="1242" on="0"/>
        <pt x="3489" y="1210" on="1"/>
        <pt x="3382" y="1171" on="0"/>
        <pt x="3349" y="1157" on="1"/>
        <pt x="3318" y="1157" on="1"/>
        <pt x="3305" y="1157" on="0"/>
        <pt x="3307" y="1176" on="1"/>
        <pt x="3311" y="1205" on="0"/>
        <pt x="3309" y="1212" on="1"/>
        <pt x="3304" y="1226" on="0"/>
        <pt x="3275" y="1258" on="1"/>
        <pt x="3251" y="1286" on="0"/>
        <pt x="3251" y="1300" on="1"/>
        <pt x="3251" y="1340" on="0"/>
        <pt x="3335" y="1410" on="1"/>
        <pt x="3413" y="1475" on="0"/>
        <pt x="3435" y="1475" on="1"/>
        <pt x="3475" y="1475" on="0"/>
        <pt x="3513" y="1420" on="1"/>
        <pt x="3517" y="1389" on="0"/>
        <pt x="3497" y="1328" on="1"/>
        <pt x="3529" y="1316" on="0"/>
        <pt x="3616" y="1330" on="1"/>
        <pt x="3629" y="1318" on="1"/>
      </contour>
      <contour>
        <pt x="3610" y="159" on="1"/>
        <pt x="3610" y="36" on="0"/>
        <pt x="3530" y="1" on="1"/>
        <pt x="3394" y="942" on="1"/>
        <pt x="3396" y="945" on="0"/>
        <pt x="3416" y="1028" on="1"/>
        <pt x="3430" y="1090" on="0"/>
        <pt x="3459" y="1126" on="1"/>
        <pt x="3478" y="1126" on="0"/>
        <pt x="3493" y="1103" on="1"/>
        <pt x="3522" y="907" on="0"/>
        <pt x="3566" y="541" on="1"/>
        <pt x="3610" y="190" on="0"/>
      </contour>
      <contour>
        <pt x="2985" y="1193" on="1"/>
        <pt x="2985" y="1136" on="0"/>
        <pt x="2819" y="1060" on="1"/>
        <pt x="2674" y="993" on="0"/>
        <pt x="2636" y="993" on="1"/>
        <pt x="2610" y="993" on="0"/>
        <pt x="2586" y="1017" on="1"/>
        <pt x="2598" y="1061" on="0"/>
        <pt x="2655" y="1081" on="1"/>
        <pt x="2724" y="1105" on="0"/>
        <pt x="2750" y="1142" on="1"/>
        <pt x="2741" y="1177" on="0"/>
        <pt x="2693" y="1177" on="1"/>
        <pt x="2678" y="1177" on="0"/>
        <pt x="2629" y="1154" on="1"/>
        <pt x="2558" y="1121" on="0"/>
        <pt x="2546" y="1117" on="1"/>
        <pt x="2546" y="1150" on="1"/>
        <pt x="2545" y="1161" on="0"/>
        <pt x="2654" y="1270" on="0"/>
        <pt x="2671" y="1275" on="1"/>
        <pt x="2683" y="1280" on="0"/>
        <pt x="2718" y="1280" on="1"/>
        <pt x="2730" y="1280" on="0"/>
        <pt x="2824" y="1257" on="1"/>
        <pt x="2927" y="1234" on="0"/>
        <pt x="2972" y="1228" on="1"/>
        <pt x="2985" y="1215" on="0"/>
      </contour>
      <contour>
        <pt x="2391" y="1213" on="1"/>
        <pt x="2391" y="1196" on="0"/>
        <pt x="2356" y="1157" on="0"/>
        <pt x="2340" y="1157" on="1"/>
        <pt x="2327" y="1157" on="0"/>
        <pt x="2256" y="1208" on="0"/>
        <pt x="2242" y="1208" on="1"/>
        <pt x="2232" y="1208" on="0"/>
        <pt x="2120" y="1121" on="1"/>
        <pt x="1989" y="1021" on="0"/>
        <pt x="1948" y="996" on="1"/>
        <pt x="1922" y="990" on="0"/>
        <pt x="1862" y="972" on="1"/>
        <pt x="1839" y="999" on="1"/>
        <pt x="1935" y="1081" on="0"/>
        <pt x="2125" y="1244" on="1"/>
        <pt x="2108" y="1266" on="0"/>
        <pt x="2052" y="1329" on="1"/>
        <pt x="2043" y="1338" on="0"/>
        <pt x="2043" y="1372" on="1"/>
        <pt x="2043" y="1422" on="0"/>
        <pt x="2096" y="1486" on="1"/>
        <pt x="2155" y="1557" on="0"/>
        <pt x="2224" y="1556" on="1"/>
        <pt x="2288" y="1528" on="0"/>
        <pt x="2285" y="1439" on="1"/>
        <pt x="2285" y="1434" on="0"/>
        <pt x="2274" y="1402" on="1"/>
        <pt x="2265" y="1375" on="0"/>
        <pt x="2270" y="1358" on="1"/>
        <pt x="2281" y="1330" on="0"/>
        <pt x="2338" y="1275" on="1"/>
        <pt x="2391" y="1225" on="0"/>
      </contour>
      <contour>
        <pt x="2923" y="-225" on="1"/>
        <pt x="2923" y="-253" on="0"/>
        <pt x="2893" y="-294" on="1"/>
        <pt x="2862" y="-338" on="0"/>
        <pt x="2836" y="-338" on="1"/>
        <pt x="2815" y="-338" on="0"/>
        <pt x="2773" y="-305" on="1"/>
        <pt x="2729" y="-271" on="0"/>
        <pt x="2729" y="-245" on="1"/>
        <pt x="2729" y="-218" on="0"/>
        <pt x="2806" y="-133" on="0"/>
        <pt x="2827" y="-133" on="1"/>
        <pt x="2856" y="-133" on="0"/>
        <pt x="2892" y="-176" on="1"/>
        <pt x="2923" y="-213" on="0"/>
      </contour>
      <contour>
        <pt x="1613" y="1167" on="1"/>
        <pt x="1613" y="1153" on="0"/>
        <pt x="1601" y="1137" on="0"/>
        <pt x="1601" y="1127" on="1"/>
        <pt x="1598" y="1127" on="0"/>
        <pt x="1581" y="1116" on="0"/>
        <pt x="1567" y="1116" on="1"/>
        <pt x="1556" y="1116" on="0"/>
        <pt x="1472" y="1167" on="0"/>
        <pt x="1459" y="1167" on="1"/>
        <pt x="1451" y="1167" on="0"/>
        <pt x="1360" y="1093" on="1"/>
        <pt x="1253" y="1005" on="0"/>
        <pt x="1208" y="976" on="1"/>
        <pt x="1090" y="901" on="0"/>
        <pt x="1064" y="902" on="1"/>
        <pt x="1010" y="902" on="1"/>
        <pt x="1010" y="949" on="1"/>
        <pt x="1098" y="999" on="0"/>
        <pt x="1201" y="1072" on="1"/>
        <pt x="1347" y="1173" on="0"/>
        <pt x="1347" y="1208" on="1"/>
        <pt x="1347" y="1221" on="0"/>
        <pt x="1339" y="1230" on="1"/>
        <pt x="1275" y="1267" on="0"/>
        <pt x="1275" y="1325" on="1"/>
        <pt x="1275" y="1375" on="0"/>
        <pt x="1404" y="1516" on="0"/>
        <pt x="1449" y="1516" on="1"/>
        <pt x="1506" y="1516" on="0"/>
        <pt x="1517" y="1407" on="1"/>
        <pt x="1519" y="1347" on="0"/>
        <pt x="1522" y="1288" on="1"/>
        <pt x="1533" y="1275" on="0"/>
        <pt x="1586" y="1221" on="1"/>
        <pt x="1613" y="1195" on="0"/>
      </contour>
      <contour>
        <pt x="3364" y="276" on="1"/>
        <pt x="3364" y="164" on="0"/>
        <pt x="3164" y="164" on="1"/>
        <pt x="3153" y="164" on="0"/>
        <pt x="3024" y="174" on="0"/>
        <pt x="3011" y="174" on="1"/>
        <pt x="2953" y="174" on="0"/>
        <pt x="2705" y="84" on="1"/>
        <pt x="2605" y="66" on="0"/>
        <pt x="2419" y="16" on="1"/>
        <pt x="2373" y="1" on="0"/>
        <pt x="2339" y="-72" on="1"/>
        <pt x="2289" y="-180" on="0"/>
        <pt x="2280" y="-192" on="1"/>
        <pt x="2261" y="-238" on="0"/>
        <pt x="2201" y="-316" on="1"/>
        <pt x="2066" y="-422" on="0"/>
        <pt x="2053" y="-430" on="1"/>
        <pt x="1996" y="-461" on="0"/>
        <pt x="1880" y="-461" on="1"/>
        <pt x="1792" y="-461" on="0"/>
        <pt x="1698" y="-438" on="1"/>
        <pt x="1581" y="-410" on="0"/>
        <pt x="1541" y="-362" on="1"/>
        <pt x="1576" y="-344" on="0"/>
        <pt x="1646" y="-349" on="1"/>
        <pt x="1778" y="-358" on="0"/>
        <pt x="1762" y="-358" on="1"/>
        <pt x="1872" y="-358" on="0"/>
        <pt x="1923" y="-335" on="1"/>
        <pt x="2013" y="-295" on="0"/>
        <pt x="2135" y="-184" on="1"/>
        <pt x="2268" y="-62" on="0"/>
        <pt x="2268" y="0" on="1"/>
        <pt x="2268" y="12" on="0"/>
        <pt x="2220" y="64" on="1"/>
        <pt x="2217" y="77" on="0"/>
        <pt x="2217" y="102" on="1"/>
        <pt x="2217" y="205" on="0"/>
        <pt x="2274" y="205" on="1"/>
        <pt x="2286" y="205" on="0"/>
        <pt x="2419" y="174" on="0"/>
        <pt x="2432" y="174" on="1"/>
        <pt x="2593" y="174" on="0"/>
        <pt x="2678" y="253" on="1"/>
        <pt x="2678" y="279" on="1"/>
        <pt x="2634" y="307" on="0"/>
        <pt x="2586" y="307" on="1"/>
        <pt x="2573" y="307" on="0"/>
        <pt x="2500" y="287" on="0"/>
        <pt x="2487" y="287" on="1"/>
        <pt x="2363" y="287" on="1"/>
        <pt x="2359" y="297" on="0"/>
        <pt x="2350" y="312" on="1"/>
        <pt x="2381" y="363" on="0"/>
        <pt x="2455" y="446" on="1"/>
        <pt x="2545" y="512" on="0"/>
        <pt x="2601" y="512" on="1"/>
        <pt x="2632" y="512" on="0"/>
        <pt x="2752" y="451" on="1"/>
        <pt x="2884" y="383" on="0"/>
        <pt x="2889" y="381" on="1"/>
        <pt x="2935" y="366" on="0"/>
        <pt x="3022" y="340" on="1"/>
        <pt x="3084" y="323" on="0"/>
        <pt x="3182" y="316" on="1"/>
        <pt x="3266" y="311" on="0"/>
        <pt x="3351" y="306" on="1"/>
        <pt x="3364" y="293" on="0"/>
      </contour>
      <contour>
        <pt x="824" y="1126" on="1"/>
        <pt x="824" y="1074" on="0"/>
        <pt x="640" y="991" on="1"/>
        <pt x="473" y="915" on="0"/>
        <pt x="408" y="911" on="1"/>
        <pt x="395" y="924" on="1"/>
        <pt x="395" y="961" on="1"/>
        <pt x="409" y="972" on="0"/>
        <pt x="559" y="1062" on="1"/>
        <pt x="559" y="1089" on="1"/>
        <pt x="543" y="1106" on="0"/>
        <pt x="512" y="1106" on="1"/>
        <pt x="499" y="1106" on="0"/>
        <pt x="455" y="1072" on="1"/>
        <pt x="403" y="1034" on="0"/>
        <pt x="378" y="1024" on="1"/>
        <pt x="364" y="1038" on="0"/>
        <pt x="364" y="1054" on="1"/>
        <pt x="364" y="1099" on="0"/>
        <pt x="488" y="1208" on="0"/>
        <pt x="533" y="1208" on="1"/>
        <pt x="543" y="1208" on="0"/>
        <pt x="647" y="1186" on="1"/>
        <pt x="761" y="1162" on="0"/>
        <pt x="811" y="1156" on="1"/>
        <pt x="824" y="1143" on="0"/>
      </contour>
      <contour>
        <pt x="1889" y="246" on="1"/>
        <pt x="1889" y="171" on="0"/>
        <pt x="1859" y="97" on="1"/>
        <pt x="1819" y="0" on="0"/>
        <pt x="1751" y="0" on="1"/>
        <pt x="1739" y="0" on="0"/>
        <pt x="1488" y="61" on="0"/>
        <pt x="1475" y="61" on="1"/>
        <pt x="1466" y="61" on="0"/>
        <pt x="1174" y="-10" on="0"/>
        <pt x="1163" y="-10" on="1"/>
        <pt x="1160" y="-10" on="0"/>
        <pt x="888" y="0" on="0"/>
        <pt x="821" y="0" on="1"/>
        <pt x="786" y="-26" on="0"/>
        <pt x="776" y="-96" on="1"/>
        <pt x="765" y="-172" on="0"/>
        <pt x="747" y="-190" on="1"/>
        <pt x="742" y="-197" on="0"/>
        <pt x="737" y="-203" on="1"/>
        <pt x="728" y="-215" on="0"/>
        <pt x="712" y="-215" on="1"/>
        <pt x="652" y="-215" on="0"/>
        <pt x="600" y="-142" on="1"/>
        <pt x="556" y="-82" on="0"/>
        <pt x="551" y="-36" on="1"/>
        <pt x="555" y="9" on="0"/>
        <pt x="555" y="96" on="1"/>
        <pt x="548" y="106" on="0"/>
        <pt x="531" y="123" on="1"/>
        <pt x="417" y="111" on="0"/>
        <pt x="376" y="93" on="1"/>
        <pt x="303" y="61" on="0"/>
        <pt x="303" y="-20" on="1"/>
        <pt x="303" y="-33" on="0"/>
        <pt x="364" y="-652" on="0"/>
        <pt x="364" y="-666" on="1"/>
        <pt x="364" y="-692" on="0"/>
        <pt x="345" y="-747" on="1"/>
        <pt x="325" y="-806" on="0"/>
        <pt x="307" y="-819" on="1"/>
        <pt x="294" y="-801" on="0"/>
        <pt x="275" y="-774" on="1"/>
        <pt x="210" y="-208" on="0"/>
        <pt x="210" y="-81" on="1"/>
        <pt x="210" y="55" on="0"/>
        <pt x="285" y="155" on="1"/>
        <pt x="375" y="274" on="0"/>
        <pt x="543" y="289" on="1"/>
        <pt x="557" y="290" on="0"/>
        <pt x="607" y="338" on="0"/>
        <pt x="620" y="338" on="1"/>
        <pt x="625" y="338" on="0"/>
        <pt x="702" y="265" on="1"/>
        <pt x="782" y="188" on="0"/>
        <pt x="831" y="176" on="1"/>
        <pt x="924" y="153" on="0"/>
        <pt x="1065" y="153" on="1"/>
        <pt x="1063" y="153" on="0"/>
        <pt x="1128" y="151" on="1"/>
        <pt x="1173" y="148" on="0"/>
        <pt x="1200" y="152" on="1"/>
        <pt x="1239" y="157" on="0"/>
        <pt x="1273" y="193" on="0"/>
        <pt x="1308" y="286" on="1"/>
        <pt x="1351" y="403" on="0"/>
        <pt x="1374" y="447" on="1"/>
        <pt x="1379" y="457" on="0"/>
        <pt x="1379" y="466" on="1"/>
        <pt x="1379" y="479" on="0"/>
        <pt x="1350" y="515" on="0"/>
        <pt x="1350" y="524" on="1"/>
        <pt x="1349" y="569" on="0"/>
        <pt x="1371" y="626" on="1"/>
        <pt x="1399" y="696" on="0"/>
        <pt x="1439" y="696" on="1"/>
        <pt x="1461" y="696" on="0"/>
        <pt x="1643" y="560" on="1"/>
        <pt x="1821" y="427" on="0"/>
        <pt x="1843" y="397" on="1"/>
        <pt x="1889" y="337" on="0"/>
      </contour>
      <contour>
        <pt x="2206" y="1373" on="1"/>
        <pt x="2206" y="1413" on="1"/>
        <pt x="2206" y="1429" on="0"/>
        <pt x="2201" y="1432" on="1"/>
        <pt x="2198" y="1434" on="0"/>
        <pt x="2194" y="1432" on="1"/>
        <pt x="2158" y="1432" on="1"/>
        <pt x="2146" y="1396" on="1"/>
        <pt x="2169" y="1373" on="1"/>
      </contour>
      <contour>
        <pt x="1449" y="1345" on="1"/>
        <pt x="1426" y="1392" on="0"/>
        <pt x="1401" y="1392" on="1"/>
        <pt x="1377" y="1366" on="1"/>
        <pt x="1412" y="1331" on="1"/>
        <pt x="1435" y="1331" on="0"/>
      </contour>
      <contour>
        <pt x="1786" y="197" on="1"/>
        <pt x="1780" y="221" on="0"/>
        <pt x="1696" y="327" on="0"/>
        <pt x="1678" y="327" on="1"/>
        <pt x="1635" y="327" on="1"/>
        <pt x="1637" y="274" on="0"/>
        <pt x="1624" y="228" on="1"/>
        <pt x="1714" y="184" on="0"/>
        <pt x="1751" y="184" on="1"/>
        <pt x="1766" y="184" on="0"/>
        <pt x="1783" y="197" on="0"/>
      </contour>
      <contour>
        <pt x="1541" y="282" on="1"/>
        <pt x="1519" y="369" on="0"/>
        <pt x="1480" y="369" on="1"/>
        <pt x="1457" y="369" on="0"/>
        <pt x="1431" y="335" on="1"/>
        <pt x="1408" y="305" on="0"/>
        <pt x="1408" y="287" on="1"/>
        <pt x="1408" y="225" on="0"/>
        <pt x="1490" y="225" on="1"/>
        <pt x="1508" y="225" on="0"/>
        <pt x="1541" y="262" on="0"/>
      </contour>
    </TTGlyph>
    <TTGlyph name="gaffinalarabic" xMin="142" yMin="226" xMax="842" yMax="1588">
      <contour>
        <pt x="142" y="226" on="1"/>
        <pt x="142" y="1588" on="1"/>
        <pt x="842" y="1588" on="1"/>
        <pt x="842" y="226" on="1"/>
      </contour>
      <contour>
        <pt x="284" y="368" on="1"/>
        <pt x="700" y="368" on="1"/>
        <pt x="700" y="1447" on="1"/>
        <pt x="284" y="1447" on="1"/>
      </contour>
    </TTGlyph>
    <TTGlyph name="gafinitialarabic" xMin="142" yMin="226" xMax="842" yMax="1588">
      <contour>
        <pt x="142" y="226" on="1"/>
        <pt x="142" y="1588" on="1"/>
        <pt x="842" y="1588" on="1"/>
        <pt x="842" y="226" on="1"/>
      </contour>
      <contour>
        <pt x="284" y="368" on="1"/>
        <pt x="700" y="368" on="1"/>
        <pt x="700" y="1447" on="1"/>
        <pt x="284" y="1447" on="1"/>
      </contour>
    </TTGlyph>
    <TTGlyph name="gafmedialarabic" xMin="142" yMin="226" xMax="842" yMax="1588">
      <contour>
        <pt x="142" y="226" on="1"/>
        <pt x="142" y="1588" on="1"/>
        <pt x="842" y="1588" on="1"/>
        <pt x="842" y="226" on="1"/>
      </contour>
      <contour>
        <pt x="284" y="368" on="1"/>
        <pt x="700" y="368" on="1"/>
        <pt x="700" y="1447" on="1"/>
        <pt x="284" y="1447" on="1"/>
      </contour>
    </TTGlyph>
    <TTGlyph name="glyph41" xMin="142" yMin="226" xMax="842" yMax="1588">
      <contour>
        <pt x="142" y="226" on="1"/>
        <pt x="142" y="1588" on="1"/>
        <pt x="842" y="1588" on="1"/>
        <pt x="842" y="226" on="1"/>
      </contour>
      <contour>
        <pt x="284" y="368" on="1"/>
        <pt x="700" y="368" on="1"/>
        <pt x="700" y="1447" on="1"/>
        <pt x="284" y="1447" on="1"/>
      </contour>
    </TTGlyph>
    <TTGlyph name="glyph42" xMin="142" yMin="226" xMax="842" yMax="1588">
      <contour>
        <pt x="142" y="226" on="1"/>
        <pt x="142" y="1588" on="1"/>
        <pt x="842" y="1588" on="1"/>
        <pt x="842" y="226" on="1"/>
      </contour>
      <contour>
        <pt x="284" y="368" on="1"/>
        <pt x="700" y="368" on="1"/>
        <pt x="700" y="1447" on="1"/>
        <pt x="284" y="1447" on="1"/>
      </contour>
    </TTGlyph>
    <TTGlyph name="glyph43" xMin="142" yMin="226" xMax="842" yMax="1588">
      <contour>
        <pt x="142" y="226" on="1"/>
        <pt x="142" y="1588" on="1"/>
        <pt x="842" y="1588" on="1"/>
        <pt x="842" y="226" on="1"/>
      </contour>
      <contour>
        <pt x="284" y="368" on="1"/>
        <pt x="700" y="368" on="1"/>
        <pt x="700" y="1447" on="1"/>
        <pt x="284" y="1447" on="1"/>
      </contour>
    </TTGlyph>
    <TTGlyph name="glyph44" xMin="142" yMin="226" xMax="842" yMax="1588">
      <contour>
        <pt x="142" y="226" on="1"/>
        <pt x="142" y="1588" on="1"/>
        <pt x="842" y="1588" on="1"/>
        <pt x="842" y="226" on="1"/>
      </contour>
      <contour>
        <pt x="284" y="368" on="1"/>
        <pt x="700" y="368" on="1"/>
        <pt x="700" y="1447" on="1"/>
        <pt x="284" y="1447" on="1"/>
      </contour>
    </TTGlyph>
    <TTGlyph name="glyph45" xMin="142" yMin="226" xMax="842" yMax="1588">
      <contour>
        <pt x="142" y="226" on="1"/>
        <pt x="142" y="1588" on="1"/>
        <pt x="842" y="1588" on="1"/>
        <pt x="842" y="226" on="1"/>
      </contour>
      <contour>
        <pt x="284" y="368" on="1"/>
        <pt x="700" y="368" on="1"/>
        <pt x="700" y="1447" on="1"/>
        <pt x="284" y="1447" on="1"/>
      </contour>
    </TTGlyph>
    <TTGlyph name="glyph46" xMin="142" yMin="226" xMax="842" yMax="1588">
      <contour>
        <pt x="142" y="226" on="1"/>
        <pt x="142" y="1588" on="1"/>
        <pt x="842" y="1588" on="1"/>
        <pt x="842" y="226" on="1"/>
      </contour>
      <contour>
        <pt x="284" y="368" on="1"/>
        <pt x="700" y="368" on="1"/>
        <pt x="700" y="1447" on="1"/>
        <pt x="284" y="1447" on="1"/>
      </contour>
    </TTGlyph>
    <TTGlyph name="glyph47" xMin="142" yMin="226" xMax="842" yMax="1588">
      <contour>
        <pt x="142" y="226" on="1"/>
        <pt x="142" y="1588" on="1"/>
        <pt x="842" y="1588" on="1"/>
        <pt x="842" y="226" on="1"/>
      </contour>
      <contour>
        <pt x="284" y="368" on="1"/>
        <pt x="700" y="368" on="1"/>
        <pt x="700" y="1447" on="1"/>
        <pt x="284" y="1447" on="1"/>
      </contour>
    </TTGlyph>
    <TTGlyph name="glyph48" xMin="142" yMin="226" xMax="842" yMax="1588">
      <contour>
        <pt x="142" y="226" on="1"/>
        <pt x="142" y="1588" on="1"/>
        <pt x="842" y="1588" on="1"/>
        <pt x="842" y="226" on="1"/>
      </contour>
      <contour>
        <pt x="284" y="368" on="1"/>
        <pt x="700" y="368" on="1"/>
        <pt x="700" y="1447" on="1"/>
        <pt x="284" y="1447" on="1"/>
      </contour>
    </TTGlyph>
    <TTGlyph name="glyph50" xMin="142" yMin="226" xMax="842" yMax="1588">
      <contour>
        <pt x="142" y="226" on="1"/>
        <pt x="142" y="1588" on="1"/>
        <pt x="842" y="1588" on="1"/>
        <pt x="842" y="226" on="1"/>
      </contour>
      <contour>
        <pt x="284" y="368" on="1"/>
        <pt x="700" y="368" on="1"/>
        <pt x="700" y="1447" on="1"/>
        <pt x="284" y="1447" on="1"/>
      </contour>
    </TTGlyph>
    <TTGlyph name="glyph51" xMin="142" yMin="226" xMax="842" yMax="1588">
      <contour>
        <pt x="142" y="226" on="1"/>
        <pt x="142" y="1588" on="1"/>
        <pt x="842" y="1588" on="1"/>
        <pt x="842" y="226" on="1"/>
      </contour>
      <contour>
        <pt x="284" y="368" on="1"/>
        <pt x="700" y="368" on="1"/>
        <pt x="700" y="1447" on="1"/>
        <pt x="284" y="1447" on="1"/>
      </contour>
    </TTGlyph>
    <TTGlyph name="greater" xMin="142" yMin="226" xMax="842" yMax="1588">
      <contour>
        <pt x="142" y="226" on="1"/>
        <pt x="142" y="1588" on="1"/>
        <pt x="842" y="1588" on="1"/>
        <pt x="842" y="226" on="1"/>
      </contour>
      <contour>
        <pt x="284" y="368" on="1"/>
        <pt x="700" y="368" on="1"/>
        <pt x="700" y="1447" on="1"/>
        <pt x="284" y="1447" on="1"/>
      </contour>
    </TTGlyph>
    <TTGlyph name="hahhamzabovefinal" xMin="142" yMin="226" xMax="842" yMax="1588">
      <contour>
        <pt x="142" y="226" on="1"/>
        <pt x="142" y="1588" on="1"/>
        <pt x="842" y="1588" on="1"/>
        <pt x="842" y="226" on="1"/>
      </contour>
      <contour>
        <pt x="284" y="368" on="1"/>
        <pt x="700" y="368" on="1"/>
        <pt x="700" y="1447" on="1"/>
        <pt x="284" y="1447" on="1"/>
      </contour>
    </TTGlyph>
    <TTGlyph name="hahhamzaboveinitial" xMin="142" yMin="226" xMax="842" yMax="1588">
      <contour>
        <pt x="142" y="226" on="1"/>
        <pt x="142" y="1588" on="1"/>
        <pt x="842" y="1588" on="1"/>
        <pt x="842" y="226" on="1"/>
      </contour>
      <contour>
        <pt x="284" y="368" on="1"/>
        <pt x="700" y="368" on="1"/>
        <pt x="700" y="1447" on="1"/>
        <pt x="284" y="1447" on="1"/>
      </contour>
    </TTGlyph>
    <TTGlyph name="hahhamzabovemedial" xMin="142" yMin="226" xMax="842" yMax="1588">
      <contour>
        <pt x="142" y="226" on="1"/>
        <pt x="142" y="1588" on="1"/>
        <pt x="842" y="1588" on="1"/>
        <pt x="842" y="226" on="1"/>
      </contour>
      <contour>
        <pt x="284" y="368" on="1"/>
        <pt x="700" y="368" on="1"/>
        <pt x="700" y="1447" on="1"/>
        <pt x="284" y="1447" on="1"/>
      </contour>
    </TTGlyph>
    <TTGlyph name="hahthreedotsabovefinal" xMin="142" yMin="226" xMax="842" yMax="1588">
      <contour>
        <pt x="142" y="226" on="1"/>
        <pt x="142" y="1588" on="1"/>
        <pt x="842" y="1588" on="1"/>
        <pt x="842" y="226" on="1"/>
      </contour>
      <contour>
        <pt x="284" y="368" on="1"/>
        <pt x="700" y="368" on="1"/>
        <pt x="700" y="1447" on="1"/>
        <pt x="284" y="1447" on="1"/>
      </contour>
    </TTGlyph>
    <TTGlyph name="hahthreedotsaboveinitial" xMin="142" yMin="226" xMax="842" yMax="1588">
      <contour>
        <pt x="142" y="226" on="1"/>
        <pt x="142" y="1588" on="1"/>
        <pt x="842" y="1588" on="1"/>
        <pt x="842" y="226" on="1"/>
      </contour>
      <contour>
        <pt x="284" y="368" on="1"/>
        <pt x="700" y="368" on="1"/>
        <pt x="700" y="1447" on="1"/>
        <pt x="284" y="1447" on="1"/>
      </contour>
    </TTGlyph>
    <TTGlyph name="hahthreedotsabovemedial" xMin="142" yMin="226" xMax="842" yMax="1588">
      <contour>
        <pt x="142" y="226" on="1"/>
        <pt x="142" y="1588" on="1"/>
        <pt x="842" y="1588" on="1"/>
        <pt x="842" y="226" on="1"/>
      </contour>
      <contour>
        <pt x="284" y="368" on="1"/>
        <pt x="700" y="368" on="1"/>
        <pt x="700" y="1447" on="1"/>
        <pt x="284" y="1447" on="1"/>
      </contour>
    </TTGlyph>
    <TTGlyph name="hehdoachashmeefinalarabic" xMin="142" yMin="226" xMax="842" yMax="1588">
      <contour>
        <pt x="142" y="226" on="1"/>
        <pt x="142" y="1588" on="1"/>
        <pt x="842" y="1588" on="1"/>
        <pt x="842" y="226" on="1"/>
      </contour>
      <contour>
        <pt x="284" y="368" on="1"/>
        <pt x="700" y="368" on="1"/>
        <pt x="700" y="1447" on="1"/>
        <pt x="284" y="1447" on="1"/>
      </contour>
    </TTGlyph>
    <TTGlyph name="hehdoachashmeeinitialarabic" xMin="142" yMin="226" xMax="842" yMax="1588">
      <contour>
        <pt x="142" y="226" on="1"/>
        <pt x="142" y="1588" on="1"/>
        <pt x="842" y="1588" on="1"/>
        <pt x="842" y="226" on="1"/>
      </contour>
      <contour>
        <pt x="284" y="368" on="1"/>
        <pt x="700" y="368" on="1"/>
        <pt x="700" y="1447" on="1"/>
        <pt x="284" y="1447" on="1"/>
      </contour>
    </TTGlyph>
    <TTGlyph name="hehdoachashmeemedialarabic" xMin="142" yMin="226" xMax="842" yMax="1588">
      <contour>
        <pt x="142" y="226" on="1"/>
        <pt x="142" y="1588" on="1"/>
        <pt x="842" y="1588" on="1"/>
        <pt x="842" y="226" on="1"/>
      </contour>
      <contour>
        <pt x="284" y="368" on="1"/>
        <pt x="700" y="368" on="1"/>
        <pt x="700" y="1447" on="1"/>
        <pt x="284" y="1447" on="1"/>
      </contour>
    </TTGlyph>
    <TTGlyph name="hehfinalaltonearabic" xMin="142" yMin="226" xMax="842" yMax="1588">
      <contour>
        <pt x="142" y="226" on="1"/>
        <pt x="142" y="1588" on="1"/>
        <pt x="842" y="1588" on="1"/>
        <pt x="842" y="226" on="1"/>
      </contour>
      <contour>
        <pt x="284" y="368" on="1"/>
        <pt x="700" y="368" on="1"/>
        <pt x="700" y="1447" on="1"/>
        <pt x="284" y="1447" on="1"/>
      </contour>
    </TTGlyph>
    <TTGlyph name="hehhamzaabovefinalarabic" xMin="142" yMin="226" xMax="842" yMax="1588">
      <contour>
        <pt x="142" y="226" on="1"/>
        <pt x="142" y="1588" on="1"/>
        <pt x="842" y="1588" on="1"/>
        <pt x="842" y="226" on="1"/>
      </contour>
      <contour>
        <pt x="284" y="368" on="1"/>
        <pt x="700" y="368" on="1"/>
        <pt x="700" y="1447" on="1"/>
        <pt x="284" y="1447" on="1"/>
      </contour>
    </TTGlyph>
    <TTGlyph name="hehinitialaltonearabic" xMin="142" yMin="226" xMax="842" yMax="1588">
      <contour>
        <pt x="142" y="226" on="1"/>
        <pt x="142" y="1588" on="1"/>
        <pt x="842" y="1588" on="1"/>
        <pt x="842" y="226" on="1"/>
      </contour>
      <contour>
        <pt x="284" y="368" on="1"/>
        <pt x="700" y="368" on="1"/>
        <pt x="700" y="1447" on="1"/>
        <pt x="284" y="1447" on="1"/>
      </contour>
    </TTGlyph>
    <TTGlyph name="hehmedialaltonearabic" xMin="142" yMin="226" xMax="842" yMax="1588">
      <contour>
        <pt x="142" y="226" on="1"/>
        <pt x="142" y="1588" on="1"/>
        <pt x="842" y="1588" on="1"/>
        <pt x="842" y="226" on="1"/>
      </contour>
      <contour>
        <pt x="284" y="368" on="1"/>
        <pt x="700" y="368" on="1"/>
        <pt x="700" y="1447" on="1"/>
        <pt x="284" y="1447" on="1"/>
      </contour>
    </TTGlyph>
    <TTGlyph name="hyphen" xMin="210" yMin="-819" xMax="3629" yMax="1812">
      <contour>
        <pt x="3598" y="1765" on="1"/>
        <pt x="3599" y="1734" on="0"/>
        <pt x="3502" y="1678" on="1"/>
        <pt x="3452" y="1652" on="0"/>
        <pt x="3402" y="1624" on="1"/>
        <pt x="3302" y="1570" on="0"/>
        <pt x="3112" y="1464" on="1"/>
        <pt x="3098" y="1466" on="0"/>
        <pt x="3098" y="1489" on="1"/>
        <pt x="3098" y="1558" on="0"/>
        <pt x="3325" y="1670" on="1"/>
        <pt x="3409" y="1721" on="0"/>
        <pt x="3574" y="1812" on="1"/>
        <pt x="3588" y="1801" on="0"/>
        <pt x="3598" y="1801" on="1"/>
      </contour>
      <contour>
        <pt x="3629" y="1271" on="1"/>
        <pt x="3577" y="1242" on="0"/>
        <pt x="3489" y="1210" on="1"/>
        <pt x="3382" y="1171" on="0"/>
        <pt x="3349" y="1157" on="1"/>
        <pt x="3318" y="1157" on="1"/>
        <pt x="3305" y="1157" on="0"/>
        <pt x="3307" y="1176" on="1"/>
        <pt x="3311" y="1205" on="0"/>
        <pt x="3309" y="1212" on="1"/>
        <pt x="3304" y="1226" on="0"/>
        <pt x="3275" y="1258" on="1"/>
        <pt x="3251" y="1286" on="0"/>
        <pt x="3251" y="1300" on="1"/>
        <pt x="3251" y="1340" on="0"/>
        <pt x="3335" y="1410" on="1"/>
        <pt x="3413" y="1475" on="0"/>
        <pt x="3435" y="1475" on="1"/>
        <pt x="3475" y="1475" on="0"/>
        <pt x="3513" y="1420" on="1"/>
        <pt x="3517" y="1389" on="0"/>
        <pt x="3497" y="1328" on="1"/>
        <pt x="3529" y="1316" on="0"/>
        <pt x="3616" y="1330" on="1"/>
        <pt x="3629" y="1318" on="1"/>
      </contour>
      <contour>
        <pt x="3610" y="159" on="1"/>
        <pt x="3610" y="36" on="0"/>
        <pt x="3530" y="1" on="1"/>
        <pt x="3394" y="942" on="1"/>
        <pt x="3396" y="945" on="0"/>
        <pt x="3416" y="1028" on="1"/>
        <pt x="3430" y="1090" on="0"/>
        <pt x="3459" y="1126" on="1"/>
        <pt x="3478" y="1126" on="0"/>
        <pt x="3493" y="1103" on="1"/>
        <pt x="3522" y="907" on="0"/>
        <pt x="3566" y="541" on="1"/>
        <pt x="3610" y="190" on="0"/>
      </contour>
      <contour>
        <pt x="2985" y="1193" on="1"/>
        <pt x="2985" y="1136" on="0"/>
        <pt x="2819" y="1060" on="1"/>
        <pt x="2674" y="993" on="0"/>
        <pt x="2636" y="993" on="1"/>
        <pt x="2610" y="993" on="0"/>
        <pt x="2586" y="1017" on="1"/>
        <pt x="2598" y="1061" on="0"/>
        <pt x="2655" y="1081" on="1"/>
        <pt x="2724" y="1105" on="0"/>
        <pt x="2750" y="1142" on="1"/>
        <pt x="2741" y="1177" on="0"/>
        <pt x="2693" y="1177" on="1"/>
        <pt x="2678" y="1177" on="0"/>
        <pt x="2629" y="1154" on="1"/>
        <pt x="2558" y="1121" on="0"/>
        <pt x="2546" y="1117" on="1"/>
        <pt x="2546" y="1150" on="1"/>
        <pt x="2545" y="1161" on="0"/>
        <pt x="2654" y="1270" on="0"/>
        <pt x="2671" y="1275" on="1"/>
        <pt x="2683" y="1280" on="0"/>
        <pt x="2718" y="1280" on="1"/>
        <pt x="2730" y="1280" on="0"/>
        <pt x="2824" y="1257" on="1"/>
        <pt x="2927" y="1234" on="0"/>
        <pt x="2972" y="1228" on="1"/>
        <pt x="2985" y="1215" on="0"/>
      </contour>
      <contour>
        <pt x="2391" y="1213" on="1"/>
        <pt x="2391" y="1196" on="0"/>
        <pt x="2356" y="1157" on="0"/>
        <pt x="2340" y="1157" on="1"/>
        <pt x="2327" y="1157" on="0"/>
        <pt x="2256" y="1208" on="0"/>
        <pt x="2242" y="1208" on="1"/>
        <pt x="2232" y="1208" on="0"/>
        <pt x="2120" y="1121" on="1"/>
        <pt x="1989" y="1021" on="0"/>
        <pt x="1948" y="996" on="1"/>
        <pt x="1922" y="990" on="0"/>
        <pt x="1862" y="972" on="1"/>
        <pt x="1839" y="999" on="1"/>
        <pt x="1935" y="1081" on="0"/>
        <pt x="2125" y="1244" on="1"/>
        <pt x="2108" y="1266" on="0"/>
        <pt x="2052" y="1329" on="1"/>
        <pt x="2043" y="1338" on="0"/>
        <pt x="2043" y="1372" on="1"/>
        <pt x="2043" y="1422" on="0"/>
        <pt x="2096" y="1486" on="1"/>
        <pt x="2155" y="1557" on="0"/>
        <pt x="2224" y="1556" on="1"/>
        <pt x="2288" y="1528" on="0"/>
        <pt x="2285" y="1439" on="1"/>
        <pt x="2285" y="1434" on="0"/>
        <pt x="2274" y="1402" on="1"/>
        <pt x="2265" y="1375" on="0"/>
        <pt x="2270" y="1358" on="1"/>
        <pt x="2281" y="1330" on="0"/>
        <pt x="2338" y="1275" on="1"/>
        <pt x="2391" y="1225" on="0"/>
      </contour>
      <contour>
        <pt x="2923" y="-225" on="1"/>
        <pt x="2923" y="-253" on="0"/>
        <pt x="2893" y="-294" on="1"/>
        <pt x="2862" y="-338" on="0"/>
        <pt x="2836" y="-338" on="1"/>
        <pt x="2815" y="-338" on="0"/>
        <pt x="2773" y="-305" on="1"/>
        <pt x="2729" y="-271" on="0"/>
        <pt x="2729" y="-245" on="1"/>
        <pt x="2729" y="-218" on="0"/>
        <pt x="2806" y="-133" on="0"/>
        <pt x="2827" y="-133" on="1"/>
        <pt x="2856" y="-133" on="0"/>
        <pt x="2892" y="-176" on="1"/>
        <pt x="2923" y="-213" on="0"/>
      </contour>
      <contour>
        <pt x="1613" y="1167" on="1"/>
        <pt x="1613" y="1153" on="0"/>
        <pt x="1601" y="1137" on="0"/>
        <pt x="1601" y="1127" on="1"/>
        <pt x="1598" y="1127" on="0"/>
        <pt x="1581" y="1116" on="0"/>
        <pt x="1567" y="1116" on="1"/>
        <pt x="1556" y="1116" on="0"/>
        <pt x="1472" y="1167" on="0"/>
        <pt x="1459" y="1167" on="1"/>
        <pt x="1451" y="1167" on="0"/>
        <pt x="1360" y="1093" on="1"/>
        <pt x="1253" y="1005" on="0"/>
        <pt x="1208" y="976" on="1"/>
        <pt x="1090" y="901" on="0"/>
        <pt x="1064" y="902" on="1"/>
        <pt x="1010" y="902" on="1"/>
        <pt x="1010" y="949" on="1"/>
        <pt x="1098" y="999" on="0"/>
        <pt x="1201" y="1072" on="1"/>
        <pt x="1347" y="1173" on="0"/>
        <pt x="1347" y="1208" on="1"/>
        <pt x="1347" y="1221" on="0"/>
        <pt x="1339" y="1230" on="1"/>
        <pt x="1275" y="1267" on="0"/>
        <pt x="1275" y="1325" on="1"/>
        <pt x="1275" y="1375" on="0"/>
        <pt x="1404" y="1516" on="0"/>
        <pt x="1449" y="1516" on="1"/>
        <pt x="1506" y="1516" on="0"/>
        <pt x="1517" y="1407" on="1"/>
        <pt x="1519" y="1347" on="0"/>
        <pt x="1522" y="1288" on="1"/>
        <pt x="1533" y="1275" on="0"/>
        <pt x="1586" y="1221" on="1"/>
        <pt x="1613" y="1195" on="0"/>
      </contour>
      <contour>
        <pt x="3364" y="276" on="1"/>
        <pt x="3364" y="164" on="0"/>
        <pt x="3164" y="164" on="1"/>
        <pt x="3153" y="164" on="0"/>
        <pt x="3024" y="174" on="0"/>
        <pt x="3011" y="174" on="1"/>
        <pt x="2953" y="174" on="0"/>
        <pt x="2705" y="84" on="1"/>
        <pt x="2605" y="66" on="0"/>
        <pt x="2419" y="16" on="1"/>
        <pt x="2373" y="1" on="0"/>
        <pt x="2339" y="-72" on="1"/>
        <pt x="2289" y="-180" on="0"/>
        <pt x="2280" y="-192" on="1"/>
        <pt x="2261" y="-238" on="0"/>
        <pt x="2201" y="-316" on="1"/>
        <pt x="2066" y="-422" on="0"/>
        <pt x="2053" y="-430" on="1"/>
        <pt x="1996" y="-461" on="0"/>
        <pt x="1880" y="-461" on="1"/>
        <pt x="1792" y="-461" on="0"/>
        <pt x="1698" y="-438" on="1"/>
        <pt x="1581" y="-410" on="0"/>
        <pt x="1541" y="-362" on="1"/>
        <pt x="1576" y="-344" on="0"/>
        <pt x="1646" y="-349" on="1"/>
        <pt x="1778" y="-358" on="0"/>
        <pt x="1762" y="-358" on="1"/>
        <pt x="1872" y="-358" on="0"/>
        <pt x="1923" y="-335" on="1"/>
        <pt x="2013" y="-295" on="0"/>
        <pt x="2135" y="-184" on="1"/>
        <pt x="2268" y="-62" on="0"/>
        <pt x="2268" y="0" on="1"/>
        <pt x="2268" y="12" on="0"/>
        <pt x="2220" y="64" on="1"/>
        <pt x="2217" y="77" on="0"/>
        <pt x="2217" y="102" on="1"/>
        <pt x="2217" y="205" on="0"/>
        <pt x="2274" y="205" on="1"/>
        <pt x="2286" y="205" on="0"/>
        <pt x="2419" y="174" on="0"/>
        <pt x="2432" y="174" on="1"/>
        <pt x="2593" y="174" on="0"/>
        <pt x="2678" y="253" on="1"/>
        <pt x="2678" y="279" on="1"/>
        <pt x="2634" y="307" on="0"/>
        <pt x="2586" y="307" on="1"/>
        <pt x="2573" y="307" on="0"/>
        <pt x="2500" y="287" on="0"/>
        <pt x="2487" y="287" on="1"/>
        <pt x="2363" y="287" on="1"/>
        <pt x="2359" y="297" on="0"/>
        <pt x="2350" y="312" on="1"/>
        <pt x="2381" y="363" on="0"/>
        <pt x="2455" y="446" on="1"/>
        <pt x="2545" y="512" on="0"/>
        <pt x="2601" y="512" on="1"/>
        <pt x="2632" y="512" on="0"/>
        <pt x="2752" y="451" on="1"/>
        <pt x="2884" y="383" on="0"/>
        <pt x="2889" y="381" on="1"/>
        <pt x="2935" y="366" on="0"/>
        <pt x="3022" y="340" on="1"/>
        <pt x="3084" y="323" on="0"/>
        <pt x="3182" y="316" on="1"/>
        <pt x="3266" y="311" on="0"/>
        <pt x="3351" y="306" on="1"/>
        <pt x="3364" y="293" on="0"/>
      </contour>
      <contour>
        <pt x="824" y="1126" on="1"/>
        <pt x="824" y="1074" on="0"/>
        <pt x="640" y="991" on="1"/>
        <pt x="473" y="915" on="0"/>
        <pt x="408" y="911" on="1"/>
        <pt x="395" y="924" on="1"/>
        <pt x="395" y="961" on="1"/>
        <pt x="409" y="972" on="0"/>
        <pt x="559" y="1062" on="1"/>
        <pt x="559" y="1089" on="1"/>
        <pt x="543" y="1106" on="0"/>
        <pt x="512" y="1106" on="1"/>
        <pt x="499" y="1106" on="0"/>
        <pt x="455" y="1072" on="1"/>
        <pt x="403" y="1034" on="0"/>
        <pt x="378" y="1024" on="1"/>
        <pt x="364" y="1038" on="0"/>
        <pt x="364" y="1054" on="1"/>
        <pt x="364" y="1099" on="0"/>
        <pt x="488" y="1208" on="0"/>
        <pt x="533" y="1208" on="1"/>
        <pt x="543" y="1208" on="0"/>
        <pt x="647" y="1186" on="1"/>
        <pt x="761" y="1162" on="0"/>
        <pt x="811" y="1156" on="1"/>
        <pt x="824" y="1143" on="0"/>
      </contour>
      <contour>
        <pt x="1889" y="246" on="1"/>
        <pt x="1889" y="171" on="0"/>
        <pt x="1859" y="97" on="1"/>
        <pt x="1819" y="0" on="0"/>
        <pt x="1751" y="0" on="1"/>
        <pt x="1739" y="0" on="0"/>
        <pt x="1488" y="61" on="0"/>
        <pt x="1475" y="61" on="1"/>
        <pt x="1466" y="61" on="0"/>
        <pt x="1174" y="-10" on="0"/>
        <pt x="1163" y="-10" on="1"/>
        <pt x="1160" y="-10" on="0"/>
        <pt x="888" y="0" on="0"/>
        <pt x="821" y="0" on="1"/>
        <pt x="786" y="-26" on="0"/>
        <pt x="776" y="-96" on="1"/>
        <pt x="765" y="-172" on="0"/>
        <pt x="747" y="-190" on="1"/>
        <pt x="742" y="-197" on="0"/>
        <pt x="737" y="-203" on="1"/>
        <pt x="728" y="-215" on="0"/>
        <pt x="712" y="-215" on="1"/>
        <pt x="652" y="-215" on="0"/>
        <pt x="600" y="-142" on="1"/>
        <pt x="556" y="-82" on="0"/>
        <pt x="551" y="-36" on="1"/>
        <pt x="555" y="9" on="0"/>
        <pt x="555" y="96" on="1"/>
        <pt x="548" y="106" on="0"/>
        <pt x="531" y="123" on="1"/>
        <pt x="417" y="111" on="0"/>
        <pt x="376" y="93" on="1"/>
        <pt x="303" y="61" on="0"/>
        <pt x="303" y="-20" on="1"/>
        <pt x="303" y="-33" on="0"/>
        <pt x="364" y="-652" on="0"/>
        <pt x="364" y="-666" on="1"/>
        <pt x="364" y="-692" on="0"/>
        <pt x="345" y="-747" on="1"/>
        <pt x="325" y="-806" on="0"/>
        <pt x="307" y="-819" on="1"/>
        <pt x="294" y="-801" on="0"/>
        <pt x="275" y="-774" on="1"/>
        <pt x="210" y="-208" on="0"/>
        <pt x="210" y="-81" on="1"/>
        <pt x="210" y="55" on="0"/>
        <pt x="285" y="155" on="1"/>
        <pt x="375" y="274" on="0"/>
        <pt x="543" y="289" on="1"/>
        <pt x="557" y="290" on="0"/>
        <pt x="607" y="338" on="0"/>
        <pt x="620" y="338" on="1"/>
        <pt x="625" y="338" on="0"/>
        <pt x="702" y="265" on="1"/>
        <pt x="782" y="188" on="0"/>
        <pt x="831" y="176" on="1"/>
        <pt x="924" y="153" on="0"/>
        <pt x="1065" y="153" on="1"/>
        <pt x="1063" y="153" on="0"/>
        <pt x="1128" y="151" on="1"/>
        <pt x="1173" y="148" on="0"/>
        <pt x="1200" y="152" on="1"/>
        <pt x="1239" y="157" on="0"/>
        <pt x="1273" y="193" on="0"/>
        <pt x="1308" y="286" on="1"/>
        <pt x="1351" y="403" on="0"/>
        <pt x="1374" y="447" on="1"/>
        <pt x="1379" y="457" on="0"/>
        <pt x="1379" y="466" on="1"/>
        <pt x="1379" y="479" on="0"/>
        <pt x="1350" y="515" on="0"/>
        <pt x="1350" y="524" on="1"/>
        <pt x="1349" y="569" on="0"/>
        <pt x="1371" y="626" on="1"/>
        <pt x="1399" y="696" on="0"/>
        <pt x="1439" y="696" on="1"/>
        <pt x="1461" y="696" on="0"/>
        <pt x="1643" y="560" on="1"/>
        <pt x="1821" y="427" on="0"/>
        <pt x="1843" y="397" on="1"/>
        <pt x="1889" y="337" on="0"/>
      </contour>
      <contour>
        <pt x="2206" y="1373" on="1"/>
        <pt x="2206" y="1413" on="1"/>
        <pt x="2206" y="1429" on="0"/>
        <pt x="2201" y="1432" on="1"/>
        <pt x="2198" y="1434" on="0"/>
        <pt x="2194" y="1432" on="1"/>
        <pt x="2158" y="1432" on="1"/>
        <pt x="2146" y="1396" on="1"/>
        <pt x="2169" y="1373" on="1"/>
      </contour>
      <contour>
        <pt x="1449" y="1345" on="1"/>
        <pt x="1426" y="1392" on="0"/>
        <pt x="1401" y="1392" on="1"/>
        <pt x="1377" y="1366" on="1"/>
        <pt x="1412" y="1331" on="1"/>
        <pt x="1435" y="1331" on="0"/>
      </contour>
      <contour>
        <pt x="1786" y="197" on="1"/>
        <pt x="1780" y="221" on="0"/>
        <pt x="1696" y="327" on="0"/>
        <pt x="1678" y="327" on="1"/>
        <pt x="1635" y="327" on="1"/>
        <pt x="1637" y="274" on="0"/>
        <pt x="1624" y="228" on="1"/>
        <pt x="1714" y="184" on="0"/>
        <pt x="1751" y="184" on="1"/>
        <pt x="1766" y="184" on="0"/>
        <pt x="1783" y="197" on="0"/>
      </contour>
      <contour>
        <pt x="1541" y="282" on="1"/>
        <pt x="1519" y="369" on="0"/>
        <pt x="1480" y="369" on="1"/>
        <pt x="1457" y="369" on="0"/>
        <pt x="1431" y="335" on="1"/>
        <pt x="1408" y="305" on="0"/>
        <pt x="1408" y="287" on="1"/>
        <pt x="1408" y="225" on="0"/>
        <pt x="1490" y="225" on="1"/>
        <pt x="1508" y="225" on="0"/>
        <pt x="1541" y="262" on="0"/>
      </contour>
    </TTGlyph>
    <TTGlyph name="irghizufinal" xMin="142" yMin="226" xMax="842" yMax="1588">
      <contour>
        <pt x="142" y="226" on="1"/>
        <pt x="142" y="1588" on="1"/>
        <pt x="842" y="1588" on="1"/>
        <pt x="842" y="226" on="1"/>
      </contour>
      <contour>
        <pt x="284" y="368" on="1"/>
        <pt x="700" y="368" on="1"/>
        <pt x="700" y="1447" on="1"/>
        <pt x="284" y="1447" on="1"/>
      </contour>
    </TTGlyph>
    <TTGlyph name="jehfinalarabic" xMin="142" yMin="226" xMax="842" yMax="1588">
      <contour>
        <pt x="142" y="226" on="1"/>
        <pt x="142" y="1588" on="1"/>
        <pt x="842" y="1588" on="1"/>
        <pt x="842" y="226" on="1"/>
      </contour>
      <contour>
        <pt x="284" y="368" on="1"/>
        <pt x="700" y="368" on="1"/>
        <pt x="700" y="1447" on="1"/>
        <pt x="284" y="1447" on="1"/>
      </contour>
    </TTGlyph>
    <TTGlyph name="kafringfinal" xMin="142" yMin="226" xMax="842" yMax="1588">
      <contour>
        <pt x="142" y="226" on="1"/>
        <pt x="142" y="1588" on="1"/>
        <pt x="842" y="1588" on="1"/>
        <pt x="842" y="226" on="1"/>
      </contour>
      <contour>
        <pt x="284" y="368" on="1"/>
        <pt x="700" y="368" on="1"/>
        <pt x="700" y="1447" on="1"/>
        <pt x="284" y="1447" on="1"/>
      </contour>
    </TTGlyph>
    <TTGlyph name="kafringinitial" xMin="142" yMin="226" xMax="842" yMax="1588">
      <contour>
        <pt x="142" y="226" on="1"/>
        <pt x="142" y="1588" on="1"/>
        <pt x="842" y="1588" on="1"/>
        <pt x="842" y="226" on="1"/>
      </contour>
      <contour>
        <pt x="284" y="368" on="1"/>
        <pt x="700" y="368" on="1"/>
        <pt x="700" y="1447" on="1"/>
        <pt x="284" y="1447" on="1"/>
      </contour>
    </TTGlyph>
    <TTGlyph name="kafringmedial" xMin="142" yMin="226" xMax="842" yMax="1588">
      <contour>
        <pt x="142" y="226" on="1"/>
        <pt x="142" y="1588" on="1"/>
        <pt x="842" y="1588" on="1"/>
        <pt x="842" y="226" on="1"/>
      </contour>
      <contour>
        <pt x="284" y="368" on="1"/>
        <pt x="700" y="368" on="1"/>
        <pt x="700" y="1447" on="1"/>
        <pt x="284" y="1447" on="1"/>
      </contour>
    </TTGlyph>
    <TTGlyph name="kashidaautoarabic" xMin="142" yMin="226" xMax="842" yMax="1588">
      <contour>
        <pt x="142" y="226" on="1"/>
        <pt x="142" y="1588" on="1"/>
        <pt x="842" y="1588" on="1"/>
        <pt x="842" y="226" on="1"/>
      </contour>
      <contour>
        <pt x="284" y="368" on="1"/>
        <pt x="700" y="368" on="1"/>
        <pt x="700" y="1447" on="1"/>
        <pt x="284" y="1447" on="1"/>
      </contour>
    </TTGlyph>
    <TTGlyph name="kashidaautonosidebearingarabic" xMin="142" yMin="226" xMax="842" yMax="1588">
      <contour>
        <pt x="142" y="226" on="1"/>
        <pt x="142" y="1588" on="1"/>
        <pt x="842" y="1588" on="1"/>
        <pt x="842" y="226" on="1"/>
      </contour>
      <contour>
        <pt x="284" y="368" on="1"/>
        <pt x="700" y="368" on="1"/>
        <pt x="700" y="1447" on="1"/>
        <pt x="284" y="1447" on="1"/>
      </contour>
    </TTGlyph>
    <TTGlyph name="kehehfinalarabic" xMin="142" yMin="226" xMax="842" yMax="1588">
      <contour>
        <pt x="142" y="226" on="1"/>
        <pt x="142" y="1588" on="1"/>
        <pt x="842" y="1588" on="1"/>
        <pt x="842" y="226" on="1"/>
      </contour>
      <contour>
        <pt x="284" y="368" on="1"/>
        <pt x="700" y="368" on="1"/>
        <pt x="700" y="1447" on="1"/>
        <pt x="284" y="1447" on="1"/>
      </contour>
    </TTGlyph>
    <TTGlyph name="kehehinitialarabic" xMin="142" yMin="226" xMax="842" yMax="1588">
      <contour>
        <pt x="142" y="226" on="1"/>
        <pt x="142" y="1588" on="1"/>
        <pt x="842" y="1588" on="1"/>
        <pt x="842" y="226" on="1"/>
      </contour>
      <contour>
        <pt x="284" y="368" on="1"/>
        <pt x="700" y="368" on="1"/>
        <pt x="700" y="1447" on="1"/>
        <pt x="284" y="1447" on="1"/>
      </contour>
    </TTGlyph>
    <TTGlyph name="kehehmedialarabic" xMin="142" yMin="226" xMax="842" yMax="1588">
      <contour>
        <pt x="142" y="226" on="1"/>
        <pt x="142" y="1588" on="1"/>
        <pt x="842" y="1588" on="1"/>
        <pt x="842" y="226" on="1"/>
      </contour>
      <contour>
        <pt x="284" y="368" on="1"/>
        <pt x="700" y="368" on="1"/>
        <pt x="700" y="1447" on="1"/>
        <pt x="284" y="1447" on="1"/>
      </contour>
    </TTGlyph>
    <TTGlyph name="kirghizyifinal" xMin="142" yMin="226" xMax="842" yMax="1588">
      <contour>
        <pt x="142" y="226" on="1"/>
        <pt x="142" y="1588" on="1"/>
        <pt x="842" y="1588" on="1"/>
        <pt x="842" y="226" on="1"/>
      </contour>
      <contour>
        <pt x="284" y="368" on="1"/>
        <pt x="700" y="368" on="1"/>
        <pt x="700" y="1447" on="1"/>
        <pt x="284" y="1447" on="1"/>
      </contour>
    </TTGlyph>
    <TTGlyph name="lammeemjeeminitialarabic" xMin="142" yMin="226" xMax="842" yMax="1588">
      <contour>
        <pt x="142" y="226" on="1"/>
        <pt x="142" y="1588" on="1"/>
        <pt x="842" y="1588" on="1"/>
        <pt x="842" y="226" on="1"/>
      </contour>
      <contour>
        <pt x="284" y="368" on="1"/>
        <pt x="700" y="368" on="1"/>
        <pt x="700" y="1447" on="1"/>
        <pt x="284" y="1447" on="1"/>
      </contour>
    </TTGlyph>
    <TTGlyph name="lammeemkhahinitialarabic" xMin="142" yMin="226" xMax="842" yMax="1588">
      <contour>
        <pt x="142" y="226" on="1"/>
        <pt x="142" y="1588" on="1"/>
        <pt x="842" y="1588" on="1"/>
        <pt x="842" y="226" on="1"/>
      </contour>
      <contour>
        <pt x="284" y="368" on="1"/>
        <pt x="700" y="368" on="1"/>
        <pt x="700" y="1447" on="1"/>
        <pt x="284" y="1447" on="1"/>
      </contour>
    </TTGlyph>
    <TTGlyph name="lamthreedotsabovefinal" xMin="142" yMin="226" xMax="842" yMax="1588">
      <contour>
        <pt x="142" y="226" on="1"/>
        <pt x="142" y="1588" on="1"/>
        <pt x="842" y="1588" on="1"/>
        <pt x="842" y="226" on="1"/>
      </contour>
      <contour>
        <pt x="284" y="368" on="1"/>
        <pt x="700" y="368" on="1"/>
        <pt x="700" y="1447" on="1"/>
        <pt x="284" y="1447" on="1"/>
      </contour>
    </TTGlyph>
    <TTGlyph name="lamthreedotsaboveinitial" xMin="142" yMin="226" xMax="842" yMax="1588">
      <contour>
        <pt x="142" y="226" on="1"/>
        <pt x="142" y="1588" on="1"/>
        <pt x="842" y="1588" on="1"/>
        <pt x="842" y="226" on="1"/>
      </contour>
      <contour>
        <pt x="284" y="368" on="1"/>
        <pt x="700" y="368" on="1"/>
        <pt x="700" y="1447" on="1"/>
        <pt x="284" y="1447" on="1"/>
      </contour>
    </TTGlyph>
    <TTGlyph name="lamthreedotsabovemedial" xMin="142" yMin="226" xMax="842" yMax="1588">
      <contour>
        <pt x="142" y="226" on="1"/>
        <pt x="142" y="1588" on="1"/>
        <pt x="842" y="1588" on="1"/>
        <pt x="842" y="226" on="1"/>
      </contour>
      <contour>
        <pt x="284" y="368" on="1"/>
        <pt x="700" y="368" on="1"/>
        <pt x="700" y="1447" on="1"/>
        <pt x="284" y="1447" on="1"/>
      </contour>
    </TTGlyph>
    <TTGlyph name="less" xMin="142" yMin="226" xMax="842" yMax="1588">
      <contour>
        <pt x="142" y="226" on="1"/>
        <pt x="142" y="1588" on="1"/>
        <pt x="842" y="1588" on="1"/>
        <pt x="842" y="226" on="1"/>
      </contour>
      <contour>
        <pt x="284" y="368" on="1"/>
        <pt x="700" y="368" on="1"/>
        <pt x="700" y="1447" on="1"/>
        <pt x="284" y="1447" on="1"/>
      </contour>
    </TTGlyph>
    <TTGlyph name="meemmeemisolatedarabic" xMin="142" yMin="226" xMax="842" yMax="1588">
      <contour>
        <pt x="142" y="226" on="1"/>
        <pt x="142" y="1588" on="1"/>
        <pt x="842" y="1588" on="1"/>
        <pt x="842" y="226" on="1"/>
      </contour>
      <contour>
        <pt x="284" y="368" on="1"/>
        <pt x="700" y="368" on="1"/>
        <pt x="700" y="1447" on="1"/>
        <pt x="284" y="1447" on="1"/>
      </contour>
    </TTGlyph>
    <TTGlyph name="multiply" xMin="142" yMin="226" xMax="842" yMax="1588">
      <contour>
        <pt x="142" y="226" on="1"/>
        <pt x="142" y="1588" on="1"/>
        <pt x="842" y="1588" on="1"/>
        <pt x="842" y="226" on="1"/>
      </contour>
      <contour>
        <pt x="284" y="368" on="1"/>
        <pt x="700" y="368" on="1"/>
        <pt x="700" y="1447" on="1"/>
        <pt x="284" y="1447" on="1"/>
      </contour>
    </TTGlyph>
    <TTGlyph name="noonghunnafinalarabic" xMin="142" yMin="226" xMax="842" yMax="1588">
      <contour>
        <pt x="142" y="226" on="1"/>
        <pt x="142" y="1588" on="1"/>
        <pt x="842" y="1588" on="1"/>
        <pt x="842" y="226" on="1"/>
      </contour>
      <contour>
        <pt x="284" y="368" on="1"/>
        <pt x="700" y="368" on="1"/>
        <pt x="700" y="1447" on="1"/>
        <pt x="284" y="1447" on="1"/>
      </contour>
    </TTGlyph>
    <TTGlyph name="noonjeemisolatedarabic" xMin="142" yMin="226" xMax="842" yMax="1588">
      <contour>
        <pt x="142" y="226" on="1"/>
        <pt x="142" y="1588" on="1"/>
        <pt x="842" y="1588" on="1"/>
        <pt x="842" y="226" on="1"/>
      </contour>
      <contour>
        <pt x="284" y="368" on="1"/>
        <pt x="700" y="368" on="1"/>
        <pt x="700" y="1447" on="1"/>
        <pt x="284" y="1447" on="1"/>
      </contour>
    </TTGlyph>
    <TTGlyph name="noonmeemisolatedarabic" xMin="142" yMin="226" xMax="842" yMax="1588">
      <contour>
        <pt x="142" y="226" on="1"/>
        <pt x="142" y="1588" on="1"/>
        <pt x="842" y="1588" on="1"/>
        <pt x="842" y="226" on="1"/>
      </contour>
      <contour>
        <pt x="284" y="368" on="1"/>
        <pt x="700" y="368" on="1"/>
        <pt x="700" y="1447" on="1"/>
        <pt x="284" y="1447" on="1"/>
      </contour>
    </TTGlyph>
    <TTGlyph name="noonringfinal" xMin="142" yMin="226" xMax="842" yMax="1588">
      <contour>
        <pt x="142" y="226" on="1"/>
        <pt x="142" y="1588" on="1"/>
        <pt x="842" y="1588" on="1"/>
        <pt x="842" y="226" on="1"/>
      </contour>
      <contour>
        <pt x="284" y="368" on="1"/>
        <pt x="700" y="368" on="1"/>
        <pt x="700" y="1447" on="1"/>
        <pt x="284" y="1447" on="1"/>
      </contour>
    </TTGlyph>
    <TTGlyph name="noonringinitial" xMin="142" yMin="226" xMax="842" yMax="1588">
      <contour>
        <pt x="142" y="226" on="1"/>
        <pt x="142" y="1588" on="1"/>
        <pt x="842" y="1588" on="1"/>
        <pt x="842" y="226" on="1"/>
      </contour>
      <contour>
        <pt x="284" y="368" on="1"/>
        <pt x="700" y="368" on="1"/>
        <pt x="700" y="1447" on="1"/>
        <pt x="284" y="1447" on="1"/>
      </contour>
    </TTGlyph>
    <TTGlyph name="noonringmedial" xMin="142" yMin="226" xMax="842" yMax="1588">
      <contour>
        <pt x="142" y="226" on="1"/>
        <pt x="142" y="1588" on="1"/>
        <pt x="842" y="1588" on="1"/>
        <pt x="842" y="226" on="1"/>
      </contour>
      <contour>
        <pt x="284" y="368" on="1"/>
        <pt x="700" y="368" on="1"/>
        <pt x="700" y="1447" on="1"/>
        <pt x="284" y="1447" on="1"/>
      </contour>
    </TTGlyph>
    <TTGlyph name="numbersign" xMin="142" yMin="226" xMax="842" yMax="1588">
      <contour>
        <pt x="142" y="226" on="1"/>
        <pt x="142" y="1588" on="1"/>
        <pt x="842" y="1588" on="1"/>
        <pt x="842" y="226" on="1"/>
      </contour>
      <contour>
        <pt x="284" y="368" on="1"/>
        <pt x="700" y="368" on="1"/>
        <pt x="700" y="1447" on="1"/>
        <pt x="284" y="1447" on="1"/>
      </contour>
    </TTGlyph>
    <TTGlyph name="parenleft" xMin="142" yMin="226" xMax="842" yMax="1588">
      <contour>
        <pt x="142" y="226" on="1"/>
        <pt x="142" y="1588" on="1"/>
        <pt x="842" y="1588" on="1"/>
        <pt x="842" y="226" on="1"/>
      </contour>
      <contour>
        <pt x="284" y="368" on="1"/>
        <pt x="700" y="368" on="1"/>
        <pt x="700" y="1447" on="1"/>
        <pt x="284" y="1447" on="1"/>
      </contour>
    </TTGlyph>
    <TTGlyph name="parenright" xMin="142" yMin="226" xMax="842" yMax="1588">
      <contour>
        <pt x="142" y="226" on="1"/>
        <pt x="142" y="1588" on="1"/>
        <pt x="842" y="1588" on="1"/>
        <pt x="842" y="226" on="1"/>
      </contour>
      <contour>
        <pt x="284" y="368" on="1"/>
        <pt x="700" y="368" on="1"/>
        <pt x="700" y="1447" on="1"/>
        <pt x="284" y="1447" on="1"/>
      </contour>
    </TTGlyph>
    <TTGlyph name="pashtoefinal" xMin="142" yMin="226" xMax="842" yMax="1588">
      <contour>
        <pt x="142" y="226" on="1"/>
        <pt x="142" y="1588" on="1"/>
        <pt x="842" y="1588" on="1"/>
        <pt x="842" y="226" on="1"/>
      </contour>
      <contour>
        <pt x="284" y="368" on="1"/>
        <pt x="700" y="368" on="1"/>
        <pt x="700" y="1447" on="1"/>
        <pt x="284" y="1447" on="1"/>
      </contour>
    </TTGlyph>
    <TTGlyph name="pashtoeinitial" xMin="142" yMin="226" xMax="842" yMax="1588">
      <contour>
        <pt x="142" y="226" on="1"/>
        <pt x="142" y="1588" on="1"/>
        <pt x="842" y="1588" on="1"/>
        <pt x="842" y="226" on="1"/>
      </contour>
      <contour>
        <pt x="284" y="368" on="1"/>
        <pt x="700" y="368" on="1"/>
        <pt x="700" y="1447" on="1"/>
        <pt x="284" y="1447" on="1"/>
      </contour>
    </TTGlyph>
    <TTGlyph name="pashtoemedial" xMin="142" yMin="226" xMax="842" yMax="1588">
      <contour>
        <pt x="142" y="226" on="1"/>
        <pt x="142" y="1588" on="1"/>
        <pt x="842" y="1588" on="1"/>
        <pt x="842" y="226" on="1"/>
      </contour>
      <contour>
        <pt x="284" y="368" on="1"/>
        <pt x="700" y="368" on="1"/>
        <pt x="700" y="1447" on="1"/>
        <pt x="284" y="1447" on="1"/>
      </contour>
    </TTGlyph>
    <TTGlyph name="pehfinalarabic" xMin="142" yMin="226" xMax="842" yMax="1588">
      <contour>
        <pt x="142" y="226" on="1"/>
        <pt x="142" y="1588" on="1"/>
        <pt x="842" y="1588" on="1"/>
        <pt x="842" y="226" on="1"/>
      </contour>
      <contour>
        <pt x="284" y="368" on="1"/>
        <pt x="700" y="368" on="1"/>
        <pt x="700" y="1447" on="1"/>
        <pt x="284" y="1447" on="1"/>
      </contour>
    </TTGlyph>
    <TTGlyph name="pehinitialarabic" xMin="142" yMin="226" xMax="842" yMax="1588">
      <contour>
        <pt x="142" y="226" on="1"/>
        <pt x="142" y="1588" on="1"/>
        <pt x="842" y="1588" on="1"/>
        <pt x="842" y="226" on="1"/>
      </contour>
      <contour>
        <pt x="284" y="368" on="1"/>
        <pt x="700" y="368" on="1"/>
        <pt x="700" y="1447" on="1"/>
        <pt x="284" y="1447" on="1"/>
      </contour>
    </TTGlyph>
    <TTGlyph name="pehmedialarabic" xMin="142" yMin="226" xMax="842" yMax="1588">
      <contour>
        <pt x="142" y="226" on="1"/>
        <pt x="142" y="1588" on="1"/>
        <pt x="842" y="1588" on="1"/>
        <pt x="842" y="226" on="1"/>
      </contour>
      <contour>
        <pt x="284" y="368" on="1"/>
        <pt x="700" y="368" on="1"/>
        <pt x="700" y="1447" on="1"/>
        <pt x="284" y="1447" on="1"/>
      </contour>
    </TTGlyph>
    <TTGlyph name="percent" xMin="142" yMin="226" xMax="842" yMax="1588">
      <contour>
        <pt x="142" y="226" on="1"/>
        <pt x="142" y="1588" on="1"/>
        <pt x="842" y="1588" on="1"/>
        <pt x="842" y="226" on="1"/>
      </contour>
      <contour>
        <pt x="284" y="368" on="1"/>
        <pt x="700" y="368" on="1"/>
        <pt x="700" y="1447" on="1"/>
        <pt x="284" y="1447" on="1"/>
      </contour>
    </TTGlyph>
    <TTGlyph name="period" xMin="142" yMin="226" xMax="842" yMax="1588">
      <contour>
        <pt x="142" y="226" on="1"/>
        <pt x="142" y="1588" on="1"/>
        <pt x="842" y="1588" on="1"/>
        <pt x="842" y="226" on="1"/>
      </contour>
      <contour>
        <pt x="284" y="368" on="1"/>
        <pt x="700" y="368" on="1"/>
        <pt x="700" y="1447" on="1"/>
        <pt x="284" y="1447" on="1"/>
      </contour>
    </TTGlyph>
    <TTGlyph name="plus" xMin="142" yMin="226" xMax="842" yMax="1588">
      <contour>
        <pt x="142" y="226" on="1"/>
        <pt x="142" y="1588" on="1"/>
        <pt x="842" y="1588" on="1"/>
        <pt x="842" y="226" on="1"/>
      </contour>
      <contour>
        <pt x="284" y="368" on="1"/>
        <pt x="700" y="368" on="1"/>
        <pt x="700" y="1447" on="1"/>
        <pt x="284" y="1447" on="1"/>
      </contour>
    </TTGlyph>
    <TTGlyph name="quotedbl" xMin="142" yMin="226" xMax="842" yMax="1588">
      <contour>
        <pt x="142" y="226" on="1"/>
        <pt x="142" y="1588" on="1"/>
        <pt x="842" y="1588" on="1"/>
        <pt x="842" y="226" on="1"/>
      </contour>
      <contour>
        <pt x="284" y="368" on="1"/>
        <pt x="700" y="368" on="1"/>
        <pt x="700" y="1447" on="1"/>
        <pt x="284" y="1447" on="1"/>
      </contour>
    </TTGlyph>
    <TTGlyph name="quotesingle" xMin="142" yMin="226" xMax="842" yMax="1588">
      <contour>
        <pt x="142" y="226" on="1"/>
        <pt x="142" y="1588" on="1"/>
        <pt x="842" y="1588" on="1"/>
        <pt x="842" y="226" on="1"/>
      </contour>
      <contour>
        <pt x="284" y="368" on="1"/>
        <pt x="700" y="368" on="1"/>
        <pt x="700" y="1447" on="1"/>
        <pt x="284" y="1447" on="1"/>
      </contour>
    </TTGlyph>
    <TTGlyph name="rehdotbelowdotabovefinal" xMin="142" yMin="226" xMax="842" yMax="1588">
      <contour>
        <pt x="142" y="226" on="1"/>
        <pt x="142" y="1588" on="1"/>
        <pt x="842" y="1588" on="1"/>
        <pt x="842" y="226" on="1"/>
      </contour>
      <contour>
        <pt x="284" y="368" on="1"/>
        <pt x="700" y="368" on="1"/>
        <pt x="700" y="1447" on="1"/>
        <pt x="284" y="1447" on="1"/>
      </contour>
    </TTGlyph>
    <TTGlyph name="rehringfinal" xMin="142" yMin="226" xMax="842" yMax="1588">
      <contour>
        <pt x="142" y="226" on="1"/>
        <pt x="142" y="1588" on="1"/>
        <pt x="842" y="1588" on="1"/>
        <pt x="842" y="226" on="1"/>
      </contour>
      <contour>
        <pt x="284" y="368" on="1"/>
        <pt x="700" y="368" on="1"/>
        <pt x="700" y="1447" on="1"/>
        <pt x="284" y="1447" on="1"/>
      </contour>
    </TTGlyph>
    <TTGlyph name="rrehfinalarabic" xMin="142" yMin="226" xMax="842" yMax="1588">
      <contour>
        <pt x="142" y="226" on="1"/>
        <pt x="142" y="1588" on="1"/>
        <pt x="842" y="1588" on="1"/>
        <pt x="842" y="226" on="1"/>
      </contour>
      <contour>
        <pt x="284" y="368" on="1"/>
        <pt x="700" y="368" on="1"/>
        <pt x="700" y="1447" on="1"/>
        <pt x="284" y="1447" on="1"/>
      </contour>
    </TTGlyph>
    <TTGlyph name="seendotbelowdotabovefinal" xMin="142" yMin="226" xMax="842" yMax="1588">
      <contour>
        <pt x="142" y="226" on="1"/>
        <pt x="142" y="1588" on="1"/>
        <pt x="842" y="1588" on="1"/>
        <pt x="842" y="226" on="1"/>
      </contour>
      <contour>
        <pt x="284" y="368" on="1"/>
        <pt x="700" y="368" on="1"/>
        <pt x="700" y="1447" on="1"/>
        <pt x="284" y="1447" on="1"/>
      </contour>
    </TTGlyph>
    <TTGlyph name="seendotbelowdotaboveinitial" xMin="142" yMin="226" xMax="842" yMax="1588">
      <contour>
        <pt x="142" y="226" on="1"/>
        <pt x="142" y="1588" on="1"/>
        <pt x="842" y="1588" on="1"/>
        <pt x="842" y="226" on="1"/>
      </contour>
      <contour>
        <pt x="284" y="368" on="1"/>
        <pt x="700" y="368" on="1"/>
        <pt x="700" y="1447" on="1"/>
        <pt x="284" y="1447" on="1"/>
      </contour>
    </TTGlyph>
    <TTGlyph name="seendotbelowdotabovemedial" xMin="142" yMin="226" xMax="842" yMax="1588">
      <contour>
        <pt x="142" y="226" on="1"/>
        <pt x="142" y="1588" on="1"/>
        <pt x="842" y="1588" on="1"/>
        <pt x="842" y="226" on="1"/>
      </contour>
      <contour>
        <pt x="284" y="368" on="1"/>
        <pt x="700" y="368" on="1"/>
        <pt x="700" y="1447" on="1"/>
        <pt x="284" y="1447" on="1"/>
      </contour>
    </TTGlyph>
    <TTGlyph name="shaddadammaarabic" xMin="142" yMin="226" xMax="842" yMax="1588">
      <contour>
        <pt x="142" y="226" on="1"/>
        <pt x="142" y="1588" on="1"/>
        <pt x="842" y="1588" on="1"/>
        <pt x="842" y="226" on="1"/>
      </contour>
      <contour>
        <pt x="284" y="368" on="1"/>
        <pt x="700" y="368" on="1"/>
        <pt x="700" y="1447" on="1"/>
        <pt x="284" y="1447" on="1"/>
      </contour>
    </TTGlyph>
    <TTGlyph name="shaddadammatanarabic" xMin="142" yMin="226" xMax="842" yMax="1588">
      <contour>
        <pt x="142" y="226" on="1"/>
        <pt x="142" y="1588" on="1"/>
        <pt x="842" y="1588" on="1"/>
        <pt x="842" y="226" on="1"/>
      </contour>
      <contour>
        <pt x="284" y="368" on="1"/>
        <pt x="700" y="368" on="1"/>
        <pt x="700" y="1447" on="1"/>
        <pt x="284" y="1447" on="1"/>
      </contour>
    </TTGlyph>
    <TTGlyph name="shaddafathaarabic" xMin="142" yMin="226" xMax="842" yMax="1588">
      <contour>
        <pt x="142" y="226" on="1"/>
        <pt x="142" y="1588" on="1"/>
        <pt x="842" y="1588" on="1"/>
        <pt x="842" y="226" on="1"/>
      </contour>
      <contour>
        <pt x="284" y="368" on="1"/>
        <pt x="700" y="368" on="1"/>
        <pt x="700" y="1447" on="1"/>
        <pt x="284" y="1447" on="1"/>
      </contour>
    </TTGlyph>
    <TTGlyph name="shaddakasraarabic" xMin="142" yMin="226" xMax="842" yMax="1588">
      <contour>
        <pt x="142" y="226" on="1"/>
        <pt x="142" y="1588" on="1"/>
        <pt x="842" y="1588" on="1"/>
        <pt x="842" y="226" on="1"/>
      </contour>
      <contour>
        <pt x="284" y="368" on="1"/>
        <pt x="700" y="368" on="1"/>
        <pt x="700" y="1447" on="1"/>
        <pt x="284" y="1447" on="1"/>
      </contour>
    </TTGlyph>
    <TTGlyph name="shaddakasratanarabic" xMin="142" yMin="226" xMax="842" yMax="1588">
      <contour>
        <pt x="142" y="226" on="1"/>
        <pt x="142" y="1588" on="1"/>
        <pt x="842" y="1588" on="1"/>
        <pt x="842" y="226" on="1"/>
      </contour>
      <contour>
        <pt x="284" y="368" on="1"/>
        <pt x="700" y="368" on="1"/>
        <pt x="700" y="1447" on="1"/>
        <pt x="284" y="1447" on="1"/>
      </contour>
    </TTGlyph>
    <TTGlyph name="slash" xMin="142" yMin="226" xMax="842" yMax="1588">
      <contour>
        <pt x="142" y="226" on="1"/>
        <pt x="142" y="1588" on="1"/>
        <pt x="842" y="1588" on="1"/>
        <pt x="842" y="226" on="1"/>
      </contour>
      <contour>
        <pt x="284" y="368" on="1"/>
        <pt x="700" y="368" on="1"/>
        <pt x="700" y="1447" on="1"/>
        <pt x="284" y="1447" on="1"/>
      </contour>
    </TTGlyph>
    <TTGlyph name="space" xMin="142" yMin="226" xMax="842" yMax="1588">
      <contour>
        <pt x="142" y="226" on="1"/>
        <pt x="142" y="1588" on="1"/>
        <pt x="842" y="1588" on="1"/>
        <pt x="842" y="226" on="1"/>
      </contour>
      <contour>
        <pt x="284" y="368" on="1"/>
        <pt x="700" y="368" on="1"/>
        <pt x="700" y="1447" on="1"/>
        <pt x="284" y="1447" on="1"/>
      </contour>
    </TTGlyph>
    <TTGlyph name="tchehfinalarabic" xMin="142" yMin="226" xMax="842" yMax="1588">
      <contour>
        <pt x="142" y="226" on="1"/>
        <pt x="142" y="1588" on="1"/>
        <pt x="842" y="1588" on="1"/>
        <pt x="842" y="226" on="1"/>
      </contour>
      <contour>
        <pt x="284" y="368" on="1"/>
        <pt x="700" y="368" on="1"/>
        <pt x="700" y="1447" on="1"/>
        <pt x="284" y="1447" on="1"/>
      </contour>
    </TTGlyph>
    <TTGlyph name="tchehinitialarabic" xMin="142" yMin="226" xMax="842" yMax="1588">
      <contour>
        <pt x="142" y="226" on="1"/>
        <pt x="142" y="1588" on="1"/>
        <pt x="842" y="1588" on="1"/>
        <pt x="842" y="226" on="1"/>
      </contour>
      <contour>
        <pt x="284" y="368" on="1"/>
        <pt x="700" y="368" on="1"/>
        <pt x="700" y="1447" on="1"/>
        <pt x="284" y="1447" on="1"/>
      </contour>
    </TTGlyph>
    <TTGlyph name="tchehmedialarabic" xMin="142" yMin="226" xMax="842" yMax="1588">
      <contour>
        <pt x="142" y="226" on="1"/>
        <pt x="142" y="1588" on="1"/>
        <pt x="842" y="1588" on="1"/>
        <pt x="842" y="226" on="1"/>
      </contour>
      <contour>
        <pt x="284" y="368" on="1"/>
        <pt x="700" y="368" on="1"/>
        <pt x="700" y="1447" on="1"/>
        <pt x="284" y="1447" on="1"/>
      </contour>
    </TTGlyph>
    <TTGlyph name="tehhahisolatedarabic" xMin="142" yMin="226" xMax="842" yMax="1588">
      <contour>
        <pt x="142" y="226" on="1"/>
        <pt x="142" y="1588" on="1"/>
        <pt x="842" y="1588" on="1"/>
        <pt x="842" y="226" on="1"/>
      </contour>
      <contour>
        <pt x="284" y="368" on="1"/>
        <pt x="700" y="368" on="1"/>
        <pt x="700" y="1447" on="1"/>
        <pt x="284" y="1447" on="1"/>
      </contour>
    </TTGlyph>
    <TTGlyph name="tehjeemisolatedarabic" xMin="142" yMin="226" xMax="842" yMax="1588">
      <contour>
        <pt x="142" y="226" on="1"/>
        <pt x="142" y="1588" on="1"/>
        <pt x="842" y="1588" on="1"/>
        <pt x="842" y="226" on="1"/>
      </contour>
      <contour>
        <pt x="284" y="368" on="1"/>
        <pt x="700" y="368" on="1"/>
        <pt x="700" y="1447" on="1"/>
        <pt x="284" y="1447" on="1"/>
      </contour>
    </TTGlyph>
    <TTGlyph name="tehmeemisolatedarabic" xMin="142" yMin="226" xMax="842" yMax="1588">
      <contour>
        <pt x="142" y="226" on="1"/>
        <pt x="142" y="1588" on="1"/>
        <pt x="842" y="1588" on="1"/>
        <pt x="842" y="226" on="1"/>
      </contour>
      <contour>
        <pt x="284" y="368" on="1"/>
        <pt x="700" y="368" on="1"/>
        <pt x="700" y="1447" on="1"/>
        <pt x="284" y="1447" on="1"/>
      </contour>
    </TTGlyph>
    <TTGlyph name="tehnoonfinalarabic" xMin="142" yMin="226" xMax="842" yMax="1588">
      <contour>
        <pt x="142" y="226" on="1"/>
        <pt x="142" y="1588" on="1"/>
        <pt x="842" y="1588" on="1"/>
        <pt x="842" y="226" on="1"/>
      </contour>
      <contour>
        <pt x="284" y="368" on="1"/>
        <pt x="700" y="368" on="1"/>
        <pt x="700" y="1447" on="1"/>
        <pt x="284" y="1447" on="1"/>
      </contour>
    </TTGlyph>
    <TTGlyph name="tehringfinal" xMin="142" yMin="226" xMax="842" yMax="1588">
      <contour>
        <pt x="142" y="226" on="1"/>
        <pt x="142" y="1588" on="1"/>
        <pt x="842" y="1588" on="1"/>
        <pt x="842" y="226" on="1"/>
      </contour>
      <contour>
        <pt x="284" y="368" on="1"/>
        <pt x="700" y="368" on="1"/>
        <pt x="700" y="1447" on="1"/>
        <pt x="284" y="1447" on="1"/>
      </contour>
    </TTGlyph>
    <TTGlyph name="tehringinitial" xMin="142" yMin="226" xMax="842" yMax="1588">
      <contour>
        <pt x="142" y="226" on="1"/>
        <pt x="142" y="1588" on="1"/>
        <pt x="842" y="1588" on="1"/>
        <pt x="842" y="226" on="1"/>
      </contour>
      <contour>
        <pt x="284" y="368" on="1"/>
        <pt x="700" y="368" on="1"/>
        <pt x="700" y="1447" on="1"/>
        <pt x="284" y="1447" on="1"/>
      </contour>
    </TTGlyph>
    <TTGlyph name="tehringmedial" xMin="142" yMin="226" xMax="842" yMax="1588">
      <contour>
        <pt x="142" y="226" on="1"/>
        <pt x="142" y="1588" on="1"/>
        <pt x="842" y="1588" on="1"/>
        <pt x="842" y="226" on="1"/>
      </contour>
      <contour>
        <pt x="284" y="368" on="1"/>
        <pt x="700" y="368" on="1"/>
        <pt x="700" y="1447" on="1"/>
        <pt x="284" y="1447" on="1"/>
      </contour>
    </TTGlyph>
    <TTGlyph name="ttehfinalarabic" xMin="142" yMin="226" xMax="842" yMax="1588">
      <contour>
        <pt x="142" y="226" on="1"/>
        <pt x="142" y="1588" on="1"/>
        <pt x="842" y="1588" on="1"/>
        <pt x="842" y="226" on="1"/>
      </contour>
      <contour>
        <pt x="284" y="368" on="1"/>
        <pt x="700" y="368" on="1"/>
        <pt x="700" y="1447" on="1"/>
        <pt x="284" y="1447" on="1"/>
      </contour>
    </TTGlyph>
    <TTGlyph name="ttehinitialarabic" xMin="142" yMin="226" xMax="842" yMax="1588">
      <contour>
        <pt x="142" y="226" on="1"/>
        <pt x="142" y="1588" on="1"/>
        <pt x="842" y="1588" on="1"/>
        <pt x="842" y="226" on="1"/>
      </contour>
      <contour>
        <pt x="284" y="368" on="1"/>
        <pt x="700" y="368" on="1"/>
        <pt x="700" y="1447" on="1"/>
        <pt x="284" y="1447" on="1"/>
      </contour>
    </TTGlyph>
    <TTGlyph name="ttehmedialarabic" xMin="142" yMin="226" xMax="842" yMax="1588">
      <contour>
        <pt x="142" y="226" on="1"/>
        <pt x="142" y="1588" on="1"/>
        <pt x="842" y="1588" on="1"/>
        <pt x="842" y="226" on="1"/>
      </contour>
      <contour>
        <pt x="284" y="368" on="1"/>
        <pt x="700" y="368" on="1"/>
        <pt x="700" y="1447" on="1"/>
        <pt x="284" y="1447" on="1"/>
      </contour>
    </TTGlyph>
    <TTGlyph name="uni000D" xMin="142" yMin="226" xMax="842" yMax="1588">
      <contour>
        <pt x="142" y="226" on="1"/>
        <pt x="142" y="1588" on="1"/>
        <pt x="842" y="1588" on="1"/>
        <pt x="842" y="226" on="1"/>
      </contour>
      <contour>
        <pt x="284" y="368" on="1"/>
        <pt x="700" y="368" on="1"/>
        <pt x="700" y="1447" on="1"/>
        <pt x="284" y="1447" on="1"/>
      </contour>
    </TTGlyph>
    <TTGlyph name="uni00A0" xMin="142" yMin="226" xMax="842" yMax="1588">
      <contour>
        <pt x="142" y="226" on="1"/>
        <pt x="142" y="1588" on="1"/>
        <pt x="842" y="1588" on="1"/>
        <pt x="842" y="226" on="1"/>
      </contour>
      <contour>
        <pt x="284" y="368" on="1"/>
        <pt x="700" y="368" on="1"/>
        <pt x="700" y="1447" on="1"/>
        <pt x="284" y="1447" on="1"/>
      </contour>
    </TTGlyph>
    <TTGlyph name="uni00AD" xMin="142" yMin="226" xMax="842" yMax="1588">
      <contour>
        <pt x="142" y="226" on="1"/>
        <pt x="142" y="1588" on="1"/>
        <pt x="842" y="1588" on="1"/>
        <pt x="842" y="226" on="1"/>
      </contour>
      <contour>
        <pt x="284" y="368" on="1"/>
        <pt x="700" y="368" on="1"/>
        <pt x="700" y="1447" on="1"/>
        <pt x="284" y="1447" on="1"/>
      </contour>
    </TTGlyph>
    <TTGlyph name="uni0653" xMin="142" yMin="226" xMax="842" yMax="1588">
      <contour>
        <pt x="142" y="226" on="1"/>
        <pt x="142" y="1588" on="1"/>
        <pt x="842" y="1588" on="1"/>
        <pt x="842" y="226" on="1"/>
      </contour>
      <contour>
        <pt x="284" y="368" on="1"/>
        <pt x="700" y="368" on="1"/>
        <pt x="700" y="1447" on="1"/>
        <pt x="284" y="1447" on="1"/>
      </contour>
    </TTGlyph>
    <TTGlyph name="uni0654" xMin="142" yMin="226" xMax="842" yMax="1588">
      <contour>
        <pt x="142" y="226" on="1"/>
        <pt x="142" y="1588" on="1"/>
        <pt x="842" y="1588" on="1"/>
        <pt x="842" y="226" on="1"/>
      </contour>
      <contour>
        <pt x="284" y="368" on="1"/>
        <pt x="700" y="368" on="1"/>
        <pt x="700" y="1447" on="1"/>
        <pt x="284" y="1447" on="1"/>
      </contour>
    </TTGlyph>
    <TTGlyph name="uni0655" xMin="142" yMin="226" xMax="842" yMax="1588">
      <contour>
        <pt x="142" y="226" on="1"/>
        <pt x="142" y="1588" on="1"/>
        <pt x="842" y="1588" on="1"/>
        <pt x="842" y="226" on="1"/>
      </contour>
      <contour>
        <pt x="284" y="368" on="1"/>
        <pt x="700" y="368" on="1"/>
        <pt x="700" y="1447" on="1"/>
        <pt x="284" y="1447" on="1"/>
      </contour>
    </TTGlyph>
    <TTGlyph name="uni066B" xMin="142" yMin="226" xMax="842" yMax="1588">
      <contour>
        <pt x="142" y="226" on="1"/>
        <pt x="142" y="1588" on="1"/>
        <pt x="842" y="1588" on="1"/>
        <pt x="842" y="226" on="1"/>
      </contour>
      <contour>
        <pt x="284" y="368" on="1"/>
        <pt x="700" y="368" on="1"/>
        <pt x="700" y="1447" on="1"/>
        <pt x="284" y="1447" on="1"/>
      </contour>
    </TTGlyph>
    <TTGlyph name="uni066C" xMin="142" yMin="226" xMax="842" yMax="1588">
      <contour>
        <pt x="142" y="226" on="1"/>
        <pt x="142" y="1588" on="1"/>
        <pt x="842" y="1588" on="1"/>
        <pt x="842" y="226" on="1"/>
      </contour>
      <contour>
        <pt x="284" y="368" on="1"/>
        <pt x="700" y="368" on="1"/>
        <pt x="700" y="1447" on="1"/>
        <pt x="284" y="1447" on="1"/>
      </contour>
    </TTGlyph>
    <TTGlyph name="uni0671" xMin="142" yMin="226" xMax="842" yMax="1588">
      <contour>
        <pt x="142" y="226" on="1"/>
        <pt x="142" y="1588" on="1"/>
        <pt x="842" y="1588" on="1"/>
        <pt x="842" y="226" on="1"/>
      </contour>
      <contour>
        <pt x="284" y="368" on="1"/>
        <pt x="700" y="368" on="1"/>
        <pt x="700" y="1447" on="1"/>
        <pt x="284" y="1447" on="1"/>
      </contour>
    </TTGlyph>
    <TTGlyph name="uni067C" xMin="142" yMin="226" xMax="842" yMax="1588">
      <contour>
        <pt x="142" y="226" on="1"/>
        <pt x="142" y="1588" on="1"/>
        <pt x="842" y="1588" on="1"/>
        <pt x="842" y="226" on="1"/>
      </contour>
      <contour>
        <pt x="284" y="368" on="1"/>
        <pt x="700" y="368" on="1"/>
        <pt x="700" y="1447" on="1"/>
        <pt x="284" y="1447" on="1"/>
      </contour>
    </TTGlyph>
    <TTGlyph name="uni0681" xMin="142" yMin="226" xMax="842" yMax="1588">
      <contour>
        <pt x="142" y="226" on="1"/>
        <pt x="142" y="1588" on="1"/>
        <pt x="842" y="1588" on="1"/>
        <pt x="842" y="226" on="1"/>
      </contour>
      <contour>
        <pt x="284" y="368" on="1"/>
        <pt x="700" y="368" on="1"/>
        <pt x="700" y="1447" on="1"/>
        <pt x="284" y="1447" on="1"/>
      </contour>
    </TTGlyph>
    <TTGlyph name="uni0685" xMin="142" yMin="226" xMax="842" yMax="1588">
      <contour>
        <pt x="142" y="226" on="1"/>
        <pt x="142" y="1588" on="1"/>
        <pt x="842" y="1588" on="1"/>
        <pt x="842" y="226" on="1"/>
      </contour>
      <contour>
        <pt x="284" y="368" on="1"/>
        <pt x="700" y="368" on="1"/>
        <pt x="700" y="1447" on="1"/>
        <pt x="284" y="1447" on="1"/>
      </contour>
    </TTGlyph>
    <TTGlyph name="uni0689" xMin="142" yMin="226" xMax="842" yMax="1588">
      <contour>
        <pt x="142" y="226" on="1"/>
        <pt x="142" y="1588" on="1"/>
        <pt x="842" y="1588" on="1"/>
        <pt x="842" y="226" on="1"/>
      </contour>
      <contour>
        <pt x="284" y="368" on="1"/>
        <pt x="700" y="368" on="1"/>
        <pt x="700" y="1447" on="1"/>
        <pt x="284" y="1447" on="1"/>
      </contour>
    </TTGlyph>
    <TTGlyph name="uni0693" xMin="142" yMin="226" xMax="842" yMax="1588">
      <contour>
        <pt x="142" y="226" on="1"/>
        <pt x="142" y="1588" on="1"/>
        <pt x="842" y="1588" on="1"/>
        <pt x="842" y="226" on="1"/>
      </contour>
      <contour>
        <pt x="284" y="368" on="1"/>
        <pt x="700" y="368" on="1"/>
        <pt x="700" y="1447" on="1"/>
        <pt x="284" y="1447" on="1"/>
      </contour>
    </TTGlyph>
    <TTGlyph name="uni0696" xMin="142" yMin="226" xMax="842" yMax="1588">
      <contour>
        <pt x="142" y="226" on="1"/>
        <pt x="142" y="1588" on="1"/>
        <pt x="842" y="1588" on="1"/>
        <pt x="842" y="226" on="1"/>
      </contour>
      <contour>
        <pt x="284" y="368" on="1"/>
        <pt x="700" y="368" on="1"/>
        <pt x="700" y="1447" on="1"/>
        <pt x="284" y="1447" on="1"/>
      </contour>
    </TTGlyph>
    <TTGlyph name="uni069A" xMin="142" yMin="226" xMax="842" yMax="1588">
      <contour>
        <pt x="142" y="226" on="1"/>
        <pt x="142" y="1588" on="1"/>
        <pt x="842" y="1588" on="1"/>
        <pt x="842" y="226" on="1"/>
      </contour>
      <contour>
        <pt x="284" y="368" on="1"/>
        <pt x="700" y="368" on="1"/>
        <pt x="700" y="1447" on="1"/>
        <pt x="284" y="1447" on="1"/>
      </contour>
    </TTGlyph>
    <TTGlyph name="uni06A9" xMin="142" yMin="226" xMax="842" yMax="1588">
      <contour>
        <pt x="142" y="226" on="1"/>
        <pt x="142" y="1588" on="1"/>
        <pt x="842" y="1588" on="1"/>
        <pt x="842" y="226" on="1"/>
      </contour>
      <contour>
        <pt x="284" y="368" on="1"/>
        <pt x="700" y="368" on="1"/>
        <pt x="700" y="1447" on="1"/>
        <pt x="284" y="1447" on="1"/>
      </contour>
    </TTGlyph>
    <TTGlyph name="uni06AB" xMin="142" yMin="226" xMax="842" yMax="1588">
      <contour>
        <pt x="142" y="226" on="1"/>
        <pt x="142" y="1588" on="1"/>
        <pt x="842" y="1588" on="1"/>
        <pt x="842" y="226" on="1"/>
      </contour>
      <contour>
        <pt x="284" y="368" on="1"/>
        <pt x="700" y="368" on="1"/>
        <pt x="700" y="1447" on="1"/>
        <pt x="284" y="1447" on="1"/>
      </contour>
    </TTGlyph>
    <TTGlyph name="uni06B7" xMin="142" yMin="226" xMax="842" yMax="1588">
      <contour>
        <pt x="142" y="226" on="1"/>
        <pt x="142" y="1588" on="1"/>
        <pt x="842" y="1588" on="1"/>
        <pt x="842" y="226" on="1"/>
      </contour>
      <contour>
        <pt x="284" y="368" on="1"/>
        <pt x="700" y="368" on="1"/>
        <pt x="700" y="1447" on="1"/>
        <pt x="284" y="1447" on="1"/>
      </contour>
    </TTGlyph>
    <TTGlyph name="uni06BC" xMin="142" yMin="226" xMax="842" yMax="1588">
      <contour>
        <pt x="142" y="226" on="1"/>
        <pt x="142" y="1588" on="1"/>
        <pt x="842" y="1588" on="1"/>
        <pt x="842" y="226" on="1"/>
      </contour>
      <contour>
        <pt x="284" y="368" on="1"/>
        <pt x="700" y="368" on="1"/>
        <pt x="700" y="1447" on="1"/>
        <pt x="284" y="1447" on="1"/>
      </contour>
    </TTGlyph>
    <TTGlyph name="uni06BE" xMin="142" yMin="226" xMax="842" yMax="1588">
      <contour>
        <pt x="142" y="226" on="1"/>
        <pt x="142" y="1588" on="1"/>
        <pt x="842" y="1588" on="1"/>
        <pt x="842" y="226" on="1"/>
      </contour>
      <contour>
        <pt x="284" y="368" on="1"/>
        <pt x="700" y="368" on="1"/>
        <pt x="700" y="1447" on="1"/>
        <pt x="284" y="1447" on="1"/>
      </contour>
    </TTGlyph>
    <TTGlyph name="uni06C2" xMin="142" yMin="226" xMax="842" yMax="1588">
      <contour>
        <pt x="142" y="226" on="1"/>
        <pt x="142" y="1588" on="1"/>
        <pt x="842" y="1588" on="1"/>
        <pt x="842" y="226" on="1"/>
      </contour>
      <contour>
        <pt x="284" y="368" on="1"/>
        <pt x="700" y="368" on="1"/>
        <pt x="700" y="1447" on="1"/>
        <pt x="284" y="1447" on="1"/>
      </contour>
    </TTGlyph>
    <TTGlyph name="uni06C7" xMin="142" yMin="226" xMax="842" yMax="1588">
      <contour>
        <pt x="142" y="226" on="1"/>
        <pt x="142" y="1588" on="1"/>
        <pt x="842" y="1588" on="1"/>
        <pt x="842" y="226" on="1"/>
      </contour>
      <contour>
        <pt x="284" y="368" on="1"/>
        <pt x="700" y="368" on="1"/>
        <pt x="700" y="1447" on="1"/>
        <pt x="284" y="1447" on="1"/>
      </contour>
    </TTGlyph>
    <TTGlyph name="uni06C9" xMin="142" yMin="226" xMax="842" yMax="1588">
      <contour>
        <pt x="142" y="226" on="1"/>
        <pt x="142" y="1588" on="1"/>
        <pt x="842" y="1588" on="1"/>
        <pt x="842" y="226" on="1"/>
      </contour>
      <contour>
        <pt x="284" y="368" on="1"/>
        <pt x="700" y="368" on="1"/>
        <pt x="700" y="1447" on="1"/>
        <pt x="284" y="1447" on="1"/>
      </contour>
    </TTGlyph>
    <TTGlyph name="uni06CC" xMin="142" yMin="226" xMax="842" yMax="1588">
      <contour>
        <pt x="142" y="226" on="1"/>
        <pt x="142" y="1588" on="1"/>
        <pt x="842" y="1588" on="1"/>
        <pt x="842" y="226" on="1"/>
      </contour>
      <contour>
        <pt x="284" y="368" on="1"/>
        <pt x="700" y="368" on="1"/>
        <pt x="700" y="1447" on="1"/>
        <pt x="284" y="1447" on="1"/>
      </contour>
    </TTGlyph>
    <TTGlyph name="uni06CD" xMin="142" yMin="226" xMax="842" yMax="1588">
      <contour>
        <pt x="142" y="226" on="1"/>
        <pt x="142" y="1588" on="1"/>
        <pt x="842" y="1588" on="1"/>
        <pt x="842" y="226" on="1"/>
      </contour>
      <contour>
        <pt x="284" y="368" on="1"/>
        <pt x="700" y="368" on="1"/>
        <pt x="700" y="1447" on="1"/>
        <pt x="284" y="1447" on="1"/>
      </contour>
    </TTGlyph>
    <TTGlyph name="uni06D0" xMin="142" yMin="226" xMax="842" yMax="1588">
      <contour>
        <pt x="142" y="226" on="1"/>
        <pt x="142" y="1588" on="1"/>
        <pt x="842" y="1588" on="1"/>
        <pt x="842" y="226" on="1"/>
      </contour>
      <contour>
        <pt x="284" y="368" on="1"/>
        <pt x="700" y="368" on="1"/>
        <pt x="700" y="1447" on="1"/>
        <pt x="284" y="1447" on="1"/>
      </contour>
    </TTGlyph>
    <TTGlyph name="uni06D1" xMin="142" yMin="226" xMax="842" yMax="1588">
      <contour>
        <pt x="142" y="226" on="1"/>
        <pt x="142" y="1588" on="1"/>
        <pt x="842" y="1588" on="1"/>
        <pt x="842" y="226" on="1"/>
      </contour>
      <contour>
        <pt x="284" y="368" on="1"/>
        <pt x="700" y="368" on="1"/>
        <pt x="700" y="1447" on="1"/>
        <pt x="284" y="1447" on="1"/>
      </contour>
    </TTGlyph>
    <TTGlyph name="uni06D3" xMin="142" yMin="226" xMax="842" yMax="1588">
      <contour>
        <pt x="142" y="226" on="1"/>
        <pt x="142" y="1588" on="1"/>
        <pt x="842" y="1588" on="1"/>
        <pt x="842" y="226" on="1"/>
      </contour>
      <contour>
        <pt x="284" y="368" on="1"/>
        <pt x="700" y="368" on="1"/>
        <pt x="700" y="1447" on="1"/>
        <pt x="284" y="1447" on="1"/>
      </contour>
    </TTGlyph>
    <TTGlyph name="uni06D4" xMin="142" yMin="226" xMax="842" yMax="1588">
      <contour>
        <pt x="142" y="226" on="1"/>
        <pt x="142" y="1588" on="1"/>
        <pt x="842" y="1588" on="1"/>
        <pt x="842" y="226" on="1"/>
      </contour>
      <contour>
        <pt x="284" y="368" on="1"/>
        <pt x="700" y="368" on="1"/>
        <pt x="700" y="1447" on="1"/>
        <pt x="284" y="1447" on="1"/>
      </contour>
    </TTGlyph>
    <TTGlyph name="uni06F0" xMin="142" yMin="226" xMax="842" yMax="1588">
      <contour>
        <pt x="142" y="226" on="1"/>
        <pt x="142" y="1588" on="1"/>
        <pt x="842" y="1588" on="1"/>
        <pt x="842" y="226" on="1"/>
      </contour>
      <contour>
        <pt x="284" y="368" on="1"/>
        <pt x="700" y="368" on="1"/>
        <pt x="700" y="1447" on="1"/>
        <pt x="284" y="1447" on="1"/>
      </contour>
    </TTGlyph>
    <TTGlyph name="uni06F1" xMin="142" yMin="226" xMax="842" yMax="1588">
      <contour>
        <pt x="142" y="226" on="1"/>
        <pt x="142" y="1588" on="1"/>
        <pt x="842" y="1588" on="1"/>
        <pt x="842" y="226" on="1"/>
      </contour>
      <contour>
        <pt x="284" y="368" on="1"/>
        <pt x="700" y="368" on="1"/>
        <pt x="700" y="1447" on="1"/>
        <pt x="284" y="1447" on="1"/>
      </contour>
    </TTGlyph>
    <TTGlyph name="uni06F2" xMin="142" yMin="226" xMax="842" yMax="1588">
      <contour>
        <pt x="142" y="226" on="1"/>
        <pt x="142" y="1588" on="1"/>
        <pt x="842" y="1588" on="1"/>
        <pt x="842" y="226" on="1"/>
      </contour>
      <contour>
        <pt x="284" y="368" on="1"/>
        <pt x="700" y="368" on="1"/>
        <pt x="700" y="1447" on="1"/>
        <pt x="284" y="1447" on="1"/>
      </contour>
    </TTGlyph>
    <TTGlyph name="uni06F3" xMin="142" yMin="226" xMax="842" yMax="1588">
      <contour>
        <pt x="142" y="226" on="1"/>
        <pt x="142" y="1588" on="1"/>
        <pt x="842" y="1588" on="1"/>
        <pt x="842" y="226" on="1"/>
      </contour>
      <contour>
        <pt x="284" y="368" on="1"/>
        <pt x="700" y="368" on="1"/>
        <pt x="700" y="1447" on="1"/>
        <pt x="284" y="1447" on="1"/>
      </contour>
    </TTGlyph>
    <TTGlyph name="uni06F4" xMin="142" yMin="226" xMax="842" yMax="1588">
      <contour>
        <pt x="142" y="226" on="1"/>
        <pt x="142" y="1588" on="1"/>
        <pt x="842" y="1588" on="1"/>
        <pt x="842" y="226" on="1"/>
      </contour>
      <contour>
        <pt x="284" y="368" on="1"/>
        <pt x="700" y="368" on="1"/>
        <pt x="700" y="1447" on="1"/>
        <pt x="284" y="1447" on="1"/>
      </contour>
    </TTGlyph>
    <TTGlyph name="uni06F5" xMin="142" yMin="226" xMax="842" yMax="1588">
      <contour>
        <pt x="142" y="226" on="1"/>
        <pt x="142" y="1588" on="1"/>
        <pt x="842" y="1588" on="1"/>
        <pt x="842" y="226" on="1"/>
      </contour>
      <contour>
        <pt x="284" y="368" on="1"/>
        <pt x="700" y="368" on="1"/>
        <pt x="700" y="1447" on="1"/>
        <pt x="284" y="1447" on="1"/>
      </contour>
    </TTGlyph>
    <TTGlyph name="uni06F6" xMin="142" yMin="226" xMax="842" yMax="1588">
      <contour>
        <pt x="142" y="226" on="1"/>
        <pt x="142" y="1588" on="1"/>
        <pt x="842" y="1588" on="1"/>
        <pt x="842" y="226" on="1"/>
      </contour>
      <contour>
        <pt x="284" y="368" on="1"/>
        <pt x="700" y="368" on="1"/>
        <pt x="700" y="1447" on="1"/>
        <pt x="284" y="1447" on="1"/>
      </contour>
    </TTGlyph>
    <TTGlyph name="uni06F7" xMin="142" yMin="226" xMax="842" yMax="1588">
      <contour>
        <pt x="142" y="226" on="1"/>
        <pt x="142" y="1588" on="1"/>
        <pt x="842" y="1588" on="1"/>
        <pt x="842" y="226" on="1"/>
      </contour>
      <contour>
        <pt x="284" y="368" on="1"/>
        <pt x="700" y="368" on="1"/>
        <pt x="700" y="1447" on="1"/>
        <pt x="284" y="1447" on="1"/>
      </contour>
    </TTGlyph>
    <TTGlyph name="uni06F8" xMin="142" yMin="226" xMax="842" yMax="1588">
      <contour>
        <pt x="142" y="226" on="1"/>
        <pt x="142" y="1588" on="1"/>
        <pt x="842" y="1588" on="1"/>
        <pt x="842" y="226" on="1"/>
      </contour>
      <contour>
        <pt x="284" y="368" on="1"/>
        <pt x="700" y="368" on="1"/>
        <pt x="700" y="1447" on="1"/>
        <pt x="284" y="1447" on="1"/>
      </contour>
    </TTGlyph>
    <TTGlyph name="uni06F9" xMin="142" yMin="226" xMax="842" yMax="1588">
      <contour>
        <pt x="142" y="226" on="1"/>
        <pt x="142" y="1588" on="1"/>
        <pt x="842" y="1588" on="1"/>
        <pt x="842" y="226" on="1"/>
      </contour>
      <contour>
        <pt x="284" y="368" on="1"/>
        <pt x="700" y="368" on="1"/>
        <pt x="700" y="1447" on="1"/>
        <pt x="284" y="1447" on="1"/>
      </contour>
    </TTGlyph>
    <TTGlyph name="uni2010" xMin="210" yMin="-819" xMax="3629" yMax="1812">
      <contour>
        <pt x="3598" y="1765" on="1"/>
        <pt x="3599" y="1734" on="0"/>
        <pt x="3502" y="1678" on="1"/>
        <pt x="3452" y="1652" on="0"/>
        <pt x="3402" y="1624" on="1"/>
        <pt x="3302" y="1570" on="0"/>
        <pt x="3112" y="1464" on="1"/>
        <pt x="3098" y="1466" on="0"/>
        <pt x="3098" y="1489" on="1"/>
        <pt x="3098" y="1558" on="0"/>
        <pt x="3325" y="1670" on="1"/>
        <pt x="3409" y="1721" on="0"/>
        <pt x="3574" y="1812" on="1"/>
        <pt x="3588" y="1801" on="0"/>
        <pt x="3598" y="1801" on="1"/>
      </contour>
      <contour>
        <pt x="3629" y="1271" on="1"/>
        <pt x="3577" y="1242" on="0"/>
        <pt x="3489" y="1210" on="1"/>
        <pt x="3382" y="1171" on="0"/>
        <pt x="3349" y="1157" on="1"/>
        <pt x="3318" y="1157" on="1"/>
        <pt x="3305" y="1157" on="0"/>
        <pt x="3307" y="1176" on="1"/>
        <pt x="3311" y="1205" on="0"/>
        <pt x="3309" y="1212" on="1"/>
        <pt x="3304" y="1226" on="0"/>
        <pt x="3275" y="1258" on="1"/>
        <pt x="3251" y="1286" on="0"/>
        <pt x="3251" y="1300" on="1"/>
        <pt x="3251" y="1340" on="0"/>
        <pt x="3335" y="1410" on="1"/>
        <pt x="3413" y="1475" on="0"/>
        <pt x="3435" y="1475" on="1"/>
        <pt x="3475" y="1475" on="0"/>
        <pt x="3513" y="1420" on="1"/>
        <pt x="3517" y="1389" on="0"/>
        <pt x="3497" y="1328" on="1"/>
        <pt x="3529" y="1316" on="0"/>
        <pt x="3616" y="1330" on="1"/>
        <pt x="3629" y="1318" on="1"/>
      </contour>
      <contour>
        <pt x="3610" y="159" on="1"/>
        <pt x="3610" y="36" on="0"/>
        <pt x="3530" y="1" on="1"/>
        <pt x="3394" y="942" on="1"/>
        <pt x="3396" y="945" on="0"/>
        <pt x="3416" y="1028" on="1"/>
        <pt x="3430" y="1090" on="0"/>
        <pt x="3459" y="1126" on="1"/>
        <pt x="3478" y="1126" on="0"/>
        <pt x="3493" y="1103" on="1"/>
        <pt x="3522" y="907" on="0"/>
        <pt x="3566" y="541" on="1"/>
        <pt x="3610" y="190" on="0"/>
      </contour>
      <contour>
        <pt x="2985" y="1193" on="1"/>
        <pt x="2985" y="1136" on="0"/>
        <pt x="2819" y="1060" on="1"/>
        <pt x="2674" y="993" on="0"/>
        <pt x="2636" y="993" on="1"/>
        <pt x="2610" y="993" on="0"/>
        <pt x="2586" y="1017" on="1"/>
        <pt x="2598" y="1061" on="0"/>
        <pt x="2655" y="1081" on="1"/>
        <pt x="2724" y="1105" on="0"/>
        <pt x="2750" y="1142" on="1"/>
        <pt x="2741" y="1177" on="0"/>
        <pt x="2693" y="1177" on="1"/>
        <pt x="2678" y="1177" on="0"/>
        <pt x="2629" y="1154" on="1"/>
        <pt x="2558" y="1121" on="0"/>
        <pt x="2546" y="1117" on="1"/>
        <pt x="2546" y="1150" on="1"/>
        <pt x="2545" y="1161" on="0"/>
        <pt x="2654" y="1270" on="0"/>
        <pt x="2671" y="1275" on="1"/>
        <pt x="2683" y="1280" on="0"/>
        <pt x="2718" y="1280" on="1"/>
        <pt x="2730" y="1280" on="0"/>
        <pt x="2824" y="1257" on="1"/>
        <pt x="2927" y="1234" on="0"/>
        <pt x="2972" y="1228" on="1"/>
        <pt x="2985" y="1215" on="0"/>
      </contour>
      <contour>
        <pt x="2391" y="1213" on="1"/>
        <pt x="2391" y="1196" on="0"/>
        <pt x="2356" y="1157" on="0"/>
        <pt x="2340" y="1157" on="1"/>
        <pt x="2327" y="1157" on="0"/>
        <pt x="2256" y="1208" on="0"/>
        <pt x="2242" y="1208" on="1"/>
        <pt x="2232" y="1208" on="0"/>
        <pt x="2120" y="1121" on="1"/>
        <pt x="1989" y="1021" on="0"/>
        <pt x="1948" y="996" on="1"/>
        <pt x="1922" y="990" on="0"/>
        <pt x="1862" y="972" on="1"/>
        <pt x="1839" y="999" on="1"/>
        <pt x="1935" y="1081" on="0"/>
        <pt x="2125" y="1244" on="1"/>
        <pt x="2108" y="1266" on="0"/>
        <pt x="2052" y="1329" on="1"/>
        <pt x="2043" y="1338" on="0"/>
        <pt x="2043" y="1372" on="1"/>
        <pt x="2043" y="1422" on="0"/>
        <pt x="2096" y="1486" on="1"/>
        <pt x="2155" y="1557" on="0"/>
        <pt x="2224" y="1556" on="1"/>
        <pt x="2288" y="1528" on="0"/>
        <pt x="2285" y="1439" on="1"/>
        <pt x="2285" y="1434" on="0"/>
        <pt x="2274" y="1402" on="1"/>
        <pt x="2265" y="1375" on="0"/>
        <pt x="2270" y="1358" on="1"/>
        <pt x="2281" y="1330" on="0"/>
        <pt x="2338" y="1275" on="1"/>
        <pt x="2391" y="1225" on="0"/>
      </contour>
      <contour>
        <pt x="2923" y="-225" on="1"/>
        <pt x="2923" y="-253" on="0"/>
        <pt x="2893" y="-294" on="1"/>
        <pt x="2862" y="-338" on="0"/>
        <pt x="2836" y="-338" on="1"/>
        <pt x="2815" y="-338" on="0"/>
        <pt x="2773" y="-305" on="1"/>
        <pt x="2729" y="-271" on="0"/>
        <pt x="2729" y="-245" on="1"/>
        <pt x="2729" y="-218" on="0"/>
        <pt x="2806" y="-133" on="0"/>
        <pt x="2827" y="-133" on="1"/>
        <pt x="2856" y="-133" on="0"/>
        <pt x="2892" y="-176" on="1"/>
        <pt x="2923" y="-213" on="0"/>
      </contour>
      <contour>
        <pt x="1613" y="1167" on="1"/>
        <pt x="1613" y="1153" on="0"/>
        <pt x="1601" y="1137" on="0"/>
        <pt x="1601" y="1127" on="1"/>
        <pt x="1598" y="1127" on="0"/>
        <pt x="1581" y="1116" on="0"/>
        <pt x="1567" y="1116" on="1"/>
        <pt x="1556" y="1116" on="0"/>
        <pt x="1472" y="1167" on="0"/>
        <pt x="1459" y="1167" on="1"/>
        <pt x="1451" y="1167" on="0"/>
        <pt x="1360" y="1093" on="1"/>
        <pt x="1253" y="1005" on="0"/>
        <pt x="1208" y="976" on="1"/>
        <pt x="1090" y="901" on="0"/>
        <pt x="1064" y="902" on="1"/>
        <pt x="1010" y="902" on="1"/>
        <pt x="1010" y="949" on="1"/>
        <pt x="1098" y="999" on="0"/>
        <pt x="1201" y="1072" on="1"/>
        <pt x="1347" y="1173" on="0"/>
        <pt x="1347" y="1208" on="1"/>
        <pt x="1347" y="1221" on="0"/>
        <pt x="1339" y="1230" on="1"/>
        <pt x="1275" y="1267" on="0"/>
        <pt x="1275" y="1325" on="1"/>
        <pt x="1275" y="1375" on="0"/>
        <pt x="1404" y="1516" on="0"/>
        <pt x="1449" y="1516" on="1"/>
        <pt x="1506" y="1516" on="0"/>
        <pt x="1517" y="1407" on="1"/>
        <pt x="1519" y="1347" on="0"/>
        <pt x="1522" y="1288" on="1"/>
        <pt x="1533" y="1275" on="0"/>
        <pt x="1586" y="1221" on="1"/>
        <pt x="1613" y="1195" on="0"/>
      </contour>
      <contour>
        <pt x="3364" y="276" on="1"/>
        <pt x="3364" y="164" on="0"/>
        <pt x="3164" y="164" on="1"/>
        <pt x="3153" y="164" on="0"/>
        <pt x="3024" y="174" on="0"/>
        <pt x="3011" y="174" on="1"/>
        <pt x="2953" y="174" on="0"/>
        <pt x="2705" y="84" on="1"/>
        <pt x="2605" y="66" on="0"/>
        <pt x="2419" y="16" on="1"/>
        <pt x="2373" y="1" on="0"/>
        <pt x="2339" y="-72" on="1"/>
        <pt x="2289" y="-180" on="0"/>
        <pt x="2280" y="-192" on="1"/>
        <pt x="2261" y="-238" on="0"/>
        <pt x="2201" y="-316" on="1"/>
        <pt x="2066" y="-422" on="0"/>
        <pt x="2053" y="-430" on="1"/>
        <pt x="1996" y="-461" on="0"/>
        <pt x="1880" y="-461" on="1"/>
        <pt x="1792" y="-461" on="0"/>
        <pt x="1698" y="-438" on="1"/>
        <pt x="1581" y="-410" on="0"/>
        <pt x="1541" y="-362" on="1"/>
        <pt x="1576" y="-344" on="0"/>
        <pt x="1646" y="-349" on="1"/>
        <pt x="1778" y="-358" on="0"/>
        <pt x="1762" y="-358" on="1"/>
        <pt x="1872" y="-358" on="0"/>
        <pt x="1923" y="-335" on="1"/>
        <pt x="2013" y="-295" on="0"/>
        <pt x="2135" y="-184" on="1"/>
        <pt x="2268" y="-62" on="0"/>
        <pt x="2268" y="0" on="1"/>
        <pt x="2268" y="12" on="0"/>
        <pt x="2220" y="64" on="1"/>
        <pt x="2217" y="77" on="0"/>
        <pt x="2217" y="102" on="1"/>
        <pt x="2217" y="205" on="0"/>
        <pt x="2274" y="205" on="1"/>
        <pt x="2286" y="205" on="0"/>
        <pt x="2419" y="174" on="0"/>
        <pt x="2432" y="174" on="1"/>
        <pt x="2593" y="174" on="0"/>
        <pt x="2678" y="253" on="1"/>
        <pt x="2678" y="279" on="1"/>
        <pt x="2634" y="307" on="0"/>
        <pt x="2586" y="307" on="1"/>
        <pt x="2573" y="307" on="0"/>
        <pt x="2500" y="287" on="0"/>
        <pt x="2487" y="287" on="1"/>
        <pt x="2363" y="287" on="1"/>
        <pt x="2359" y="297" on="0"/>
        <pt x="2350" y="312" on="1"/>
        <pt x="2381" y="363" on="0"/>
        <pt x="2455" y="446" on="1"/>
        <pt x="2545" y="512" on="0"/>
        <pt x="2601" y="512" on="1"/>
        <pt x="2632" y="512" on="0"/>
        <pt x="2752" y="451" on="1"/>
        <pt x="2884" y="383" on="0"/>
        <pt x="2889" y="381" on="1"/>
        <pt x="2935" y="366" on="0"/>
        <pt x="3022" y="340" on="1"/>
        <pt x="3084" y="323" on="0"/>
        <pt x="3182" y="316" on="1"/>
        <pt x="3266" y="311" on="0"/>
        <pt x="3351" y="306" on="1"/>
        <pt x="3364" y="293" on="0"/>
      </contour>
      <contour>
        <pt x="824" y="1126" on="1"/>
        <pt x="824" y="1074" on="0"/>
        <pt x="640" y="991" on="1"/>
        <pt x="473" y="915" on="0"/>
        <pt x="408" y="911" on="1"/>
        <pt x="395" y="924" on="1"/>
        <pt x="395" y="961" on="1"/>
        <pt x="409" y="972" on="0"/>
        <pt x="559" y="1062" on="1"/>
        <pt x="559" y="1089" on="1"/>
        <pt x="543" y="1106" on="0"/>
        <pt x="512" y="1106" on="1"/>
        <pt x="499" y="1106" on="0"/>
        <pt x="455" y="1072" on="1"/>
        <pt x="403" y="1034" on="0"/>
        <pt x="378" y="1024" on="1"/>
        <pt x="364" y="1038" on="0"/>
        <pt x="364" y="1054" on="1"/>
        <pt x="364" y="1099" on="0"/>
        <pt x="488" y="1208" on="0"/>
        <pt x="533" y="1208" on="1"/>
        <pt x="543" y="1208" on="0"/>
        <pt x="647" y="1186" on="1"/>
        <pt x="761" y="1162" on="0"/>
        <pt x="811" y="1156" on="1"/>
        <pt x="824" y="1143" on="0"/>
      </contour>
      <contour>
        <pt x="1889" y="246" on="1"/>
        <pt x="1889" y="171" on="0"/>
        <pt x="1859" y="97" on="1"/>
        <pt x="1819" y="0" on="0"/>
        <pt x="1751" y="0" on="1"/>
        <pt x="1739" y="0" on="0"/>
        <pt x="1488" y="61" on="0"/>
        <pt x="1475" y="61" on="1"/>
        <pt x="1466" y="61" on="0"/>
        <pt x="1174" y="-10" on="0"/>
        <pt x="1163" y="-10" on="1"/>
        <pt x="1160" y="-10" on="0"/>
        <pt x="888" y="0" on="0"/>
        <pt x="821" y="0" on="1"/>
        <pt x="786" y="-26" on="0"/>
        <pt x="776" y="-96" on="1"/>
        <pt x="765" y="-172" on="0"/>
        <pt x="747" y="-190" on="1"/>
        <pt x="742" y="-197" on="0"/>
        <pt x="737" y="-203" on="1"/>
        <pt x="728" y="-215" on="0"/>
        <pt x="712" y="-215" on="1"/>
        <pt x="652" y="-215" on="0"/>
        <pt x="600" y="-142" on="1"/>
        <pt x="556" y="-82" on="0"/>
        <pt x="551" y="-36" on="1"/>
        <pt x="555" y="9" on="0"/>
        <pt x="555" y="96" on="1"/>
        <pt x="548" y="106" on="0"/>
        <pt x="531" y="123" on="1"/>
        <pt x="417" y="111" on="0"/>
        <pt x="376" y="93" on="1"/>
        <pt x="303" y="61" on="0"/>
        <pt x="303" y="-20" on="1"/>
        <pt x="303" y="-33" on="0"/>
        <pt x="364" y="-652" on="0"/>
        <pt x="364" y="-666" on="1"/>
        <pt x="364" y="-692" on="0"/>
        <pt x="345" y="-747" on="1"/>
        <pt x="325" y="-806" on="0"/>
        <pt x="307" y="-819" on="1"/>
        <pt x="294" y="-801" on="0"/>
        <pt x="275" y="-774" on="1"/>
        <pt x="210" y="-208" on="0"/>
        <pt x="210" y="-81" on="1"/>
        <pt x="210" y="55" on="0"/>
        <pt x="285" y="155" on="1"/>
        <pt x="375" y="274" on="0"/>
        <pt x="543" y="289" on="1"/>
        <pt x="557" y="290" on="0"/>
        <pt x="607" y="338" on="0"/>
        <pt x="620" y="338" on="1"/>
        <pt x="625" y="338" on="0"/>
        <pt x="702" y="265" on="1"/>
        <pt x="782" y="188" on="0"/>
        <pt x="831" y="176" on="1"/>
        <pt x="924" y="153" on="0"/>
        <pt x="1065" y="153" on="1"/>
        <pt x="1063" y="153" on="0"/>
        <pt x="1128" y="151" on="1"/>
        <pt x="1173" y="148" on="0"/>
        <pt x="1200" y="152" on="1"/>
        <pt x="1239" y="157" on="0"/>
        <pt x="1273" y="193" on="0"/>
        <pt x="1308" y="286" on="1"/>
        <pt x="1351" y="403" on="0"/>
        <pt x="1374" y="447" on="1"/>
        <pt x="1379" y="457" on="0"/>
        <pt x="1379" y="466" on="1"/>
        <pt x="1379" y="479" on="0"/>
        <pt x="1350" y="515" on="0"/>
        <pt x="1350" y="524" on="1"/>
        <pt x="1349" y="569" on="0"/>
        <pt x="1371" y="626" on="1"/>
        <pt x="1399" y="696" on="0"/>
        <pt x="1439" y="696" on="1"/>
        <pt x="1461" y="696" on="0"/>
        <pt x="1643" y="560" on="1"/>
        <pt x="1821" y="427" on="0"/>
        <pt x="1843" y="397" on="1"/>
        <pt x="1889" y="337" on="0"/>
      </contour>
      <contour>
        <pt x="2206" y="1373" on="1"/>
        <pt x="2206" y="1413" on="1"/>
        <pt x="2206" y="1429" on="0"/>
        <pt x="2201" y="1432" on="1"/>
        <pt x="2198" y="1434" on="0"/>
        <pt x="2194" y="1432" on="1"/>
        <pt x="2158" y="1432" on="1"/>
        <pt x="2146" y="1396" on="1"/>
        <pt x="2169" y="1373" on="1"/>
      </contour>
      <contour>
        <pt x="1449" y="1345" on="1"/>
        <pt x="1426" y="1392" on="0"/>
        <pt x="1401" y="1392" on="1"/>
        <pt x="1377" y="1366" on="1"/>
        <pt x="1412" y="1331" on="1"/>
        <pt x="1435" y="1331" on="0"/>
      </contour>
      <contour>
        <pt x="1786" y="197" on="1"/>
        <pt x="1780" y="221" on="0"/>
        <pt x="1696" y="327" on="0"/>
        <pt x="1678" y="327" on="1"/>
        <pt x="1635" y="327" on="1"/>
        <pt x="1637" y="274" on="0"/>
        <pt x="1624" y="228" on="1"/>
        <pt x="1714" y="184" on="0"/>
        <pt x="1751" y="184" on="1"/>
        <pt x="1766" y="184" on="0"/>
        <pt x="1783" y="197" on="0"/>
      </contour>
      <contour>
        <pt x="1541" y="282" on="1"/>
        <pt x="1519" y="369" on="0"/>
        <pt x="1480" y="369" on="1"/>
        <pt x="1457" y="369" on="0"/>
        <pt x="1431" y="335" on="1"/>
        <pt x="1408" y="305" on="0"/>
        <pt x="1408" y="287" on="1"/>
        <pt x="1408" y="225" on="0"/>
        <pt x="1490" y="225" on="1"/>
        <pt x="1508" y="225" on="0"/>
        <pt x="1541" y="262" on="0"/>
      </contour>
    </TTGlyph>
    <TTGlyph name="uni2011" xMin="210" yMin="-819" xMax="3629" yMax="1812">
      <contour>
        <pt x="3598" y="1765" on="1"/>
        <pt x="3599" y="1734" on="0"/>
        <pt x="3502" y="1678" on="1"/>
        <pt x="3452" y="1652" on="0"/>
        <pt x="3402" y="1624" on="1"/>
        <pt x="3302" y="1570" on="0"/>
        <pt x="3112" y="1464" on="1"/>
        <pt x="3098" y="1466" on="0"/>
        <pt x="3098" y="1489" on="1"/>
        <pt x="3098" y="1558" on="0"/>
        <pt x="3325" y="1670" on="1"/>
        <pt x="3409" y="1721" on="0"/>
        <pt x="3574" y="1812" on="1"/>
        <pt x="3588" y="1801" on="0"/>
        <pt x="3598" y="1801" on="1"/>
      </contour>
      <contour>
        <pt x="3629" y="1271" on="1"/>
        <pt x="3577" y="1242" on="0"/>
        <pt x="3489" y="1210" on="1"/>
        <pt x="3382" y="1171" on="0"/>
        <pt x="3349" y="1157" on="1"/>
        <pt x="3318" y="1157" on="1"/>
        <pt x="3305" y="1157" on="0"/>
        <pt x="3307" y="1176" on="1"/>
        <pt x="3311" y="1205" on="0"/>
        <pt x="3309" y="1212" on="1"/>
        <pt x="3304" y="1226" on="0"/>
        <pt x="3275" y="1258" on="1"/>
        <pt x="3251" y="1286" on="0"/>
        <pt x="3251" y="1300" on="1"/>
        <pt x="3251" y="1340" on="0"/>
        <pt x="3335" y="1410" on="1"/>
        <pt x="3413" y="1475" on="0"/>
        <pt x="3435" y="1475" on="1"/>
        <pt x="3475" y="1475" on="0"/>
        <pt x="3513" y="1420" on="1"/>
        <pt x="3517" y="1389" on="0"/>
        <pt x="3497" y="1328" on="1"/>
        <pt x="3529" y="1316" on="0"/>
        <pt x="3616" y="1330" on="1"/>
        <pt x="3629" y="1318" on="1"/>
      </contour>
      <contour>
        <pt x="3610" y="159" on="1"/>
        <pt x="3610" y="36" on="0"/>
        <pt x="3530" y="1" on="1"/>
        <pt x="3394" y="942" on="1"/>
        <pt x="3396" y="945" on="0"/>
        <pt x="3416" y="1028" on="1"/>
        <pt x="3430" y="1090" on="0"/>
        <pt x="3459" y="1126" on="1"/>
        <pt x="3478" y="1126" on="0"/>
        <pt x="3493" y="1103" on="1"/>
        <pt x="3522" y="907" on="0"/>
        <pt x="3566" y="541" on="1"/>
        <pt x="3610" y="190" on="0"/>
      </contour>
      <contour>
        <pt x="2985" y="1193" on="1"/>
        <pt x="2985" y="1136" on="0"/>
        <pt x="2819" y="1060" on="1"/>
        <pt x="2674" y="993" on="0"/>
        <pt x="2636" y="993" on="1"/>
        <pt x="2610" y="993" on="0"/>
        <pt x="2586" y="1017" on="1"/>
        <pt x="2598" y="1061" on="0"/>
        <pt x="2655" y="1081" on="1"/>
        <pt x="2724" y="1105" on="0"/>
        <pt x="2750" y="1142" on="1"/>
        <pt x="2741" y="1177" on="0"/>
        <pt x="2693" y="1177" on="1"/>
        <pt x="2678" y="1177" on="0"/>
        <pt x="2629" y="1154" on="1"/>
        <pt x="2558" y="1121" on="0"/>
        <pt x="2546" y="1117" on="1"/>
        <pt x="2546" y="1150" on="1"/>
        <pt x="2545" y="1161" on="0"/>
        <pt x="2654" y="1270" on="0"/>
        <pt x="2671" y="1275" on="1"/>
        <pt x="2683" y="1280" on="0"/>
        <pt x="2718" y="1280" on="1"/>
        <pt x="2730" y="1280" on="0"/>
        <pt x="2824" y="1257" on="1"/>
        <pt x="2927" y="1234" on="0"/>
        <pt x="2972" y="1228" on="1"/>
        <pt x="2985" y="1215" on="0"/>
      </contour>
      <contour>
        <pt x="2391" y="1213" on="1"/>
        <pt x="2391" y="1196" on="0"/>
        <pt x="2356" y="1157" on="0"/>
        <pt x="2340" y="1157" on="1"/>
        <pt x="2327" y="1157" on="0"/>
        <pt x="2256" y="1208" on="0"/>
        <pt x="2242" y="1208" on="1"/>
        <pt x="2232" y="1208" on="0"/>
        <pt x="2120" y="1121" on="1"/>
        <pt x="1989" y="1021" on="0"/>
        <pt x="1948" y="996" on="1"/>
        <pt x="1922" y="990" on="0"/>
        <pt x="1862" y="972" on="1"/>
        <pt x="1839" y="999" on="1"/>
        <pt x="1935" y="1081" on="0"/>
        <pt x="2125" y="1244" on="1"/>
        <pt x="2108" y="1266" on="0"/>
        <pt x="2052" y="1329" on="1"/>
        <pt x="2043" y="1338" on="0"/>
        <pt x="2043" y="1372" on="1"/>
        <pt x="2043" y="1422" on="0"/>
        <pt x="2096" y="1486" on="1"/>
        <pt x="2155" y="1557" on="0"/>
        <pt x="2224" y="1556" on="1"/>
        <pt x="2288" y="1528" on="0"/>
        <pt x="2285" y="1439" on="1"/>
        <pt x="2285" y="1434" on="0"/>
        <pt x="2274" y="1402" on="1"/>
        <pt x="2265" y="1375" on="0"/>
        <pt x="2270" y="1358" on="1"/>
        <pt x="2281" y="1330" on="0"/>
        <pt x="2338" y="1275" on="1"/>
        <pt x="2391" y="1225" on="0"/>
      </contour>
      <contour>
        <pt x="2923" y="-225" on="1"/>
        <pt x="2923" y="-253" on="0"/>
        <pt x="2893" y="-294" on="1"/>
        <pt x="2862" y="-338" on="0"/>
        <pt x="2836" y="-338" on="1"/>
        <pt x="2815" y="-338" on="0"/>
        <pt x="2773" y="-305" on="1"/>
        <pt x="2729" y="-271" on="0"/>
        <pt x="2729" y="-245" on="1"/>
        <pt x="2729" y="-218" on="0"/>
        <pt x="2806" y="-133" on="0"/>
        <pt x="2827" y="-133" on="1"/>
        <pt x="2856" y="-133" on="0"/>
        <pt x="2892" y="-176" on="1"/>
        <pt x="2923" y="-213" on="0"/>
      </contour>
      <contour>
        <pt x="1613" y="1167" on="1"/>
        <pt x="1613" y="1153" on="0"/>
        <pt x="1601" y="1137" on="0"/>
        <pt x="1601" y="1127" on="1"/>
        <pt x="1598" y="1127" on="0"/>
        <pt x="1581" y="1116" on="0"/>
        <pt x="1567" y="1116" on="1"/>
        <pt x="1556" y="1116" on="0"/>
        <pt x="1472" y="1167" on="0"/>
        <pt x="1459" y="1167" on="1"/>
        <pt x="1451" y="1167" on="0"/>
        <pt x="1360" y="1093" on="1"/>
        <pt x="1253" y="1005" on="0"/>
        <pt x="1208" y="976" on="1"/>
        <pt x="1090" y="901" on="0"/>
        <pt x="1064" y="902" on="1"/>
        <pt x="1010" y="902" on="1"/>
        <pt x="1010" y="949" on="1"/>
        <pt x="1098" y="999" on="0"/>
        <pt x="1201" y="1072" on="1"/>
        <pt x="1347" y="1173" on="0"/>
        <pt x="1347" y="1208" on="1"/>
        <pt x="1347" y="1221" on="0"/>
        <pt x="1339" y="1230" on="1"/>
        <pt x="1275" y="1267" on="0"/>
        <pt x="1275" y="1325" on="1"/>
        <pt x="1275" y="1375" on="0"/>
        <pt x="1404" y="1516" on="0"/>
        <pt x="1449" y="1516" on="1"/>
        <pt x="1506" y="1516" on="0"/>
        <pt x="1517" y="1407" on="1"/>
        <pt x="1519" y="1347" on="0"/>
        <pt x="1522" y="1288" on="1"/>
        <pt x="1533" y="1275" on="0"/>
        <pt x="1586" y="1221" on="1"/>
        <pt x="1613" y="1195" on="0"/>
      </contour>
      <contour>
        <pt x="3364" y="276" on="1"/>
        <pt x="3364" y="164" on="0"/>
        <pt x="3164" y="164" on="1"/>
        <pt x="3153" y="164" on="0"/>
        <pt x="3024" y="174" on="0"/>
        <pt x="3011" y="174" on="1"/>
        <pt x="2953" y="174" on="0"/>
        <pt x="2705" y="84" on="1"/>
        <pt x="2605" y="66" on="0"/>
        <pt x="2419" y="16" on="1"/>
        <pt x="2373" y="1" on="0"/>
        <pt x="2339" y="-72" on="1"/>
        <pt x="2289" y="-180" on="0"/>
        <pt x="2280" y="-192" on="1"/>
        <pt x="2261" y="-238" on="0"/>
        <pt x="2201" y="-316" on="1"/>
        <pt x="2066" y="-422" on="0"/>
        <pt x="2053" y="-430" on="1"/>
        <pt x="1996" y="-461" on="0"/>
        <pt x="1880" y="-461" on="1"/>
        <pt x="1792" y="-461" on="0"/>
        <pt x="1698" y="-438" on="1"/>
        <pt x="1581" y="-410" on="0"/>
        <pt x="1541" y="-362" on="1"/>
        <pt x="1576" y="-344" on="0"/>
        <pt x="1646" y="-349" on="1"/>
        <pt x="1778" y="-358" on="0"/>
        <pt x="1762" y="-358" on="1"/>
        <pt x="1872" y="-358" on="0"/>
        <pt x="1923" y="-335" on="1"/>
        <pt x="2013" y="-295" on="0"/>
        <pt x="2135" y="-184" on="1"/>
        <pt x="2268" y="-62" on="0"/>
        <pt x="2268" y="0" on="1"/>
        <pt x="2268" y="12" on="0"/>
        <pt x="2220" y="64" on="1"/>
        <pt x="2217" y="77" on="0"/>
        <pt x="2217" y="102" on="1"/>
        <pt x="2217" y="205" on="0"/>
        <pt x="2274" y="205" on="1"/>
        <pt x="2286" y="205" on="0"/>
        <pt x="2419" y="174" on="0"/>
        <pt x="2432" y="174" on="1"/>
        <pt x="2593" y="174" on="0"/>
        <pt x="2678" y="253" on="1"/>
        <pt x="2678" y="279" on="1"/>
        <pt x="2634" y="307" on="0"/>
        <pt x="2586" y="307" on="1"/>
        <pt x="2573" y="307" on="0"/>
        <pt x="2500" y="287" on="0"/>
        <pt x="2487" y="287" on="1"/>
        <pt x="2363" y="287" on="1"/>
        <pt x="2359" y="297" on="0"/>
        <pt x="2350" y="312" on="1"/>
        <pt x="2381" y="363" on="0"/>
        <pt x="2455" y="446" on="1"/>
        <pt x="2545" y="512" on="0"/>
        <pt x="2601" y="512" on="1"/>
        <pt x="2632" y="512" on="0"/>
        <pt x="2752" y="451" on="1"/>
        <pt x="2884" y="383" on="0"/>
        <pt x="2889" y="381" on="1"/>
        <pt x="2935" y="366" on="0"/>
        <pt x="3022" y="340" on="1"/>
        <pt x="3084" y="323" on="0"/>
        <pt x="3182" y="316" on="1"/>
        <pt x="3266" y="311" on="0"/>
        <pt x="3351" y="306" on="1"/>
        <pt x="3364" y="293" on="0"/>
      </contour>
      <contour>
        <pt x="824" y="1126" on="1"/>
        <pt x="824" y="1074" on="0"/>
        <pt x="640" y="991" on="1"/>
        <pt x="473" y="915" on="0"/>
        <pt x="408" y="911" on="1"/>
        <pt x="395" y="924" on="1"/>
        <pt x="395" y="961" on="1"/>
        <pt x="409" y="972" on="0"/>
        <pt x="559" y="1062" on="1"/>
        <pt x="559" y="1089" on="1"/>
        <pt x="543" y="1106" on="0"/>
        <pt x="512" y="1106" on="1"/>
        <pt x="499" y="1106" on="0"/>
        <pt x="455" y="1072" on="1"/>
        <pt x="403" y="1034" on="0"/>
        <pt x="378" y="1024" on="1"/>
        <pt x="364" y="1038" on="0"/>
        <pt x="364" y="1054" on="1"/>
        <pt x="364" y="1099" on="0"/>
        <pt x="488" y="1208" on="0"/>
        <pt x="533" y="1208" on="1"/>
        <pt x="543" y="1208" on="0"/>
        <pt x="647" y="1186" on="1"/>
        <pt x="761" y="1162" on="0"/>
        <pt x="811" y="1156" on="1"/>
        <pt x="824" y="1143" on="0"/>
      </contour>
      <contour>
        <pt x="1889" y="246" on="1"/>
        <pt x="1889" y="171" on="0"/>
        <pt x="1859" y="97" on="1"/>
        <pt x="1819" y="0" on="0"/>
        <pt x="1751" y="0" on="1"/>
        <pt x="1739" y="0" on="0"/>
        <pt x="1488" y="61" on="0"/>
        <pt x="1475" y="61" on="1"/>
        <pt x="1466" y="61" on="0"/>
        <pt x="1174" y="-10" on="0"/>
        <pt x="1163" y="-10" on="1"/>
        <pt x="1160" y="-10" on="0"/>
        <pt x="888" y="0" on="0"/>
        <pt x="821" y="0" on="1"/>
        <pt x="786" y="-26" on="0"/>
        <pt x="776" y="-96" on="1"/>
        <pt x="765" y="-172" on="0"/>
        <pt x="747" y="-190" on="1"/>
        <pt x="742" y="-197" on="0"/>
        <pt x="737" y="-203" on="1"/>
        <pt x="728" y="-215" on="0"/>
        <pt x="712" y="-215" on="1"/>
        <pt x="652" y="-215" on="0"/>
        <pt x="600" y="-142" on="1"/>
        <pt x="556" y="-82" on="0"/>
        <pt x="551" y="-36" on="1"/>
        <pt x="555" y="9" on="0"/>
        <pt x="555" y="96" on="1"/>
        <pt x="548" y="106" on="0"/>
        <pt x="531" y="123" on="1"/>
        <pt x="417" y="111" on="0"/>
        <pt x="376" y="93" on="1"/>
        <pt x="303" y="61" on="0"/>
        <pt x="303" y="-20" on="1"/>
        <pt x="303" y="-33" on="0"/>
        <pt x="364" y="-652" on="0"/>
        <pt x="364" y="-666" on="1"/>
        <pt x="364" y="-692" on="0"/>
        <pt x="345" y="-747" on="1"/>
        <pt x="325" y="-806" on="0"/>
        <pt x="307" y="-819" on="1"/>
        <pt x="294" y="-801" on="0"/>
        <pt x="275" y="-774" on="1"/>
        <pt x="210" y="-208" on="0"/>
        <pt x="210" y="-81" on="1"/>
        <pt x="210" y="55" on="0"/>
        <pt x="285" y="155" on="1"/>
        <pt x="375" y="274" on="0"/>
        <pt x="543" y="289" on="1"/>
        <pt x="557" y="290" on="0"/>
        <pt x="607" y="338" on="0"/>
        <pt x="620" y="338" on="1"/>
        <pt x="625" y="338" on="0"/>
        <pt x="702" y="265" on="1"/>
        <pt x="782" y="188" on="0"/>
        <pt x="831" y="176" on="1"/>
        <pt x="924" y="153" on="0"/>
        <pt x="1065" y="153" on="1"/>
        <pt x="1063" y="153" on="0"/>
        <pt x="1128" y="151" on="1"/>
        <pt x="1173" y="148" on="0"/>
        <pt x="1200" y="152" on="1"/>
        <pt x="1239" y="157" on="0"/>
        <pt x="1273" y="193" on="0"/>
        <pt x="1308" y="286" on="1"/>
        <pt x="1351" y="403" on="0"/>
        <pt x="1374" y="447" on="1"/>
        <pt x="1379" y="457" on="0"/>
        <pt x="1379" y="466" on="1"/>
        <pt x="1379" y="479" on="0"/>
        <pt x="1350" y="515" on="0"/>
        <pt x="1350" y="524" on="1"/>
        <pt x="1349" y="569" on="0"/>
        <pt x="1371" y="626" on="1"/>
        <pt x="1399" y="696" on="0"/>
        <pt x="1439" y="696" on="1"/>
        <pt x="1461" y="696" on="0"/>
        <pt x="1643" y="560" on="1"/>
        <pt x="1821" y="427" on="0"/>
        <pt x="1843" y="397" on="1"/>
        <pt x="1889" y="337" on="0"/>
      </contour>
      <contour>
        <pt x="2206" y="1373" on="1"/>
        <pt x="2206" y="1413" on="1"/>
        <pt x="2206" y="1429" on="0"/>
        <pt x="2201" y="1432" on="1"/>
        <pt x="2198" y="1434" on="0"/>
        <pt x="2194" y="1432" on="1"/>
        <pt x="2158" y="1432" on="1"/>
        <pt x="2146" y="1396" on="1"/>
        <pt x="2169" y="1373" on="1"/>
      </contour>
      <contour>
        <pt x="1449" y="1345" on="1"/>
        <pt x="1426" y="1392" on="0"/>
        <pt x="1401" y="1392" on="1"/>
        <pt x="1377" y="1366" on="1"/>
        <pt x="1412" y="1331" on="1"/>
        <pt x="1435" y="1331" on="0"/>
      </contour>
      <contour>
        <pt x="1786" y="197" on="1"/>
        <pt x="1780" y="221" on="0"/>
        <pt x="1696" y="327" on="0"/>
        <pt x="1678" y="327" on="1"/>
        <pt x="1635" y="327" on="1"/>
        <pt x="1637" y="274" on="0"/>
        <pt x="1624" y="228" on="1"/>
        <pt x="1714" y="184" on="0"/>
        <pt x="1751" y="184" on="1"/>
        <pt x="1766" y="184" on="0"/>
        <pt x="1783" y="197" on="0"/>
      </contour>
      <contour>
        <pt x="1541" y="282" on="1"/>
        <pt x="1519" y="369" on="0"/>
        <pt x="1480" y="369" on="1"/>
        <pt x="1457" y="369" on="0"/>
        <pt x="1431" y="335" on="1"/>
        <pt x="1408" y="305" on="0"/>
        <pt x="1408" y="287" on="1"/>
        <pt x="1408" y="225" on="0"/>
        <pt x="1490" y="225" on="1"/>
        <pt x="1508" y="225" on="0"/>
        <pt x="1541" y="262" on="0"/>
      </contour>
    </TTGlyph>
    <TTGlyph name="uniE000" xMin="0" yMin="0" xMax="1640" yMax="1640">
      <contour>
        <pt x="0" y="1640" on="1"/>
        <pt x="1640" y="1640" on="1"/>
        <pt x="1640" y="0" on="1"/>
        <pt x="0" y="0" on="1"/>
      </contour>
    </TTGlyph>
    <TTGlyph name="uniFB51" xMin="204" yMin="-530" xMax="3480" yMax="1906">
      <contour>
        <pt x="3480" y="1292" on="1"/>
        <pt x="3480" y="1265" on="0"/>
        <pt x="3397" y="1203" on="1"/>
        <pt x="3333" y="1155" on="0"/>
        <pt x="3293" y="1135" on="1"/>
        <pt x="3206" y="1085" on="0"/>
        <pt x="3026" y="985" on="1"/>
        <pt x="3016" y="984" on="0"/>
        <pt x="2988" y="1010" on="0"/>
        <pt x="2988" y="1026" on="1"/>
        <pt x="2988" y="1068" on="0"/>
        <pt x="3014" y="1083" on="1"/>
        <pt x="3151" y="1157" on="0"/>
        <pt x="3432" y="1322" on="1"/>
        <pt x="3467" y="1322" on="1"/>
        <pt x="3480" y="1309" on="0"/>
      </contour>
      <contour>
        <pt x="2897" y="1476" on="1"/>
        <pt x="2897" y="1404" on="0"/>
        <pt x="2796" y="1330" on="1"/>
        <pt x="2704" y="1262" on="0"/>
        <pt x="2640" y="1262" on="1"/>
        <pt x="2630" y="1262" on="0"/>
        <pt x="2597" y="1271" on="0"/>
        <pt x="2584" y="1271" on="1"/>
        <pt x="2570" y="1271" on="0"/>
        <pt x="2478" y="1242" on="1"/>
        <pt x="2478" y="1296" on="1"/>
        <pt x="2476" y="1321" on="0"/>
        <pt x="2540" y="1369" on="1"/>
        <pt x="2568" y="1376" on="0"/>
        <pt x="2612" y="1396" on="1"/>
        <pt x="2637" y="1417" on="0"/>
        <pt x="2674" y="1468" on="1"/>
        <pt x="2716" y="1524" on="0"/>
        <pt x="2735" y="1543" on="1"/>
        <pt x="2760" y="1569" on="0"/>
        <pt x="2789" y="1569" on="1"/>
        <pt x="2812" y="1569" on="0"/>
        <pt x="2897" y="1501" on="0"/>
      </contour>
      <contour>
        <pt x="2313" y="1846" on="1"/>
        <pt x="2130" y="1716" on="0"/>
        <pt x="1868" y="1571" on="1"/>
        <pt x="1860" y="1572" on="0"/>
        <pt x="1832" y="1588" on="1"/>
        <pt x="1835" y="1612" on="0"/>
        <pt x="1857" y="1649" on="1"/>
        <pt x="2018" y="1766" on="0"/>
        <pt x="2298" y="1906" on="1"/>
        <pt x="2313" y="1894" on="1"/>
      </contour>
      <contour>
        <pt x="2292" y="1512" on="1"/>
        <pt x="2292" y="1492" on="0"/>
        <pt x="2268" y="1444" on="1"/>
        <pt x="2241" y="1391" on="0"/>
        <pt x="2209" y="1357" on="1"/>
        <pt x="2180" y="1352" on="0"/>
        <pt x="2136" y="1339" on="1"/>
        <pt x="2131" y="1338" on="0"/>
        <pt x="2078" y="1311" on="1"/>
        <pt x="2041" y="1292" on="0"/>
        <pt x="2026" y="1292" on="1"/>
        <pt x="2000" y="1292" on="0"/>
        <pt x="1975" y="1325" on="1"/>
        <pt x="1955" y="1353" on="0"/>
        <pt x="1955" y="1369" on="1"/>
        <pt x="1955" y="1436" on="0"/>
        <pt x="2015" y="1497" on="1"/>
        <pt x="2037" y="1484" on="0"/>
        <pt x="2035" y="1434" on="1"/>
        <pt x="2038" y="1434" on="0"/>
        <pt x="2047" y="1425" on="0"/>
        <pt x="2062" y="1425" on="1"/>
        <pt x="2076" y="1425" on="0"/>
        <pt x="2108" y="1470" on="1"/>
        <pt x="2147" y="1524" on="0"/>
        <pt x="2165" y="1538" on="1"/>
        <pt x="2176" y="1512" on="0"/>
        <pt x="2196" y="1466" on="1"/>
        <pt x="2210" y="1480" on="0"/>
        <pt x="2245" y="1556" on="0"/>
        <pt x="2268" y="1579" on="1"/>
        <pt x="2292" y="1529" on="0"/>
      </contour>
      <contour>
        <pt x="2733" y="222" on="1"/>
        <pt x="2733" y="124" on="0"/>
        <pt x="2689" y="65" on="1"/>
        <pt x="2652" y="65" on="1"/>
        <pt x="2538" y="1000" on="1"/>
        <pt x="2538" y="1052" on="0"/>
        <pt x="2543" y="1067" on="1"/>
        <pt x="2554" y="1108" on="0"/>
        <pt x="2604" y="1159" on="1"/>
        <pt x="2617" y="1147" on="0"/>
        <pt x="2636" y="1125" on="1"/>
        <pt x="2671" y="899" on="0"/>
        <pt x="2684" y="642" on="1"/>
        <pt x="2694" y="628" on="0"/>
        <pt x="2708" y="591" on="1"/>
        <pt x="2733" y="395" on="0"/>
      </contour>
      <contour>
        <pt x="3460" y="120" on="1"/>
        <pt x="3460" y="-29" on="0"/>
        <pt x="3358" y="-199" on="1"/>
        <pt x="3263" y="-354" on="0"/>
        <pt x="3150" y="-425" on="1"/>
        <pt x="3095" y="-458" on="0"/>
        <pt x="2993" y="-458" on="1"/>
        <pt x="2981" y="-458" on="0"/>
        <pt x="2853" y="-469" on="0"/>
        <pt x="2840" y="-469" on="1"/>
        <pt x="2801" y="-469" on="0"/>
        <pt x="2610" y="-414" on="1"/>
        <pt x="2639" y="-367" on="0"/>
        <pt x="2676" y="-367" on="1"/>
        <pt x="2688" y="-367" on="0"/>
        <pt x="2736" y="-376" on="0"/>
        <pt x="2748" y="-376" on="1"/>
        <pt x="2906" y="-376" on="0"/>
        <pt x="3054" y="-299" on="1"/>
        <pt x="3228" y="-208" on="0"/>
        <pt x="3306" y="-44" on="1"/>
        <pt x="3293" y="-12" on="0"/>
        <pt x="3260" y="-12" on="1"/>
        <pt x="3252" y="-12" on="0"/>
        <pt x="3218" y="-18" on="0"/>
        <pt x="3210" y="-18" on="1"/>
        <pt x="3169" y="-18" on="0"/>
        <pt x="3129" y="47" on="1"/>
        <pt x="3091" y="106" on="0"/>
        <pt x="3091" y="151" on="1"/>
        <pt x="3091" y="212" on="0"/>
        <pt x="3141" y="298" on="1"/>
        <pt x="3201" y="401" on="0"/>
        <pt x="3275" y="401" on="1"/>
        <pt x="3359" y="401" on="0"/>
        <pt x="3416" y="277" on="1"/>
        <pt x="3460" y="183" on="0"/>
      </contour>
      <contour>
        <pt x="1832" y="1005" on="1"/>
        <pt x="1832" y="966" on="0"/>
        <pt x="1750" y="903" on="1"/>
        <pt x="1733" y="903" on="0"/>
        <pt x="1638" y="966" on="1"/>
        <pt x="1633" y="974" on="0"/>
        <pt x="1664" y="1034" on="1"/>
        <pt x="1697" y="1098" on="0"/>
        <pt x="1724" y="1098" on="1"/>
        <pt x="1756" y="1098" on="0"/>
        <pt x="1796" y="1057" on="1"/>
        <pt x="1832" y="1020" on="0"/>
      </contour>
      <contour>
        <pt x="2333" y="247" on="1"/>
        <pt x="2317" y="166" on="0"/>
        <pt x="2300" y="85" on="1"/>
        <pt x="2278" y="-15" on="0"/>
        <pt x="2249" y="-36" on="1"/>
        <pt x="2219" y="-49" on="0"/>
        <pt x="2155" y="-49" on="1"/>
        <pt x="2061" y="-49" on="0"/>
        <pt x="2016" y="-15" on="1"/>
        <pt x="1992" y="2" on="0"/>
        <pt x="1878" y="135" on="1"/>
        <pt x="1761" y="43" on="0"/>
        <pt x="1665" y="11" on="1"/>
        <pt x="1575" y="-18" on="0"/>
        <pt x="1427" y="-18" on="1"/>
        <pt x="1357" y="-18" on="0"/>
        <pt x="1280" y="34" on="1"/>
        <pt x="1280" y="64" on="0"/>
        <pt x="1306" y="118" on="1"/>
        <pt x="1334" y="176" on="0"/>
        <pt x="1356" y="176" on="1"/>
        <pt x="1368" y="176" on="0"/>
        <pt x="1381" y="165" on="1"/>
        <pt x="1398" y="151" on="0"/>
        <pt x="1408" y="147" on="1"/>
        <pt x="1415" y="145" on="0"/>
        <pt x="1493" y="145" on="1"/>
        <pt x="1603" y="145" on="0"/>
        <pt x="1706" y="180" on="1"/>
        <pt x="1842" y="226" on="0"/>
        <pt x="1842" y="309" on="1"/>
        <pt x="1842" y="322" on="0"/>
        <pt x="1791" y="583" on="0"/>
        <pt x="1791" y="596" on="1"/>
        <pt x="1791" y="688" on="0"/>
        <pt x="1834" y="759" on="1"/>
        <pt x="1842" y="759" on="0"/>
        <pt x="1867" y="727" on="0"/>
        <pt x="1869" y="714" on="1"/>
        <pt x="1876" y="668" on="0"/>
        <pt x="1889" y="581" on="1"/>
        <pt x="1898" y="519" on="0"/>
        <pt x="1905" y="479" on="1"/>
        <pt x="1976" y="115" on="0"/>
        <pt x="2175" y="115" on="1"/>
        <pt x="2194" y="115" on="0"/>
        <pt x="2216" y="126" on="1"/>
        <pt x="2241" y="139" on="0"/>
        <pt x="2241" y="156" on="1"/>
        <pt x="2241" y="121" on="0"/>
        <pt x="2203" y="365" on="1"/>
        <pt x="2181" y="544" on="0"/>
        <pt x="2135" y="908" on="1"/>
        <pt x="2133" y="922" on="0"/>
        <pt x="2115" y="963" on="1"/>
        <pt x="2098" y="1002" on="0"/>
        <pt x="2098" y="1016" on="1"/>
        <pt x="2098" y="1063" on="0"/>
        <pt x="2155" y="1212" on="0"/>
        <pt x="2183" y="1240" on="1"/>
        <pt x="2218" y="1240" on="1"/>
        <pt x="2229" y="1219" on="0"/>
        <pt x="2229" y="1194" on="1"/>
        <pt x="2229" y="1182" on="0"/>
        <pt x="2223" y="1140" on="0"/>
        <pt x="2223" y="1130" on="1"/>
        <pt x="2223" y="1080" on="0"/>
        <pt x="2291" y="1045" on="1"/>
        <pt x="2291" y="1013" on="0"/>
        <pt x="2275" y="958" on="1"/>
        <pt x="2255" y="889" on="0"/>
        <pt x="2251" y="867" on="1"/>
      </contour>
      <contour>
        <pt x="839" y="1522" on="1"/>
        <pt x="839" y="1484" on="0"/>
        <pt x="811" y="1469" on="1"/>
        <pt x="664" y="1385" on="0"/>
        <pt x="361" y="1221" on="1"/>
        <pt x="347" y="1235" on="0"/>
        <pt x="347" y="1251" on="1"/>
        <pt x="347" y="1292" on="0"/>
        <pt x="372" y="1312" on="1"/>
        <pt x="413" y="1343" on="0"/>
        <pt x="497" y="1383" on="1"/>
        <pt x="597" y="1430" on="0"/>
        <pt x="626" y="1448" on="1"/>
        <pt x="682" y="1491" on="0"/>
        <pt x="782" y="1547" on="1"/>
        <pt x="826" y="1547" on="1"/>
        <pt x="839" y="1546" on="0"/>
      </contour>
      <contour>
        <pt x="1984" y="-321" on="1"/>
        <pt x="1985" y="-357" on="0"/>
        <pt x="1799" y="-435" on="1"/>
        <pt x="1678" y="-482" on="0"/>
        <pt x="1557" y="-530" on="1"/>
        <pt x="1557" y="-526" on="0"/>
        <pt x="1545" y="-498" on="0"/>
        <pt x="1545" y="-484" on="1"/>
        <pt x="1545" y="-444" on="0"/>
        <pt x="1710" y="-372" on="1"/>
        <pt x="1901" y="-289" on="0"/>
        <pt x="1917" y="-275" on="1"/>
        <pt x="1984" y="-275" on="1"/>
      </contour>
      <contour>
        <pt x="623" y="789" on="1"/>
        <pt x="606" y="668" on="0"/>
        <pt x="542" y="668" on="1"/>
        <pt x="534" y="668" on="0"/>
        <pt x="450" y="720" on="1"/>
        <pt x="450" y="852" on="0"/>
        <pt x="516" y="852" on="1"/>
        <pt x="522" y="852" on="0"/>
      </contour>
      <contour>
        <pt x="1227" y="411" on="1"/>
        <pt x="1227" y="391" on="0"/>
        <pt x="1204" y="333" on="1"/>
        <pt x="1178" y="269" on="0"/>
        <pt x="1150" y="242" on="1"/>
        <pt x="1139" y="229" on="0"/>
        <pt x="1089" y="211" on="1"/>
        <pt x="1046" y="193" on="0"/>
        <pt x="1035" y="169" on="1"/>
        <pt x="1032" y="88" on="0"/>
        <pt x="998" y="-56" on="1"/>
        <pt x="962" y="-133" on="0"/>
        <pt x="818" y="-201" on="1"/>
        <pt x="685" y="-264" on="0"/>
        <pt x="587" y="-264" on="1"/>
        <pt x="450" y="-264" on="0"/>
        <pt x="339" y="-203" on="1"/>
        <pt x="204" y="-129" on="0"/>
        <pt x="204" y="2" on="1"/>
        <pt x="204" y="88" on="0"/>
        <pt x="243" y="174" on="1"/>
        <pt x="287" y="266" on="0"/>
        <pt x="356" y="308" on="1"/>
        <pt x="356" y="220" on="1"/>
        <pt x="356" y="210" on="0"/>
        <pt x="306" y="117" on="0"/>
        <pt x="306" y="104" on="1"/>
        <pt x="306" y="-4" on="0"/>
        <pt x="410" y="-59" on="1"/>
        <pt x="487" y="-100" on="0"/>
        <pt x="587" y="-100" on="1"/>
        <pt x="707" y="-100" on="0"/>
        <pt x="803" y="-62" on="1"/>
        <pt x="931" y="-11" on="0"/>
        <pt x="931" y="89" on="1"/>
        <pt x="931" y="141" on="0"/>
        <pt x="917" y="179" on="1"/>
        <pt x="908" y="206" on="0"/>
        <pt x="865" y="273" on="1"/>
        <pt x="828" y="332" on="0"/>
        <pt x="828" y="345" on="1"/>
        <pt x="828" y="355" on="0"/>
        <pt x="850" y="420" on="0"/>
        <pt x="850" y="441" on="1"/>
        <pt x="854" y="441" on="0"/>
        <pt x="870" y="452" on="0"/>
        <pt x="885" y="452" on="1"/>
        <pt x="893" y="452" on="0"/>
        <pt x="973" y="360" on="0"/>
        <pt x="1028" y="360" on="1"/>
        <pt x="1087" y="360" on="0"/>
        <pt x="1115" y="396" on="1"/>
        <pt x="1110" y="415" on="0"/>
        <pt x="1085" y="471" on="1"/>
        <pt x="1063" y="521" on="0"/>
        <pt x="1063" y="534" on="1"/>
        <pt x="1063" y="570" on="0"/>
        <pt x="1108" y="637" on="1"/>
        <pt x="1154" y="628" on="0"/>
        <pt x="1194" y="539" on="1"/>
        <pt x="1227" y="461" on="0"/>
      </contour>
      <contour>
        <pt x="1350" y="-372" on="1"/>
        <pt x="1329" y="-403" on="0"/>
        <pt x="1307" y="-434" on="1"/>
        <pt x="1290" y="-458" on="0"/>
        <pt x="1258" y="-458" on="1"/>
        <pt x="1245" y="-458" on="0"/>
        <pt x="1174" y="-428" on="0"/>
        <pt x="1161" y="-428" on="1"/>
        <pt x="1162" y="-428" on="0"/>
        <pt x="1062" y="-489" on="0"/>
        <pt x="1049" y="-489" on="1"/>
        <pt x="1022" y="-489" on="0"/>
        <pt x="985" y="-453" on="1"/>
        <pt x="951" y="-421" on="0"/>
        <pt x="951" y="-407" on="1"/>
        <pt x="951" y="-371" on="0"/>
        <pt x="995" y="-339" on="1"/>
        <pt x="1028" y="-315" on="0"/>
        <pt x="1043" y="-315" on="1"/>
        <pt x="1055" y="-315" on="0"/>
        <pt x="1126" y="-346" on="0"/>
        <pt x="1135" y="-346" on="1"/>
        <pt x="1147" y="-346" on="0"/>
        <pt x="1225" y="-274" on="0"/>
        <pt x="1238" y="-274" on="1"/>
        <pt x="1260" y="-274" on="0"/>
        <pt x="1336" y="-339" on="0"/>
      </contour>
      <contour>
        <pt x="2783" y="1407" on="1"/>
        <pt x="2772" y="1438" on="0"/>
        <pt x="2761" y="1445" on="1"/>
        <pt x="2748" y="1445" on="0"/>
        <pt x="2712" y="1409" on="1"/>
        <pt x="2714" y="1408" on="0"/>
        <pt x="2717" y="1407" on="0"/>
      </contour>
      <contour>
        <pt x="3285" y="178" on="1"/>
        <pt x="3285" y="217" on="1"/>
        <pt x="3285" y="233" on="0"/>
        <pt x="3279" y="236" on="1"/>
        <pt x="3277" y="238" on="0"/>
        <pt x="3273" y="237" on="1"/>
        <pt x="3236" y="237" on="1"/>
        <pt x="3224" y="179" on="1"/>
        <pt x="3237" y="166" on="0"/>
        <pt x="3262" y="166" on="1"/>
        <pt x="3271" y="175" on="0"/>
      </contour>
    </TTGlyph>
    <TTGlyph name="uniFB52" xMin="203" yMin="-502" xMax="3171" yMax="1556">
      <contour>
        <pt x="3119" y="1344" on="1"/>
        <pt x="2987" y="1223" on="0"/>
        <pt x="2635" y="1004" on="1"/>
        <pt x="2599" y="1004" on="1"/>
        <pt x="2599" y="1038" on="1"/>
        <pt x="2598" y="1067" on="0"/>
        <pt x="2821" y="1226" on="1"/>
        <pt x="2947" y="1313" on="0"/>
        <pt x="3073" y="1402" on="1"/>
        <pt x="3119" y="1402" on="1"/>
      </contour>
      <contour>
        <pt x="2106" y="1401" on="1"/>
        <pt x="2101" y="1372" on="0"/>
        <pt x="2091" y="1333" on="1"/>
        <pt x="1935" y="1224" on="0"/>
        <pt x="1610" y="1024" on="1"/>
        <pt x="1596" y="1035" on="0"/>
        <pt x="1587" y="1035" on="1"/>
        <pt x="1583" y="1095" on="0"/>
        <pt x="1610" y="1115" on="1"/>
        <pt x="1758" y="1223" on="0"/>
        <pt x="2059" y="1401" on="1"/>
      </contour>
      <contour>
        <pt x="3171" y="156" on="1"/>
        <pt x="3148" y="90" on="0"/>
        <pt x="3026" y="54" on="1"/>
        <pt x="2928" y="25" on="0"/>
        <pt x="2831" y="-3" on="1"/>
        <pt x="2757" y="-45" on="0"/>
        <pt x="2612" y="-102" on="1"/>
        <pt x="2588" y="-77" on="1"/>
        <pt x="2597" y="-60" on="0"/>
        <pt x="2641" y="-9" on="1"/>
        <pt x="2680" y="34" on="0"/>
        <pt x="2680" y="46" on="1"/>
        <pt x="2680" y="59" on="0"/>
        <pt x="2639" y="125" on="0"/>
        <pt x="2639" y="138" on="1"/>
        <pt x="2639" y="188" on="0"/>
        <pt x="2869" y="410" on="0"/>
        <pt x="2921" y="410" on="1"/>
        <pt x="2959" y="410" on="0"/>
        <pt x="2995" y="366" on="1"/>
        <pt x="3028" y="327" on="0"/>
        <pt x="3028" y="297" on="1"/>
        <pt x="3028" y="267" on="0"/>
        <pt x="2964" y="194" on="0"/>
        <pt x="2947" y="194" on="1"/>
        <pt x="2934" y="194" on="0"/>
        <pt x="2869" y="256" on="0"/>
        <pt x="2854" y="256" on="1"/>
        <pt x="2803" y="256" on="0"/>
        <pt x="2803" y="210" on="1"/>
        <pt x="2803" y="161" on="0"/>
        <pt x="2936" y="133" on="1"/>
        <pt x="2966" y="133" on="0"/>
        <pt x="3079" y="163" on="0"/>
        <pt x="3114" y="163" on="1"/>
        <pt x="3142" y="163" on="0"/>
      </contour>
      <contour>
        <pt x="2435" y="282" on="1"/>
        <pt x="2435" y="65" on="0"/>
        <pt x="2355" y="31" on="1"/>
        <pt x="2260" y="972" on="1"/>
        <pt x="2260" y="1045" on="0"/>
        <pt x="2305" y="1144" on="1"/>
        <pt x="2312" y="1150" on="0"/>
        <pt x="2350" y="1167" on="1"/>
      </contour>
      <contour>
        <pt x="1401" y="1223" on="1"/>
        <pt x="1401" y="1177" on="0"/>
        <pt x="1354" y="1177" on="1"/>
        <pt x="1342" y="1177" on="0"/>
        <pt x="1280" y="1208" on="0"/>
        <pt x="1267" y="1208" on="1"/>
        <pt x="1253" y="1208" on="0"/>
        <pt x="938" y="963" on="0"/>
        <pt x="903" y="963" on="1"/>
        <pt x="861" y="963" on="1"/>
        <pt x="848" y="975" on="1"/>
        <pt x="848" y="1012" on="1"/>
        <pt x="926" y="1067" on="0"/>
        <pt x="1003" y="1123" on="1"/>
        <pt x="1144" y="1230" on="0"/>
        <pt x="1144" y="1264" on="1"/>
        <pt x="1144" y="1269" on="0"/>
        <pt x="1073" y="1362" on="0"/>
        <pt x="1073" y="1377" on="1"/>
        <pt x="1073" y="1417" on="0"/>
        <pt x="1116" y="1482" on="1"/>
        <pt x="1167" y="1556" on="0"/>
        <pt x="1221" y="1556" on="1"/>
        <pt x="1281" y="1556" on="0"/>
        <pt x="1304" y="1470" on="1"/>
        <pt x="1300" y="1432" on="0"/>
        <pt x="1311" y="1358" on="1"/>
        <pt x="1347" y="1321" on="0"/>
        <pt x="1397" y="1245" on="1"/>
        <pt x="1401" y="1247" on="0"/>
      </contour>
      <contour>
        <pt x="1401" y="660" on="1"/>
        <pt x="1401" y="623" on="0"/>
        <pt x="1348" y="553" on="0"/>
        <pt x="1319" y="553" on="1"/>
        <pt x="1302" y="553" on="0"/>
        <pt x="1237" y="618" on="0"/>
        <pt x="1237" y="635" on="1"/>
        <pt x="1237" y="659" on="0"/>
        <pt x="1297" y="747" on="0"/>
        <pt x="1319" y="747" on="1"/>
        <pt x="1351" y="747" on="0"/>
        <pt x="1377" y="714" on="1"/>
        <pt x="1401" y="685" on="0"/>
      </contour>
      <contour>
        <pt x="448" y="1503" on="1"/>
        <pt x="446" y="1377" on="0"/>
        <pt x="422" y="1319" on="1"/>
        <pt x="387" y="1239" on="0"/>
        <pt x="295" y="1239" on="1"/>
        <pt x="248" y="1239" on="0"/>
        <pt x="203" y="1282" on="1"/>
        <pt x="258" y="1546" on="0"/>
        <pt x="361" y="1546" on="1"/>
        <pt x="380" y="1546" on="0"/>
      </contour>
      <contour>
        <pt x="2086" y="225" on="1"/>
        <pt x="2086" y="248" on="0"/>
        <pt x="2062" y="86" on="1"/>
        <pt x="2059" y="69" on="0"/>
        <pt x="2022" y="31" on="1"/>
        <pt x="1954" y="31" on="0"/>
        <pt x="1824" y="64" on="1"/>
        <pt x="1818" y="66" on="0"/>
        <pt x="1786" y="85" on="1"/>
        <pt x="1758" y="102" on="0"/>
        <pt x="1743" y="102" on="1"/>
        <pt x="1738" y="102" on="0"/>
        <pt x="1592" y="-10" on="0"/>
        <pt x="1538" y="-10" on="1"/>
        <pt x="1526" y="-10" on="0"/>
        <pt x="1356" y="61" on="0"/>
        <pt x="1344" y="61" on="1"/>
        <pt x="1331" y="61" on="0"/>
        <pt x="1292" y="39" on="1"/>
        <pt x="1235" y="8" on="0"/>
        <pt x="1223" y="2" on="1"/>
        <pt x="1179" y="-4" on="0"/>
        <pt x="1135" y="-11" on="1"/>
        <pt x="1070" y="-25" on="0"/>
        <pt x="1044" y="-79" on="1"/>
        <pt x="955" y="-268" on="0"/>
        <pt x="856" y="-354" on="1"/>
        <pt x="747" y="-449" on="0"/>
        <pt x="670" y="-478" on="1"/>
        <pt x="608" y="-502" on="0"/>
        <pt x="545" y="-502" on="1"/>
        <pt x="461" y="-502" on="0"/>
        <pt x="319" y="-478" on="1"/>
        <pt x="271" y="-471" on="0"/>
        <pt x="203" y="-436" on="1"/>
        <pt x="241" y="-379" on="0"/>
        <pt x="269" y="-379" on="1"/>
        <pt x="282" y="-379" on="0"/>
        <pt x="400" y="-399" on="0"/>
        <pt x="413" y="-399" on="1"/>
        <pt x="526" y="-399" on="0"/>
        <pt x="554" y="-387" on="1"/>
        <pt x="636" y="-351" on="0"/>
        <pt x="752" y="-267" on="1"/>
        <pt x="908" y="-156" on="0"/>
        <pt x="930" y="-78" on="1"/>
        <pt x="904" y="-54" on="0"/>
        <pt x="757" y="-36" on="0"/>
        <pt x="729" y="-6" on="1"/>
        <pt x="694" y="31" on="0"/>
        <pt x="694" y="102" on="1"/>
        <pt x="694" y="155" on="0"/>
        <pt x="758" y="251" on="1"/>
        <pt x="828" y="358" on="0"/>
        <pt x="889" y="358" on="1"/>
        <pt x="947" y="358" on="0"/>
        <pt x="1067" y="143" on="0"/>
        <pt x="1114" y="143" on="1"/>
        <pt x="1126" y="143" on="0"/>
        <pt x="1372" y="225" on="0"/>
        <pt x="1385" y="225" on="1"/>
        <pt x="1392" y="225" on="0"/>
        <pt x="1553" y="143" on="0"/>
        <pt x="1590" y="143" on="1"/>
        <pt x="1654" y="143" on="0"/>
        <pt x="1906" y="471" on="0"/>
        <pt x="1973" y="471" on="1"/>
        <pt x="2006" y="471" on="0"/>
        <pt x="2021" y="447" on="1"/>
        <pt x="2026" y="421" on="0"/>
        <pt x="2058" y="325" on="1"/>
        <pt x="2086" y="238" on="0"/>
      </contour>
      <contour>
        <pt x="438" y="266" on="1"/>
        <pt x="438" y="188" on="0"/>
        <pt x="414" y="75" on="1"/>
        <pt x="410" y="61" on="0"/>
        <pt x="403" y="50" on="1"/>
        <pt x="388" y="29" on="0"/>
        <pt x="359" y="21" on="1"/>
        <pt x="223" y="1013" on="1"/>
        <pt x="237" y="1090" on="0"/>
        <pt x="289" y="1177" on="1"/>
        <pt x="302" y="1165" on="0"/>
        <pt x="321" y="1143" on="1"/>
        <pt x="345" y="1016" on="0"/>
        <pt x="373" y="763" on="1"/>
        <pt x="377" y="637" on="0"/>
        <pt x="414" y="477" on="1"/>
        <pt x="414" y="425" on="0"/>
        <pt x="420" y="323" on="1"/>
        <pt x="421" y="314" on="0"/>
        <pt x="438" y="280" on="0"/>
      </contour>
      <contour>
        <pt x="1942" y="228" on="1"/>
        <pt x="1942" y="231" on="0"/>
        <pt x="1910" y="296" on="1"/>
        <pt x="1874" y="296" on="1"/>
        <pt x="1868" y="283" on="0"/>
        <pt x="1851" y="261" on="1"/>
        <pt x="1897" y="215" on="0"/>
        <pt x="1918" y="215" on="1"/>
        <pt x="1941" y="215" on="0"/>
      </contour>
      <contour>
        <pt x="375" y="1374" on="1"/>
        <pt x="375" y="1391" on="0"/>
        <pt x="364" y="1430" on="0"/>
        <pt x="364" y="1432" on="1"/>
        <pt x="316" y="1416" on="0"/>
        <pt x="296" y="1374" on="1"/>
      </contour>
      <contour>
        <pt x="899" y="149" on="1"/>
        <pt x="876" y="173" on="1"/>
        <pt x="829" y="173" on="1"/>
        <pt x="829" y="144" on="0"/>
        <pt x="850" y="124" on="1"/>
        <pt x="887" y="124" on="1"/>
        <pt x="887" y="134" on="0"/>
      </contour>
    </TTGlyph>
</ttFont>
